<svg width="76" height="76" viewBox="0 0 76 76" fill="none" xmlns="http://www.w3.org/2000/svg">
<path d="M55.4163 22.1668C55.4163 13.4223 47.6186 6.3335 37.9997 6.3335C28.3808 6.3335 20.583 13.4223 20.583 22.1668" fill="#3C73ED" fill-opacity="0.1"/>
<path d="M55.4163 22.1668C55.4163 13.4223 47.6186 6.3335 37.9997 6.3335C28.3808 6.3335 20.583 13.4223 20.583 22.1668" stroke="#4E84FF" stroke-width="2" stroke-linecap="round" stroke-linejoin="round"/>
<path d="M11.083 25.3332C11.083 23.5842 12.5008 22.1665 14.2497 22.1665H61.7497C63.4986 22.1665 64.9163 23.5842 64.9163 25.3332V44.3332C64.9163 46.0821 63.4986 47.4998 61.7497 47.4998H47.4997C45.7507 47.4998 44.333 46.0821 44.333 44.3332C44.333 42.5842 42.9153 41.1665 41.1663 41.1665H34.833C33.0841 41.1665 31.6663 42.5842 31.6663 44.3332C31.6663 46.0821 30.2486 47.4998 28.4997 47.4998H14.2497C12.5008 47.4998 11.083 46.0821 11.083 44.3332V25.3332Z" fill="#3C73ED" fill-opacity="0.1" stroke="#4E84FF" stroke-width="2" stroke-linecap="round" stroke-linejoin="round"/>
<path d="M15.833 47.5V69.6667H60.1663V47.5" fill="#3C73ED" fill-opacity="0.1"/>
<path d="M15.833 47.5V69.6667H60.1663V47.5" stroke="#4E84FF" stroke-width="2" stroke-linecap="round" stroke-linejoin="round"/>
<path d="M44.3337 41.1665H31.667V50.6665H44.3337V41.1665Z" fill="#EBF1FD" stroke="#4E84FF" stroke-width="2" stroke-linecap="round" stroke-linejoin="round"/>
</svg>
