<svg width="76" height="76" viewBox="0 0 76 76" fill="none" xmlns="http://www.w3.org/2000/svg">
<path d="M63.3337 45.355V9.50016C63.3337 7.75126 61.9159 6.3335 60.167 6.3335H15.8337C14.0848 6.3335 12.667 7.75126 12.667 9.50016V66.5002C12.667 68.2491 14.0848 69.6668 15.8337 69.6668H49.3382" fill="#EBF1FD"/>
<path d="M63.3337 45.355V9.50016C63.3337 7.75126 61.9159 6.3335 60.167 6.3335H15.8337C14.0848 6.3335 12.667 7.75126 12.667 9.50016V66.5002C12.667 68.2491 14.0848 69.6668 15.8337 69.6668H49.3382" stroke="#4E84FF" stroke-width="2" stroke-linecap="round" stroke-linejoin="round"/>
<path d="M25.333 19.2437H45.9163" stroke="#4E84FF" stroke-width="2" stroke-linecap="round"/>
<path d="M25.333 30.2051H45.7945" stroke="#4E84FF" stroke-width="2" stroke-linecap="round"/>
<path d="M25.333 41.1743H35.5638" stroke="#4E84FF" stroke-width="2" stroke-linecap="round"/>
<path d="M49.0322 58.2256H61.2903V74.774L55.1613 70.6369L49.0322 74.774V58.2256Z" fill="#EBF1FD" stroke="#4E84FF" stroke-width="2" stroke-linecap="round" stroke-linejoin="round"/>
<path d="M52.8911 42.5259C54.0955 41.3606 56.0071 41.3606 57.2115 42.5259C57.9003 43.1922 58.858 43.5034 59.8069 43.3691C61.4662 43.1344 63.0127 44.258 63.3022 45.9087C63.4678 46.8526 64.0597 47.6672 64.9063 48.1164C66.3867 48.9019 66.9774 50.7198 66.2414 52.2254C65.8205 53.0864 65.8205 54.0934 66.2414 54.9543C66.9774 56.4599 66.3867 58.2779 64.9063 59.0634C64.0597 59.5125 63.4678 60.3272 63.3022 61.2711C63.0127 62.9218 61.4662 64.0453 59.8069 63.8106C58.858 63.6764 57.9003 63.9876 57.2115 64.6539C56.0071 65.8191 54.0955 65.8191 52.8911 64.6539C52.2023 63.9876 51.2446 63.6764 50.2957 63.8106C48.6364 64.0453 47.0899 62.9218 46.8004 61.2711C46.6348 60.3272 46.0429 59.5125 45.1963 59.0634C43.716 58.2779 43.1253 56.4599 43.8612 54.9543C44.2821 54.0934 44.2821 53.0864 43.8612 52.2254C43.1253 50.7198 43.716 48.9019 45.1963 48.1164C46.0429 47.6672 46.6348 46.8526 46.8004 45.9087C47.0899 44.258 48.6364 43.1344 50.2957 43.3691C51.2446 43.5034 52.2023 43.1922 52.8911 42.5259Z" fill="#EBF1FD" stroke="#4E84FF" stroke-width="2"/>
</svg>
