<svg width="76" height="76" viewBox="0 0 76 76" fill="none" xmlns="http://www.w3.org/2000/svg">
<path d="M20.583 66.5H55.4163L64.9163 33.25L49.083 41.1667L37.9997 19L26.9163 41.1667L11.083 33.25L20.583 66.5Z" fill="#3C73ED" fill-opacity="0.1" stroke="#4E84FF" stroke-width="2" stroke-linecap="round" stroke-linejoin="round"/>
<path d="M11.083 33.25C13.7064 33.25 15.833 31.1234 15.833 28.5C15.833 25.8766 13.7064 23.75 11.083 23.75C8.45966 23.75 6.33301 25.8766 6.33301 28.5C6.33301 31.1234 8.45966 33.25 11.083 33.25Z" fill="#3C73ED" fill-opacity="0.1" stroke="#4E84FF" stroke-width="2"/>
<path d="M38 19C40.6234 19 42.75 16.8734 42.75 14.25C42.75 11.6266 40.6234 9.5 38 9.5C35.3766 9.5 33.25 11.6266 33.25 14.25C33.25 16.8734 35.3766 19 38 19Z" fill="#3C73ED" fill-opacity="0.1" stroke="#4E84FF" stroke-width="2"/>
<path d="M64.917 33.25C67.5403 33.25 69.667 31.1234 69.667 28.5C69.667 25.8766 67.5403 23.75 64.917 23.75C62.2936 23.75 60.167 25.8766 60.167 28.5C60.167 31.1234 62.2936 33.25 64.917 33.25Z" fill="#3C73ED" fill-opacity="0.1" stroke="#4E84FF" stroke-width="2"/>
</svg>
