<svg width="76" height="76" viewBox="0 0 76 76" fill="none" xmlns="http://www.w3.org/2000/svg">
<path d="M22.1663 23.7498C30.9108 23.7498 37.9997 20.2054 37.9997 15.8332C37.9997 11.4609 30.9108 7.9165 22.1663 7.9165C13.4218 7.9165 6.33301 11.4609 6.33301 15.8332C6.33301 20.2054 13.4218 23.7498 22.1663 23.7498Z" fill="#EBF1FD"/>
<path d="M6.33301 15.8332C6.33301 15.8332 6.33301 55.7943 6.33301 60.1665C6.33301 64.5387 13.4218 68.0832 22.1663 68.0832C30.9108 68.0832 37.9997 64.5387 37.9997 60.1665C37.9997 57.5768 37.9997 15.8332 37.9997 15.8332" fill="#EBF1FD"/>
<path d="M37.9997 15.8332C37.9997 20.2054 30.9108 23.7498 22.1663 23.7498C13.4218 23.7498 6.33301 20.2054 6.33301 15.8332M37.9997 15.8332C37.9997 11.4609 30.9108 7.9165 22.1663 7.9165C13.4218 7.9165 6.33301 11.4609 6.33301 15.8332M37.9997 15.8332C37.9997 15.8332 37.9997 57.5768 37.9997 60.1665C37.9997 64.5387 30.9108 68.0832 22.1663 68.0832C13.4218 68.0832 6.33301 64.5387 6.33301 60.1665C6.33301 55.7943 6.33301 15.8332 6.33301 15.8332" stroke="#4E84FF" stroke-width="2" stroke-linecap="round" stroke-linejoin="round"/>
<path d="M6.33301 26.9165C6.33301 31.2887 13.4218 34.8332 22.1663 34.8332C30.9108 34.8332 37.9997 31.2887 37.9997 26.9165" stroke="#4E84FF" stroke-width="2" stroke-linecap="round" stroke-linejoin="round"/>
<path d="M6.33301 26.9165C6.33301 26.9165 6.33301 33.6276 6.33301 37.9998C6.33301 42.3721 13.4218 45.9165 22.1663 45.9165C30.9108 45.9165 37.9997 42.3721 37.9997 37.9998C37.9997 35.4101 37.9997 26.9165 37.9997 26.9165" stroke="#4E84FF" stroke-width="2" stroke-linecap="round" stroke-linejoin="round"/>
<path d="M6.33301 38C6.33301 38 6.33301 44.7111 6.33301 49.0833C6.33301 53.4556 13.4218 57 22.1663 57C30.9108 57 37.9997 53.4556 37.9997 49.0833C37.9997 46.4936 37.9997 38 37.9997 38" stroke="#4E84FF" stroke-width="2" stroke-linecap="round" stroke-linejoin="round"/>
<path d="M38 49.0835C38 49.0835 38 55.7946 38 60.1668C38 64.539 45.0889 68.0835 53.8333 68.0835C62.5778 68.0835 69.6667 64.539 69.6667 60.1668C69.6667 57.5771 69.6667 49.0835 69.6667 49.0835" fill="#EBF1FD"/>
<path d="M38 49.0835C38 49.0835 38 55.7946 38 60.1668C38 64.539 45.0889 68.0835 53.8333 68.0835C62.5778 68.0835 69.6667 64.539 69.6667 60.1668C69.6667 57.5771 69.6667 49.0835 69.6667 49.0835" stroke="#4E84FF" stroke-width="2" stroke-linecap="round" stroke-linejoin="round"/>
<path d="M38 38C38 38 38 44.7111 38 49.0833C38 53.4556 45.0889 57 53.8333 57C62.5778 57 69.6667 53.4556 69.6667 49.0833C69.6667 46.4936 69.6667 38 69.6667 38" fill="#EBF1FD"/>
<path d="M38 38C38 38 38 44.7111 38 49.0833C38 53.4556 45.0889 57 53.8333 57C62.5778 57 69.6667 53.4556 69.6667 49.0833C69.6667 46.4936 69.6667 38 69.6667 38" stroke="#4E84FF" stroke-width="2" stroke-linecap="round" stroke-linejoin="round"/>
<path d="M53.8333 45.9168C62.5778 45.9168 69.6667 42.3724 69.6667 38.0002C69.6667 33.6279 62.5778 30.0835 53.8333 30.0835C45.0888 30.0835 38 33.6279 38 38.0002C38 42.3724 45.0888 45.9168 53.8333 45.9168Z" fill="#EBF1FD" stroke="#4E84FF" stroke-width="2" stroke-linecap="round" stroke-linejoin="round"/>
</svg>
