<svg width="76" height="76" viewBox="0 0 76 76" fill="none" xmlns="http://www.w3.org/2000/svg">
<path d="M17.2637 34.6963V55.7724C17.2637 56.1 17.4236 56.406 17.6996 56.5824C19.6777 57.8468 28.1422 62.8579 38.0496 62.8579C47.9571 62.8579 56.4216 57.8468 58.3997 56.5824C58.6757 56.406 58.8356 56.1 58.8356 55.7724V34.6963" fill="#EBF1FD"/>
<path d="M17.2637 34.6963V55.7724C17.2637 56.1 17.4236 56.406 17.6996 56.5824C19.6777 57.8468 28.1422 62.8579 38.0496 62.8579C47.9571 62.8579 56.4216 57.8468 58.3997 56.5824C58.6757 56.406 58.8356 56.1 58.8356 55.7724V34.6963" stroke="#4E84FF" stroke-width="2" stroke-linecap="round" stroke-linejoin="round"/>
<path d="M17.2637 26.7285V48.3276C17.2637 48.3276 26.7118 54.8902 38.0496 54.8902C49.3875 54.8902 58.8356 48.3276 58.8356 48.3276V26.7285" fill="#EBF1FD"/>
<path d="M17.2637 26.7285V48.3276C17.2637 48.3276 26.7118 54.8902 38.0496 54.8902C49.3874 54.8902 58.8356 48.3276 58.8356 48.3276V26.7285" stroke="#4E84FF" stroke-width="2" stroke-linecap="round" stroke-linejoin="round"/>
<path d="M4.49288 25.6522C3.48293 25.3997 3.48292 23.9644 4.49287 23.7119L37.8069 15.3834C37.9661 15.3436 38.1327 15.3436 38.292 15.3834L71.6059 23.7119C72.6159 23.9644 72.6159 25.3997 71.606 25.6522L38.292 33.9807C38.1327 34.0205 37.9661 34.0205 37.8069 33.9807L4.49288 25.6522Z" fill="#EBF1FD" stroke="#4E84FF" stroke-width="2" stroke-linecap="round" stroke-linejoin="round"/>
<path d="M6.2002 26.4985L6.2002 60.3715" stroke="#4E84FF" stroke-width="2" stroke-linecap="round" stroke-linejoin="round"/>
<path d="M10.6997 66.3558L7.01417 61.2479C6.61384 60.693 5.78707 60.695 5.38945 61.2518L1.74153 66.3597C1.26884 67.0216 1.74197 67.9409 2.55531 67.9409H9.88877C10.7043 67.9409 11.1769 67.0172 10.6997 66.3558Z" fill="#EBF1FD" stroke="#4E84FF" stroke-width="2" stroke-linecap="round" stroke-linejoin="round"/>
</svg>
