<svg width="76" height="76" viewBox="0 0 76 76" fill="none" xmlns="http://www.w3.org/2000/svg">
<path d="M15.833 28.5H6.33301V63.5C6.33301 65.1569 7.67615 66.5 9.33301 66.5H66.6663C68.3232 66.5 69.6663 65.1569 69.6663 63.5V28.5H60.1663" stroke="#4E84FF" stroke-width="2" stroke-linecap="round"/>
<path d="M60.1663 13.5C60.1663 11.2909 58.3755 9.5 56.1663 9.5H19.833C17.6239 9.5 15.833 11.2909 15.833 13.5V35.625L37.9997 52.25L60.1663 35.625V13.5Z" fill="#3C73ED" fill-opacity="0.1" stroke="#4E84FF" stroke-width="2"/>
<path d="M69.6663 28.5L60.1663 35.625L37.9997 52.25L15.833 35.625L6.33301 28.5" stroke="#4E84FF" stroke-width="2" stroke-linecap="round"/>
<path d="M30.083 30.0835L37.9997 38.0002L45.9163 30.0835" stroke="#4E84FF" stroke-width="2" stroke-linecap="round"/>
<path d="M38 38.0002V20.5835" stroke="#4E84FF" stroke-width="2" stroke-linecap="round"/>
</svg>
