<svg width="76" height="76" viewBox="0 0 76 76" fill="none" xmlns="http://www.w3.org/2000/svg">
<path d="M76 0H0V76H76V0Z" fill="white" fill-opacity="0.01"/>
<path fill-rule="evenodd" clip-rule="evenodd" d="M35.1808 11.6831L53.6553 26.3181L57.2827 38.0003L40.0001 41.3022L19.9336 23.0083L24.1961 14.253L35.1808 11.6831Z" stroke="#333333" stroke-width="2" stroke-linejoin="round"/>
<path d="M24.1953 14.252L41.9372 29.4522" stroke="#333333" stroke-width="2" stroke-linecap="round"/>
<path d="M39.998 41.3019L41.9359 28.71L53.653 26.3179" stroke="#333333" stroke-width="2" stroke-linecap="round" stroke-linejoin="round"/>
<path d="M39.5719 49.1193L43.1917 60.3299L24.7013 63.9325L6.33301 45.9387L10.403 35.8233L19.0448 33.8096" stroke="#333333" stroke-width="2" stroke-linecap="round" stroke-linejoin="round"/>
<path d="M10.4033 35.8228L27.3663 51.8662" stroke="#333333" stroke-width="2" stroke-linecap="round"/>
<path d="M24.7021 63.1199L27.6874 50.8769L39.5692 49.1528" stroke="#333333" stroke-width="2" stroke-linecap="round" stroke-linejoin="round"/>
<path fill-rule="evenodd" clip-rule="evenodd" d="M55.2371 46.879L53.833 58.2667L68.4567 55.4145L65.3617 44.6304L55.2371 46.879Z" stroke="#333333" stroke-width="2" stroke-linejoin="round"/>
</svg>
