<svg width="76" height="76" viewBox="0 0 76 76" fill="none" xmlns="http://www.w3.org/2000/svg">
<path d="M61.7497 34.9082H14.2497C12.5008 34.9082 11.083 36.326 11.083 38.0749V66.5749C11.083 68.3238 12.5008 69.7415 14.2497 69.7415H61.7497C63.4986 69.7415 64.9163 68.3238 64.9163 66.5749V38.0749C64.9163 36.326 63.4986 34.9082 61.7497 34.9082Z" fill="#3C73ED" fill-opacity="0.1" stroke="#4E84FF" stroke-width="2"/>
<path d="M22.167 22.1743H23.167L23.167 22.1733L22.167 22.1743ZM36.553 6.41451L36.6525 7.40956L36.6525 7.40956L36.553 6.41451ZM52.8541 19.2105C52.9651 19.7516 53.4937 20.1001 54.0347 19.9891C54.5757 19.8781 54.9243 19.3495 54.8133 18.8085L52.8541 19.2105ZM23.167 34.8335V22.1743H21.167V34.8335H23.167ZM23.167 22.1733C23.1593 14.5664 28.9804 8.1763 36.6525 7.40956L36.4536 5.41947C27.7754 6.28676 21.1582 13.523 21.167 22.1753L23.167 22.1733ZM36.6525 7.40956C44.3255 6.6427 51.3237 11.7536 52.8541 19.2105L54.8133 18.8085C53.0735 10.3313 45.1303 4.5523 36.4536 5.41947L36.6525 7.40956Z" fill="#4E84FF"/>
<path d="M38 47.5V57" stroke="#4E84FF" stroke-width="2" stroke-linecap="round"/>
</svg>
