<svg width="76" height="76" viewBox="0 0 76 76" fill="none" xmlns="http://www.w3.org/2000/svg">
<path d="M38.0833 30.4167C44.2045 30.4167 49.1667 25.4545 49.1667 19.3333C49.1667 13.2122 44.2045 8.25 38.0833 8.25C31.9622 8.25 27 13.2122 27 19.3333C27 25.4545 31.9622 30.4167 38.0833 30.4167Z" fill="#3C73ED" fill-opacity="0.1" stroke="#4E84FF" stroke-width="2" stroke-linecap="round" stroke-linejoin="round"/>
<path d="M14 65.35V67.75H62V65.35C62 56.3892 62 51.9088 60.605 48.4862C59.3778 45.4756 57.4195 43.0278 55.011 41.4938C52.273 39.75 48.6886 39.75 41.52 39.75H34.48C27.3114 39.75 23.727 39.75 20.9889 41.4938C18.5804 43.0278 16.6223 45.4756 15.3951 48.4862C14 51.9088 14 56.3892 14 65.35Z" fill="#3C73ED" fill-opacity="0.1" stroke="#4E84FF" stroke-width="2" stroke-linecap="round" stroke-linejoin="round"/>
<path d="M29 54L35 60L47 48" stroke="#4E84FF" stroke-width="2" stroke-linecap="round"/>
</svg>
