<svg width="76" height="76" viewBox="0 0 76 76" fill="none" xmlns="http://www.w3.org/2000/svg">
<path d="M56.5365 25.4878L55.6097 31.0488L53.756 28.7317L51.439 26.878L48.6585 25.0244L44.4877 23.6341L39.3902 22.2439L34.756 20.3902L31.5121 15.7561L30.5853 14.8293H28.7316L25.9511 15.7561L23.6341 18.0732L21.7804 22.7073L19.9268 28.2683V22.7073L20.8536 17.6097L24.5609 12.5122L28.2682 9.26828L32.439 6.95121L39.8536 6.48779L45.878 7.87804L51.9024 12.5122L55.6097 18.5366L56.5365 25.4878Z" fill="#3C73ED" fill-opacity="0.1" stroke="#3C73ED" stroke-opacity="0.1"/>
<path d="M51.4351 38.7686C52.9921 37.2115 54.2802 35.3854 55.2236 33.3661C56.3634 30.9262 57 28.2042 57 25.3335C57 14.8401 48.4934 6.3335 38 6.3335C27.5066 6.3335 19 14.8401 19 25.3335C19 30.5802 21.1266 35.3302 24.5649 38.7686" stroke="#4E84FF" stroke-width="2" stroke-linecap="round"/>
<path d="M9.5 69.6668L11.0833 61.7502L28.5 49.0835L38 58.5835L47.5 49.0835L64.9167 61.7502L66.5 69.6668" stroke="#4E84FF" stroke-width="2" stroke-linecap="round" stroke-linejoin="round"/>
<path d="M20.5713 33.2611C20.5914 26.7527 21.6503 21.9989 23.7484 18.9997C26.8956 14.5012 29.1112 14.8318 30.7236 15.5325C32.3361 16.2332 33.2842 20.8115 35.9774 22.1312C38.6707 23.4509 45.5631 23.6139 47.9238 25.2013C50.2846 26.7889 55.6836 29.7418 54.3376 34.7832" stroke="#4E84FF" stroke-width="2"/>
</svg>
