<svg width="160" height="70" viewBox="0 0 160 70" fill="none" xmlns="http://www.w3.org/2000/svg">
<path d="M17.9818 43.4957V47.2336H17.0562V45.6705H15.7339V47.2336H14.8082V43.4957H15.7339V44.8549H17.0562V43.4957H17.9818ZM20.8248 43.4957L22.1471 47.2336H21.1553L20.957 46.6219H19.6347L19.4363 47.2336H18.4446L19.7669 43.4957H20.8248ZM20.362 44.3792L19.8991 45.9423H20.8248L20.362 44.3792ZM22.7421 43.4957H24.395C24.7917 43.4957 25.2545 43.4957 25.5851 43.9035C25.7834 44.1073 25.8496 44.3792 25.8496 44.719C25.8496 45.4666 25.3206 45.6705 25.1223 45.7384L25.9818 47.2336H24.9901L24.2628 45.8743H23.6677V47.2336H22.7421V43.4957ZM23.6016 44.2433V45.2627H24.3289C24.4611 45.2627 24.8578 45.2627 24.8578 44.719C24.8578 44.2433 24.5272 44.2433 24.3289 44.2433H23.6016ZM30.7421 43.4957V47.2336H29.8826L29.9487 44.5831V44.2433V44.3792C29.8826 44.5831 29.8826 44.5831 29.8826 44.787L29.2215 47.3015H28.4281L27.7669 44.9229L27.6347 44.2433C27.6347 44.5151 27.6347 44.5831 27.6347 44.9229L27.7008 47.2336H26.8413V43.4957H28.1636L28.6925 45.6025L28.8248 46.2141C28.8909 45.9423 28.8909 45.9423 28.8909 45.7384L29.4859 43.4957H30.7421ZM33.5851 43.4957L34.9074 47.2336H33.9157L33.7173 46.6219H32.395L32.1967 47.2336H31.2049L32.5272 43.4957H33.5851ZM33.1223 44.3792L32.6595 45.9423H33.5851L33.1223 44.3792ZM38.5438 46.418C38.4115 46.6219 38.2793 46.8258 38.0148 47.0297C37.8826 47.1656 37.4859 47.3695 37.0231 47.3695C36.0975 47.3695 35.3041 46.6219 35.3041 45.3986C35.3041 44.3112 36.0314 43.4277 37.0231 43.4277C37.4198 43.4277 37.8165 43.5637 38.081 43.7675C38.3454 43.9714 38.4777 44.1753 38.5438 44.3792L37.8165 44.719C37.7504 44.5831 37.6843 44.4471 37.552 44.3112C37.3537 44.1753 37.2215 44.1073 37.0231 44.1073C36.4281 44.1073 36.1636 44.651 36.1636 45.2627C36.1636 46.0782 36.5603 46.486 37.0231 46.486C37.4859 46.486 37.6843 46.1462 37.8165 45.9423L38.5438 46.418ZM39.1388 43.4957H41.7834V44.2433H39.9983V44.9229H41.6512V45.6025H39.9983V46.486H41.9157V47.2336H39.0727V43.4957H39.1388ZM45.8826 43.4957V45.5345C45.8826 45.8743 45.8826 46.2821 45.6843 46.5539C45.2876 47.1656 44.4942 47.2336 44.362 47.2336C44.0975 47.2336 43.7669 47.1656 43.5025 47.0297C42.7752 46.6899 42.7752 46.0103 42.8413 45.5345V43.4957H43.7669V45.8064C43.7669 46.0103 43.7669 46.1462 43.833 46.2821C43.9653 46.486 44.1636 46.5539 44.4281 46.5539C45.0231 46.5539 45.0231 46.1462 45.0231 45.8064V43.4957H45.8826ZM46.4777 43.4957H49.2545V44.2433H48.3289V47.2336H47.4033V44.2433H46.4777V43.4957ZM50.7752 43.4957V47.2336H49.8496V43.4957H50.7752ZM54.9405 46.418C54.8082 46.6219 54.676 46.8258 54.4115 47.0297C54.2793 47.1656 53.8826 47.3695 53.4198 47.3695C52.4942 47.3695 51.7008 46.6219 51.7008 45.3986C51.7008 44.3112 52.4281 43.4277 53.4198 43.4277C53.8165 43.4277 54.2132 43.5637 54.4777 43.7675C54.7421 43.9714 54.8744 44.1753 54.9405 44.3792L54.2132 44.719C54.1471 44.5831 54.081 44.4471 53.9487 44.3112C53.7504 44.1753 53.6182 44.1073 53.4198 44.1073C52.8248 44.1073 52.5603 44.651 52.5603 45.2627C52.5603 46.0782 52.957 46.486 53.4198 46.486C53.8826 46.486 54.081 46.1462 54.2132 45.9423L54.9405 46.418ZM57.2545 43.4957L58.5768 47.2336H57.5851L57.3867 46.6219H56.0644L55.8661 47.2336H54.8744L56.1967 43.4957H57.2545ZM56.7256 44.3792C56.7256 44.3792 56.395 45.6705 56.2628 45.9423H57.1884L56.7256 44.3792ZM59.1058 43.4957H60.0314V46.418H61.4198V47.2336H59.1058V43.4957ZM66.7091 46.418C66.5768 46.6219 66.4446 46.8258 66.1801 47.0297C66.0479 47.1656 65.6512 47.3695 65.1884 47.3695C64.2628 47.3695 63.4694 46.6219 63.4694 45.3986C63.4694 44.3112 64.1967 43.4277 65.1884 43.4277C65.5851 43.4277 65.9818 43.5637 66.2463 43.7675C66.5107 43.9714 66.6429 44.1753 66.7091 44.3792L65.9818 44.719C65.9157 44.5831 65.8496 44.4471 65.7173 44.3112C65.519 44.1753 65.3868 44.1073 65.1884 44.1073C64.5934 44.1073 64.3289 44.651 64.3289 45.2627C64.3289 46.0782 64.7256 46.486 65.1884 46.486C65.6512 46.486 65.8496 46.1462 65.9818 45.9423L66.7091 46.418ZM69.0231 47.3695C67.8991 47.3695 67.238 46.486 67.238 45.3986C67.238 44.3792 67.833 43.4277 69.0231 43.4277C69.2215 43.4277 69.4859 43.4277 69.6843 43.5637C70.8082 43.9714 70.8744 45.1947 70.8744 45.4666C70.8744 46.0782 70.6099 46.6899 70.2132 47.0297C69.8165 47.2336 69.4198 47.3695 69.0231 47.3695ZM69.6843 44.4472C69.552 44.3112 69.2876 44.1753 69.0231 44.1753C68.4942 44.1753 68.0975 44.651 68.0975 45.3306C68.0975 46.2141 68.5603 46.5539 69.0231 46.5539C69.4859 46.5539 69.8826 46.2141 69.9487 45.4666C69.9487 45.0588 69.8826 44.651 69.6843 44.4472ZM75.7008 43.4957V47.2336H74.8413L74.9074 44.5831V44.2433V44.3792C74.8413 44.5831 74.8413 44.5831 74.8413 44.787L74.1801 47.3015H73.3867L72.7256 44.9229L72.5934 44.2433C72.5934 44.5151 72.5934 44.5831 72.5934 44.9229L72.6595 47.2336H71.8V43.4957H73.1223L73.6512 45.6025L73.7834 46.2141C73.8496 45.9423 73.8496 45.9423 73.8496 45.7384L74.4446 43.4957H75.7008ZM76.8909 43.4957H78.3454C78.9405 43.4957 79.4694 43.4957 79.8 43.9714C79.9322 44.1753 79.9983 44.5151 79.9983 44.719C79.9983 44.9229 79.9322 45.1268 79.8661 45.3306C79.5355 46.0103 78.8744 46.0103 78.4115 46.0103H77.8165V47.2336H76.8909V43.4957ZM77.8165 44.1753V45.3306H78.3454C78.676 45.3306 79.0727 45.3306 79.0727 44.719C79.0727 44.1753 78.6099 44.1753 78.3454 44.1753H77.8165ZM82.114 43.4957L83.4363 47.2336H82.4446L82.2462 46.6219H80.9239L80.7256 47.2336H79.7339L81.0562 43.4957H82.114ZM81.6512 44.3792C81.5851 44.5831 81.5851 44.787 81.519 44.9229C81.4529 45.1947 81.3206 45.6705 81.2545 45.9423H82.1801L81.6512 44.3792ZM83.833 43.4957H84.6925L85.4859 44.8549C85.7504 45.3986 85.8826 45.5345 86.0149 45.8743L85.9487 43.4957H86.8082V47.2336H85.9487L85.2876 46.0782C84.957 45.5345 84.8909 45.3986 84.6264 44.9229V47.2336H83.7669V43.4957H83.833ZM88.9239 43.4957V47.2336H87.9983V43.4957H88.9239ZM90.1801 43.4957H92.8248V44.2433H91.0396V44.9229H92.6925V45.6025H91.0396V46.486H92.957V47.2336H90.114V43.4957H90.1801ZM94.3454 46.1462C94.4115 46.2821 94.5438 46.3501 94.676 46.418C94.9405 46.554 95.1388 46.6219 95.4033 46.6219C95.7339 46.6219 96.0644 46.418 96.0644 46.2141C96.0644 45.9423 95.7339 45.8743 95.4033 45.8064C95.2049 45.8064 95.0066 45.7384 94.8082 45.7384C94.6099 45.6705 93.8165 45.5345 93.8165 44.719C93.8165 43.7675 94.676 43.4957 95.271 43.4957C96.1306 43.4957 96.5273 43.9035 96.8578 44.1753L96.1967 44.651C96.0644 44.5151 95.9983 44.4472 95.8661 44.3792C95.7339 44.3112 95.5355 44.2433 95.271 44.2433C94.9405 44.2433 94.7421 44.4471 94.7421 44.651C94.7421 44.9229 95.0727 44.9908 95.2049 44.9908C95.6016 45.0588 96.1305 45.1268 96.3289 45.1947C96.7256 45.3306 96.924 45.6705 96.924 46.0782C96.924 46.3501 96.8578 46.6219 96.6595 46.8938C96.3289 47.3015 95.8 47.3695 95.271 47.3695C94.2793 47.3695 93.8165 46.8938 93.6182 46.6219L94.3454 46.1462ZM11.1719 43.4957H12.6264C13.2215 43.4957 13.7504 43.4957 14.081 43.9714C14.2132 44.1753 14.2793 44.5151 14.2793 44.719C14.2793 44.9229 14.2132 45.1268 14.1471 45.3306C13.8165 46.0103 13.1553 46.0103 12.6925 46.0103H12.0975V47.2336H11.1719V43.4957ZM12.0314 44.1753V45.3306H12.5603C12.8909 45.3306 13.2876 45.3306 13.2876 44.719C13.2876 44.1753 12.8248 44.1753 12.5603 44.1753H12.0314ZM101.023 47.3695C99.8991 47.3695 99.238 46.486 99.238 45.3986C99.238 44.3792 99.833 43.4277 101.023 43.4277C101.221 43.4277 101.486 43.4277 101.684 43.5637C102.808 43.9714 102.874 45.1947 102.874 45.4666C102.874 46.0782 102.61 46.6899 102.213 47.0297C101.817 47.2336 101.42 47.3695 101.023 47.3695ZM101.618 44.4472C101.486 44.3112 101.221 44.1753 100.957 44.1753C100.428 44.1753 100.031 44.651 100.031 45.3306C100.031 46.2141 100.494 46.5539 100.957 46.5539C101.42 46.5539 101.817 46.2141 101.883 45.4666C101.949 45.0588 101.816 44.651 101.618 44.4472ZM106.378 43.4957V44.2433H104.527V44.9908H106.246V45.7384H104.527V47.2336H103.602V43.4957H106.378Z" fill="#888B8D"/>
<path d="M14.8756 51.6495C14.8756 51.7854 14.6112 52.2612 14.3467 53.1447C14.0161 54.0961 13.6856 55.3874 13.6856 57.0184C13.6856 57.9699 13.8839 59.1932 14.0823 60.4845L13.5533 61.232C12.6938 60.1447 12.0988 58.8534 12.0988 56.6786C12.0988 53.6204 13.8839 51.5136 14.8095 51.5136C14.8095 51.5816 14.8756 51.6495 14.8756 51.6495ZM39.7351 60.2126C39.8674 60.5524 39.8674 60.7563 39.8674 61.0282C39.8674 61.3 39.7351 61.5718 39.5368 61.5718C39.4046 61.5718 39.2723 61.4359 39.2723 61.1641C39.2723 60.9602 39.5368 60.4845 39.7351 60.2126ZM14.2145 61.4359C14.3467 62.3874 14.479 63.3388 14.479 64.0864C14.479 65.7854 13.95 67.8243 12.9583 67.8243C12.5616 67.8243 12.2971 67.4165 12.231 66.8049C12.231 64.5621 13.2228 62.7951 14.2145 61.4359ZM42.9748 57.5621C42.6442 57.9699 42.4459 58.5816 42.4459 59.3971C42.4459 60.8922 43.3054 62.3194 44.8922 62.3194C46.4789 62.3194 47.5368 61.0282 47.5368 59.2612C47.5368 58.7175 47.5368 58.6495 47.4707 58.4456C47.8013 58.3097 48.1318 58.0379 48.3963 57.834C48.5946 57.6981 48.793 57.5621 48.8591 57.5621C48.9913 57.5621 49.0574 57.6981 49.0574 57.9019V61.4359C49.0574 61.9796 49.2558 62.2515 49.6525 62.2515C50.0492 62.2515 50.3137 61.9796 50.512 61.6398C51.107 60.4165 51.9004 58.7854 52.2971 58.1058C52.3632 57.9699 52.4294 57.834 52.4955 57.834C52.5616 57.834 52.6277 57.9019 52.6277 58.1058V60.8922C52.6277 61.7078 52.9583 62.1835 53.7517 62.1835C54.5451 62.1835 54.9417 61.368 55.669 60.1447C55.7351 60.0767 55.7351 60.0087 55.7351 59.9408C55.7351 59.8049 55.6029 59.6689 55.4707 59.6689C55.3384 59.6689 55.2062 59.8049 54.6773 60.4165C54.5451 60.5524 54.4789 60.6884 54.2806 60.6884C54.2145 60.6884 54.1484 60.6204 54.1484 60.4845V57.3583C54.1484 56.5427 53.7517 56.2029 53.2889 56.2029C52.8922 56.2029 52.5616 56.3388 52.231 56.8825C51.636 57.766 51.0409 59.0573 50.7103 59.6689C50.6442 59.7369 50.6442 59.8728 50.5781 59.8728C50.512 59.8728 50.512 59.8049 50.512 59.6689V57.3583C50.512 56.6786 50.3136 56.2029 49.6525 56.2029C48.9252 56.2029 48.5946 56.6786 48.0657 57.0864C47.7351 57.3583 47.4046 57.4942 47.2062 57.6301C46.8756 56.7466 46.2145 56.2709 45.6856 56.2709C45.1566 56.2709 44.7599 56.6107 44.7599 57.2223C44.7599 57.834 45.0905 58.2418 45.5533 58.3777C45.8178 58.5136 46.0822 58.5136 46.4128 58.5136C46.5451 58.5136 46.6112 58.5136 46.6773 58.5136C46.7434 58.7175 46.6773 58.9214 46.6773 59.1252C46.6773 60.0087 46.1484 60.8922 45.2227 60.8922C44.231 60.8922 43.7021 59.9408 43.7021 58.7854C43.7021 57.9699 43.9665 57.2223 44.3632 56.7466C44.4955 56.5427 44.6277 56.4748 44.6277 56.2709C44.6277 56.2029 44.4955 56.2029 44.4294 56.2029C43.7682 56.2029 43.0409 56.4748 42.512 56.7466C41.8508 57.0864 41.0575 57.6981 40.3963 58.3097C40.0657 57.5621 39.669 56.9505 39.5368 56.4748C39.4707 56.2709 39.4046 56.067 39.2723 56.067C39.1401 56.067 39.074 56.2029 39.0079 56.4068C38.6773 57.3583 37.0244 60.1447 36.6277 60.5524C36.6277 60.6204 36.5616 60.6884 36.4955 60.6884C36.4294 60.6884 36.4294 60.6884 36.4294 60.5524V57.4262C36.4294 56.6107 36.0988 56.2709 35.636 56.2709C35.2393 56.2709 34.9087 56.4068 34.5781 56.9505C33.9831 57.834 33.3219 59.1252 32.9913 59.8049C32.9252 59.9408 32.8591 59.9408 32.8591 59.9408C32.8591 59.9408 32.8591 59.8728 32.8591 59.7369V57.4262C32.8591 56.6107 32.5285 56.2709 32.0657 56.2709C31.669 56.2709 31.3385 56.4068 31.0079 56.9505C30.2806 58.2418 29.0244 60.2126 28.8261 60.4845C28.7599 60.5524 28.7599 60.5524 28.6938 60.6204C28.6277 60.6204 28.6277 60.5524 28.6277 60.4845V57.4942C28.6277 56.6786 28.2971 56.3388 27.8343 56.3388C27.1732 56.3388 26.8426 56.9505 26.6442 57.2903C26.3137 57.834 25.917 58.5136 25.5864 59.1252C25.388 59.533 25.1897 59.9408 25.1236 59.9408C25.0575 59.9408 25.0575 59.8049 25.0575 59.465V57.0864C26.1814 55.7951 26.8426 54.3 26.8426 52.601C26.8426 51.6495 26.4459 51.1058 25.7847 51.1058C24.5947 51.1058 23.669 53.0767 23.669 55.3194V57.1544C23.1401 57.4942 22.6112 57.6981 21.95 57.834C21.6194 56.8146 20.8922 56.3388 20.3632 56.3388C19.8343 56.3388 19.4376 56.6786 19.4376 57.2903C19.4376 58.2418 20.3632 58.6495 21.1566 58.6495H21.355C21.4211 58.8534 21.4211 59.0573 21.4211 59.1932C21.4211 60.0767 20.8922 60.9602 19.9665 60.9602C18.9748 60.9602 18.3798 60.0087 18.3798 58.8534C18.3798 58.0379 18.6442 57.2903 19.0409 56.8146C19.1732 56.6107 19.3054 56.4748 19.3054 56.3388C19.3054 56.2709 19.1732 56.2709 19.107 56.2709C18.4459 56.2709 16.9913 57.1544 15.2062 58.9893C15.074 57.5621 14.8756 56.135 14.8756 54.7757C14.8756 53.2806 15.1401 51.9214 15.2723 51.5816C15.3385 51.3777 15.3385 51.2417 15.3385 51.1058C15.3385 50.9699 15.2723 50.9019 15.074 50.9019C13.6856 50.9019 10.5781 53.2126 10.5781 56.6786C10.5781 59.1252 11.4376 60.3485 12.9583 61.8437C12.0327 63.3388 11.3054 65.1738 11.3054 66.8049C11.3054 67.9602 11.5699 68.8437 12.4294 68.8437C14.1484 68.8437 15.4707 65.1058 15.4707 62.3194C15.4707 61.5039 15.4707 60.6884 15.3385 59.8728C15.9996 59.1932 16.9913 58.2417 17.1897 58.1058C17.0575 58.5136 16.9913 58.8534 16.9913 59.2612C16.9913 60.7563 17.8509 62.1835 19.4376 62.1835C20.9583 62.1835 22.0823 60.8922 22.0823 59.1252C22.0823 58.9214 22.0823 58.7175 22.0823 58.5136C22.6112 58.3777 23.1401 58.2418 23.669 57.9699V61.5718C23.669 62.0476 23.9996 62.2515 24.2641 62.2515C24.6608 62.2515 24.8591 61.9796 25.1897 61.3C25.4542 60.7563 26.1153 59.533 26.512 58.7854C26.8426 58.2417 26.9748 57.834 27.1732 57.834C27.2393 57.834 27.2393 57.9019 27.2393 58.1058V61.1641C27.2393 61.9796 27.636 62.1835 28.0327 62.1835C28.3632 62.1835 28.6277 61.9796 28.8261 61.6398C29.7517 60.2806 30.6773 58.7175 31.074 58.0379C31.1401 57.9019 31.2062 57.834 31.2723 57.834C31.3385 57.834 31.4046 57.9019 31.4046 58.1058V61.3C31.4046 61.8437 31.6029 62.1155 31.9996 62.1155C32.3963 62.1155 32.6608 61.8437 32.793 61.5039C33.388 60.2806 34.2475 58.6495 34.5781 57.9699C34.6442 57.834 34.7765 57.6981 34.7765 57.6981C34.8426 57.6981 34.8426 57.766 34.8426 58.0379V61.0961C34.8426 61.9116 35.2393 62.1155 35.636 62.1155C36.0988 62.1155 36.4294 61.7757 36.7599 61.368C37.355 60.6204 38.1484 59.1932 38.6773 58.3097C38.8756 58.5816 39.074 58.9214 39.2062 59.3291C38.8095 59.8728 38.3467 60.4165 38.3467 61.0961C38.3467 61.7757 38.8095 62.1835 39.2723 62.1835C40.0657 62.1835 40.793 61.368 40.793 60.2806C40.793 59.8728 40.6608 59.3971 40.5285 58.9893C41.5203 58.3777 42.3137 57.6981 42.9748 57.5621ZM25.2558 54.9117C25.2558 52.2612 25.7847 51.8534 25.917 51.8534C26.1814 51.8534 26.2475 52.0573 26.2475 53.0767C26.2475 54.1641 25.7847 55.5233 25.2558 56.2709V54.9117ZM20.3632 57.4942C20.3632 57.3583 20.4955 57.2223 20.6277 57.2223C20.8261 57.2223 21.1566 57.4942 21.355 57.9699C20.7599 57.9699 20.3632 57.834 20.3632 57.4942ZM45.6194 57.4942C45.6194 57.3583 45.7517 57.2223 45.8839 57.2223C46.0822 57.2223 46.4789 57.4942 46.6773 57.9699C46.6112 57.9699 46.4789 57.9699 46.4128 57.9699C45.95 58.0379 45.6194 57.834 45.6194 57.4942ZM59.7021 60.4845C59.4376 60.5524 59.2393 60.5524 58.9087 60.5524C58.2475 60.5524 57.7186 60.2806 57.7186 59.8728C57.7186 59.601 57.8508 59.465 58.1814 59.465C58.7765 59.465 59.1732 59.8728 59.7021 60.4845ZM63.1401 60.6204C63.4707 61.0282 63.8674 61.4359 64.2641 61.9117C63.3384 63.4068 62.6112 65.2417 62.6112 66.8728C62.6112 68.0282 62.8756 68.9116 63.7351 68.9116C65.4541 68.9116 66.7765 65.1738 66.7765 62.3874C66.7765 61.5718 66.7103 60.7563 66.6442 59.9408C67.3054 59.2612 68.2971 58.3097 68.4955 58.1738C68.3632 58.5816 68.2971 58.9214 68.2971 59.3291C68.2971 60.8243 69.1566 62.2515 70.7434 62.2515C72.2641 62.2515 73.388 60.9602 73.388 59.1932C73.388 58.9893 73.388 58.7854 73.3219 58.5816C73.8508 58.4456 74.3798 58.3097 74.9087 58.0379V61.6398C74.9087 62.1155 75.2393 62.3194 75.5037 62.3194C75.9004 62.3194 76.0988 62.0476 76.4294 61.368C76.6938 60.8243 77.355 59.601 77.7517 58.8534C78.0822 58.3097 78.2145 57.9019 78.3467 57.9019C78.4128 57.9019 78.4128 57.9699 78.4128 58.1738V61.232C78.4128 62.0476 78.8095 62.2515 79.2062 62.2515C79.5368 62.2515 79.8012 62.0476 79.9996 61.7078C80.9252 60.3485 81.8508 58.7854 82.2475 58.1058C82.3136 57.9699 82.3798 57.9019 82.4459 57.9019C82.512 57.9019 82.5781 57.9699 82.5781 58.1738V61.368C82.5781 61.9117 82.7765 62.1835 83.1731 62.1835C83.5698 62.1835 83.8343 61.9117 83.9665 61.5718C84.5616 60.3485 85.4211 58.7175 85.7517 58.0379C85.8178 57.9019 85.95 57.766 86.0161 57.766C86.0822 57.766 86.0822 57.834 86.0822 58.1058V61.1641C86.0822 61.9796 86.4789 62.1835 86.8756 62.1835C87.3384 62.1835 87.669 61.8437 87.9996 61.4359C88.5946 60.6883 89.388 59.2612 89.9169 58.3777C90.1153 58.6495 90.3136 58.9893 90.4459 59.3971C90.0492 59.9408 89.5864 60.4845 89.5864 61.1641C89.5864 61.8437 90.0492 62.2515 90.512 62.2515C91.3054 62.2515 92.0326 61.4359 92.0326 60.3485C92.0326 59.9408 91.9004 59.4651 91.7682 59.0573C92.4955 58.3097 93.355 57.6301 93.95 57.4942C93.6194 57.9019 93.4211 58.5136 93.4211 59.3291C93.4211 60.8243 94.2806 62.2515 95.8674 62.2515C97.4541 62.2515 98.512 60.9602 98.512 59.1932C98.512 58.6495 98.512 58.5816 98.4459 58.3777C98.8426 58.2418 99.107 57.9699 99.3715 57.766C99.5698 57.6301 99.7682 57.4942 99.8343 57.4942C99.9665 57.4942 100.033 57.6301 100.033 57.834V61.368C100.033 61.9117 100.231 62.1835 100.628 62.1835C101.024 62.1835 101.289 61.9117 101.487 61.5718C102.082 60.3485 102.876 58.7175 103.272 58.0379C103.338 57.9019 103.405 57.766 103.471 57.766C103.537 57.766 103.603 57.834 103.603 58.0379V60.8243C103.603 61.6398 103.933 62.1155 104.727 62.1155C105.52 62.1155 105.917 61.3 106.644 60.0767C106.71 60.0087 106.71 59.9408 106.71 59.8728C106.71 59.7369 106.578 59.601 106.446 59.601C106.314 59.601 106.181 59.7369 105.652 60.3485C105.52 60.4845 105.454 60.6204 105.256 60.6204C105.19 60.6204 105.124 60.5524 105.124 60.4165V57.2903C105.124 56.4748 104.727 56.135 104.264 56.135C103.867 56.135 103.537 56.2709 103.206 56.8146C102.611 57.6981 102.016 58.9893 101.686 59.601C101.619 59.6689 101.619 59.8049 101.553 59.8049C101.487 59.8049 101.487 59.7369 101.487 59.601V57.2903C101.487 56.6107 101.289 56.135 100.628 56.135C99.9004 56.135 99.5698 56.6107 99.0409 57.0184C98.7103 57.2903 98.3798 57.4262 98.1814 57.5621C97.8508 56.6786 97.1897 56.2029 96.6607 56.2029C96.1318 56.2029 95.7351 56.5427 95.7351 57.1544C95.7351 57.766 96.0657 58.1738 96.5285 58.3097C96.793 58.4456 97.0574 58.4456 97.388 58.4456C97.5202 58.4456 97.5864 58.4456 97.6525 58.4456C97.7186 58.6495 97.6525 58.8534 97.6525 59.0573C97.6525 59.9408 97.1236 60.8243 96.1979 60.8243C95.2062 60.8243 94.6773 59.8728 94.6773 58.7175C94.6773 57.9019 94.9417 57.1544 95.3384 56.6786C95.4707 56.4748 95.6029 56.4068 95.6029 56.2029C95.6029 56.135 95.4707 56.135 95.4045 56.135C94.7434 56.135 94.0161 56.4068 93.4872 56.6786C92.826 57.0184 92.0326 57.6301 91.3715 58.2417C91.0409 57.4942 90.7103 56.8825 90.512 56.4068C90.4459 56.2029 90.3798 55.999 90.2475 55.999C90.1153 55.999 90.0492 56.135 89.9831 56.3388C89.6525 57.2903 87.9996 60.0767 87.6029 60.4845C87.5368 60.5524 87.5368 60.6204 87.4707 60.6204C87.4707 60.6204 87.4045 60.6204 87.4045 60.4845V57.3583C87.4045 56.5427 87.074 56.2029 86.6112 56.2029C86.2145 56.2029 85.8839 56.3388 85.5533 56.8825C84.9583 57.766 84.2971 59.0573 83.9665 59.7369C83.9004 59.8728 83.8343 59.8728 83.8343 59.8728C83.8343 59.8728 83.7682 59.8049 83.7682 59.6689V57.3583C83.7682 56.5427 83.4376 56.2029 82.9748 56.2029C82.5781 56.2029 82.2475 56.3388 81.9169 56.8825C81.1897 58.1738 79.9335 60.1447 79.7351 60.4165C79.669 60.4845 79.669 60.4845 79.6029 60.5524C79.6029 60.5524 79.5368 60.4845 79.5368 60.4165V57.4262C79.5368 56.6107 79.2062 56.2709 78.7434 56.2709C78.1484 56.2709 77.7517 56.8825 77.5533 57.2223C77.2227 57.766 76.826 58.4456 76.4955 59.0573C76.2971 59.4651 76.0988 59.8728 76.0327 59.8728C75.9665 59.8728 75.9665 59.7369 75.9665 59.3971V57.0184C77.0905 55.7272 77.7517 54.232 77.7517 52.533C77.7517 51.5816 77.355 51.0379 76.6938 51.0379C75.5037 51.0379 74.5781 53.0087 74.5781 55.2515V57.0864C73.9831 57.4262 73.5203 57.6301 72.8591 57.766C72.5285 56.7466 71.8013 56.2709 71.2723 56.2709C70.7434 56.2709 70.3467 56.6107 70.3467 57.2223C70.3467 58.1738 71.2723 58.5816 72.0657 58.5816H72.2641C72.3302 58.7854 72.3302 58.9893 72.3302 59.1252C72.3302 60.0087 71.8012 60.8922 70.8756 60.8922C69.8839 60.8922 69.355 59.9408 69.355 58.7854C69.355 57.9699 69.6194 57.2223 70.0161 56.7466C70.1483 56.5427 70.2806 56.4068 70.2806 56.2709C70.2806 56.2029 70.1484 56.2029 70.0822 56.2029C69.4211 56.2029 67.9665 57.0864 66.1814 58.9214C66.0492 57.4942 65.8508 56.067 65.8508 54.7078C65.8508 53.2126 66.1153 51.8534 66.2475 51.5136C66.2475 51.3097 66.3136 51.1738 66.3136 51.0379C66.3136 50.9019 66.2475 50.834 66.0492 50.834C64.6608 50.834 61.5533 53.1447 61.5533 56.6107C61.5533 58.0379 61.8178 59.0573 62.3467 59.9408C62.1484 59.8728 62.0161 59.8728 61.8839 59.8728C61.355 59.8728 60.826 60.0087 60.4955 60.0767V59.7369C60.4955 58.9893 60.2971 57.9019 60.0327 57.5621C59.9665 57.4942 59.9665 57.4942 59.9004 57.4942C59.7682 57.4942 59.5698 57.5621 59.3715 57.6981C59.1732 57.834 58.9748 57.9019 58.9748 57.9699C58.9748 58.0379 58.9748 58.0379 59.0409 58.1058C59.1732 58.3097 59.5037 58.6495 59.636 59.465C59.0409 58.8534 58.3798 58.5816 57.4541 58.5816C56.3963 58.5816 56.0657 59.0573 56.0657 59.533C56.0657 60.4845 57.2558 60.9602 58.7765 60.9602C59.0409 60.9602 59.3715 60.8922 59.7021 60.8243C59.7021 61.0961 59.7682 61.368 59.7682 61.5718C59.7682 61.9117 59.8343 62.1155 60.0327 62.1155C60.2971 62.1155 60.4955 61.5039 60.5616 60.6204C61.0905 60.4845 61.6855 60.3485 62.1484 60.3485C62.5451 60.5524 62.8756 60.6204 63.1401 60.6204ZM66.0492 51.6495C66.0492 51.7854 65.7847 52.2612 65.5203 53.1447C65.1897 54.0961 64.8591 55.3874 64.8591 57.0184C64.8591 57.9699 65.1236 59.1932 65.2558 60.4845L64.7269 61.232C63.8674 60.1447 63.2723 58.8534 63.2723 56.6786C63.2723 53.6204 65.0574 51.5136 65.9831 51.5136C66.0492 51.5816 66.0492 51.6495 66.0492 51.6495ZM90.9087 60.2126C91.0409 60.5524 91.0409 60.7563 91.0409 61.0282C91.0409 61.3 90.9087 61.5718 90.7765 61.5718C90.6442 61.5718 90.512 61.4359 90.512 61.1641C90.4459 60.9602 90.7103 60.4845 90.9087 60.2126ZM65.388 61.4359C65.5203 62.3874 65.6525 63.3388 65.6525 64.0864C65.6525 65.7854 65.1236 67.8243 64.1318 67.8243C63.7351 67.8243 63.4707 67.4165 63.4046 66.8049C63.4046 64.5621 64.3963 62.7951 65.388 61.4359ZM76.4294 54.9117C76.4294 52.2612 76.9583 51.8534 77.0905 51.8534C77.355 51.8534 77.4211 52.0573 77.4211 53.0767C77.4211 54.1641 76.9583 55.5233 76.4294 56.2709V54.9117ZM71.6029 57.4942C71.6029 57.3583 71.7351 57.2223 71.8674 57.2223C72.0657 57.2223 72.3963 57.4942 72.5946 57.9699C71.9335 57.9699 71.6029 57.834 71.6029 57.4942ZM96.793 57.4942C96.793 57.3583 96.9252 57.2223 97.0574 57.2223C97.2558 57.2223 97.6525 57.4942 97.8508 57.9699C97.7847 57.9699 97.6525 57.9699 97.5864 57.9699C97.1897 58.0379 96.793 57.834 96.793 57.4942Z" fill="#C8102E"/>
<path d="M0 41.8637V39.8249C1.98347 39.0773 3.43802 37.2424 3.43802 33.0967V14.7472H6.47934V32.8928C6.47934 38.3297 3.30579 41.4559 0 41.8637ZM17.8512 34.2521C12.9587 34.2521 10.7107 32.0773 10.7107 28.5433C10.7107 23.4462 15.3388 21.9511 21.157 21.3394V20.1841C21.157 17.1938 19.438 16.3783 16.9917 16.3783C15.2066 16.3783 13.4876 17.0579 12.4959 17.6016L11.7686 15.7666C12.8264 15.155 14.9422 14.3394 17.5207 14.3394C21.0248 14.3394 24.0661 15.9026 24.0661 20.5919V32.9608C22.6116 33.7084 20.4298 34.2521 17.8512 34.2521ZM21.157 22.9705C16.4628 23.5822 13.6198 24.6016 13.6198 28.4754C13.6198 31.2618 15.2727 32.4171 18.0496 32.4171C19.2397 32.4171 20.3636 32.2132 21.157 31.8055V22.9705ZM39.5372 33.9123V20.0482C39.5372 18.2812 38.8099 16.3103 35.6364 16.3103C33.9174 16.3103 33.0579 16.5822 32.0661 16.9899V33.9123H29.0248V15.6307C30.6777 14.8152 32.8595 14.2715 35.9008 14.2715C41.124 14.2715 42.6446 17.2618 42.6446 19.9802V33.8443H39.5372V33.9123ZM51.1736 34.1841C49.1901 34.1841 47.405 33.6404 46.3471 32.8928L47.2066 30.786C47.8678 31.3297 49.1901 31.9414 50.843 31.9414C52.9587 31.9414 54.3471 30.4462 54.3471 28.6113C54.3471 26.6404 53.2893 25.689 51.2397 24.9414C47.6033 23.5142 46.876 21.5433 46.876 19.5725C46.876 16.7181 49.0579 14.2715 52.4959 14.2715C54.4132 14.2715 55.8678 14.9511 56.8595 15.5627L56.0661 17.4657C55.5372 17.0579 54.4132 16.3783 52.9587 16.3783C50.9091 16.3783 49.8512 17.7375 49.8512 19.4365C49.8512 21.2715 51.1736 22.155 52.9587 22.9025C56.595 24.3297 57.5207 26.3006 57.5207 28.5433C57.4545 31.4657 54.9422 34.1841 51.1736 34.1841ZM64.8595 34.1841C62.876 34.1841 61.0909 33.6404 60.0331 32.8928L60.8926 30.786C61.5537 31.3297 62.876 31.9414 64.5289 31.9414C66.6446 31.9414 68.0331 30.4462 68.0331 28.6113C68.0331 26.6404 66.9752 25.689 64.9256 24.9414C61.2893 23.5142 60.562 21.5433 60.562 19.5725C60.562 16.7181 62.7438 14.2715 66.1818 14.2715C68.0992 14.2715 69.6198 14.9511 70.5455 15.5627L69.7521 17.4657C69.2231 17.0579 68.0992 16.3783 66.6446 16.3783C64.595 16.3783 63.5372 17.7375 63.5372 19.4365C63.5372 21.2715 64.8595 22.155 66.6446 22.9025C70.281 24.3297 71.2066 26.3006 71.2066 28.5433C71.1405 31.4657 68.6942 34.1841 64.8595 34.1841ZM77.3554 25.4851C77.686 29.8346 79.6694 32.0093 83.0413 32.0093C85.157 32.0093 86.6777 31.4657 87.6694 30.922L88.4628 32.9608C87.3389 33.6404 85.3554 34.2521 82.7769 34.2521C77.8843 34.2521 74.4463 31.0579 74.4463 24.1938C74.4463 17.6695 77.5537 14.2715 81.9835 14.2715C86.4793 14.2715 89.1901 17.2618 89.124 23.7181L77.3554 25.4851ZM81.9174 16.3103C79.2066 16.3103 77.157 18.553 77.2893 23.786L86.281 22.3589C86.2149 18.0093 84.6281 16.3103 81.9174 16.3103ZM103.868 33.9123V20.0482C103.868 18.2812 103.141 16.3103 99.9669 16.3103C98.2479 16.3103 97.3884 16.5822 96.3967 16.9899V33.9123H93.3554V15.6307C95.0083 14.8152 97.1901 14.2715 100.231 14.2715C105.455 14.2715 106.975 17.2618 106.975 19.9802V33.8443H103.868V33.9123Z" fill="#003479"/>
<path d="M147.567 14.1359C147.567 14.1359 141.022 15.4272 130.443 13.7961C120.989 12.301 112.195 5.91262 111.336 0C111.336 0 115.171 5.36893 129.914 7.67961C129.914 7.67961 134.807 8.42719 141.683 8.42719C146.113 8.42719 147.567 14.1359 147.567 14.1359ZM160.129 18.7573C153.914 18.6214 131.303 17.8738 131.303 17.8738C133.419 21.2718 135.6 27.1845 135.6 33.7767C135.6 49.8835 128.79 61.7087 119.931 69.7282C134.807 66.534 146.245 49.6116 146.245 31.3981C146.245 29.9029 146.245 28.4078 146.179 27.1165L157.683 23.1068C159.138 22.5631 160.063 21.7476 160.063 20.3204C160.129 19.301 160.129 18.7573 160.129 18.7573Z" fill="url(#paint0_linear)"/>
<defs>
<linearGradient id="paint0_linear" x1="111.358" y1="34.8563" x2="160.149" y2="34.8563" gradientUnits="userSpaceOnUse">
<stop offset="0.2" stop-color="#00A0DF"/>
<stop offset="0.5817" stop-color="#0063A5"/>
<stop offset="0.9" stop-color="#003479"/>
</linearGradient>
</defs>
</svg>
