<svg width="80" height="35" viewBox="0 0 80 35" fill="none" xmlns="http://www.w3.org/2000/svg">
<path d="M8.99089 21.7469V23.6158H8.52809V22.8342H7.86693V23.6158H7.40412V21.7469H7.86693V22.4265H8.52809V21.7469H8.99089ZM10.4124 21.7469L11.0735 23.6158H10.5777L10.4785 23.31H9.81734L9.71817 23.6158H9.2223L9.88346 21.7469H10.4124ZM10.181 22.1886L9.94957 22.9702H10.4124L10.181 22.1886ZM11.3711 21.7469H12.1975C12.3959 21.7469 12.6273 21.7469 12.7925 21.9508C12.8917 22.0527 12.9248 22.1886 12.9248 22.3585C12.9248 22.7323 12.6603 22.8343 12.5611 22.8682L12.9909 23.6158H12.495L12.1314 22.9362H11.8339V23.6158H11.3711V21.7469ZM11.8008 22.1207V22.6304H12.1645C12.2306 22.6304 12.4289 22.6304 12.4289 22.3585C12.4289 22.1207 12.2636 22.1207 12.1645 22.1207H11.8008ZM15.3711 21.7469V23.6158H14.9413L14.9744 22.2906V22.1207V22.1886C14.9413 22.2906 14.9413 22.2906 14.9413 22.3925L14.6107 23.6498H14.214L13.8835 22.4605L13.8173 22.1207C13.8173 22.2566 13.8173 22.2906 13.8173 22.4605L13.8504 23.6158H13.4206V21.7469H14.0818L14.3463 22.8003L14.4124 23.1061C14.4454 22.9702 14.4454 22.9702 14.4454 22.8682L14.743 21.7469H15.3711ZM16.7925 21.7469L17.4537 23.6158H16.9578L16.8587 23.31H16.1975L16.0983 23.6158H15.6025L16.2636 21.7469H16.7925ZM16.5611 22.1886L16.3297 22.9702H16.7925L16.5611 22.1886ZM19.2719 23.208C19.2058 23.31 19.1397 23.4119 19.0074 23.5139C18.9413 23.5818 18.743 23.6838 18.5116 23.6838C18.0487 23.6838 17.6521 23.31 17.6521 22.6983C17.6521 22.1546 18.0157 21.7129 18.5116 21.7129C18.7099 21.7129 18.9082 21.7809 19.0405 21.8828C19.1727 21.9847 19.2388 22.0867 19.2719 22.1886L18.9082 22.3585C18.8752 22.2906 18.8421 22.2226 18.776 22.1546C18.6768 22.0867 18.6107 22.0527 18.5116 22.0527C18.214 22.0527 18.0818 22.3245 18.0818 22.6304C18.0818 23.0381 18.2802 23.242 18.5116 23.242C18.743 23.242 18.8421 23.0721 18.9082 22.9702L19.2719 23.208ZM19.5694 21.7469H20.8917V22.1207H19.9992V22.4605H20.8256V22.8003H19.9992V23.242H20.9578V23.6158H19.5363V21.7469H19.5694ZM22.9413 21.7469V22.7663C22.9413 22.9362 22.9413 23.1401 22.8421 23.276C22.6438 23.5818 22.2471 23.6158 22.181 23.6158C22.0487 23.6158 21.8835 23.5818 21.7512 23.5139C21.3876 23.344 21.3876 23.0042 21.4206 22.7663V21.7469H21.8835V22.9022C21.8835 23.0042 21.8835 23.0721 21.9165 23.1401C21.9826 23.242 22.0818 23.276 22.214 23.276C22.5116 23.276 22.5116 23.0721 22.5116 22.9022V21.7469H22.9413ZM23.2388 21.7469H24.6273V22.1207H24.1644V23.6158H23.7016V22.1207H23.2388V21.7469ZM25.3876 21.7469V23.6158H24.9248V21.7469H25.3876ZM27.4702 23.208C27.4041 23.31 27.338 23.4119 27.2058 23.5139C27.1397 23.5818 26.9413 23.6838 26.7099 23.6838C26.2471 23.6838 25.8504 23.31 25.8504 22.6983C25.8504 22.1546 26.214 21.7129 26.7099 21.7129C26.9083 21.7129 27.1066 21.7809 27.2388 21.8828C27.3711 21.9847 27.4372 22.0867 27.4702 22.1886L27.1066 22.3585C27.0735 22.2906 27.0405 22.2226 26.9744 22.1546C26.8752 22.0867 26.8091 22.0527 26.7099 22.0527C26.4124 22.0527 26.2802 22.3245 26.2802 22.6304C26.2802 23.0381 26.4785 23.242 26.7099 23.242C26.9413 23.242 27.0405 23.0721 27.1066 22.9702L27.4702 23.208ZM28.6273 21.7469L29.2884 23.6158H28.7925L28.6934 23.31H28.0322L27.933 23.6158H27.4372L28.0983 21.7469H28.6273ZM28.3628 22.1886C28.3628 22.1886 28.1975 22.8342 28.1314 22.9702H28.5942L28.3628 22.1886ZM29.5529 21.7469H30.0157V23.208H30.7099V23.6158H29.5529V21.7469ZM33.3545 23.208C33.2884 23.31 33.2223 23.4119 33.0901 23.5139C33.024 23.5818 32.8256 23.6838 32.5942 23.6838C32.1314 23.6838 31.7347 23.31 31.7347 22.6983C31.7347 22.1546 32.0983 21.7129 32.5942 21.7129C32.7925 21.7129 32.9909 21.7809 33.1231 21.8828C33.2554 21.9847 33.3215 22.0867 33.3545 22.1886L32.9909 22.3585C32.9578 22.2906 32.9248 22.2226 32.8587 22.1546C32.7595 22.0867 32.6934 22.0527 32.5942 22.0527C32.2967 22.0527 32.1644 22.3245 32.1644 22.6304C32.1644 23.0381 32.3628 23.242 32.5942 23.242C32.8256 23.242 32.9248 23.0721 32.9909 22.9702L33.3545 23.208ZM34.5116 23.6838C33.9496 23.6838 33.619 23.242 33.619 22.6983C33.619 22.1886 33.9165 21.7129 34.5116 21.7129C34.6107 21.7129 34.743 21.7129 34.8421 21.7809C35.4041 21.9847 35.4372 22.5964 35.4372 22.7323C35.4372 23.0381 35.3049 23.344 35.1066 23.5139C34.9082 23.6158 34.7099 23.6838 34.5116 23.6838ZM34.8421 22.2226C34.776 22.1546 34.6438 22.0867 34.5116 22.0867C34.2471 22.0867 34.0487 22.3245 34.0487 22.6643C34.0487 23.1061 34.2801 23.276 34.5116 23.276C34.743 23.276 34.9413 23.1061 34.9744 22.7323C34.9744 22.5284 34.9413 22.3245 34.8421 22.2226ZM37.8504 21.7469V23.6158H37.4206L37.4537 22.2906V22.1207V22.1886C37.4206 22.2906 37.4206 22.2906 37.4206 22.3925L37.0901 23.6498H36.6934L36.3628 22.4605L36.2967 22.1207C36.2967 22.2566 36.2967 22.2906 36.2967 22.4605L36.3297 23.6158H35.9V21.7469H36.5611L36.8256 22.8003L36.8917 23.1061C36.9248 22.9702 36.9248 22.9702 36.9248 22.8682L37.2223 21.7469H37.8504ZM38.4454 21.7469H39.1727C39.4702 21.7469 39.7347 21.7469 39.9 21.9847C39.9661 22.0867 39.9992 22.2566 39.9992 22.3585C39.9992 22.4605 39.9661 22.5624 39.933 22.6643C39.7678 23.0042 39.4372 23.0042 39.2058 23.0042H38.9082V23.6158H38.4454V21.7469ZM38.9082 22.0867V22.6643H39.1727C39.338 22.6643 39.5364 22.6643 39.5364 22.3585C39.5364 22.0867 39.3049 22.0867 39.1727 22.0867H38.9082ZM41.057 21.7469L41.7182 23.6158H41.2223L41.1231 23.31H40.462L40.3628 23.6158H39.8669L40.5281 21.7469H41.057ZM40.8256 22.1886C40.7925 22.2906 40.7925 22.3925 40.7595 22.4605C40.7264 22.5964 40.6603 22.8342 40.6273 22.9702H41.0901L40.8256 22.1886ZM41.9165 21.7469H42.3463L42.743 22.4265C42.8752 22.6983 42.9413 22.7663 43.0074 22.9362L42.9744 21.7469H43.4041V23.6158H42.9744L42.6438 23.0381C42.4785 22.7663 42.4454 22.6983 42.3132 22.4605V23.6158H41.8835V21.7469H41.9165ZM44.462 21.7469V23.6158H43.9992V21.7469H44.462ZM45.0901 21.7469H46.4124V22.1207H45.5198V22.4605H46.3463V22.8003H45.5198V23.242H46.4785V23.6158H45.057V21.7469H45.0901ZM47.1727 23.0721C47.2058 23.1401 47.2719 23.1741 47.338 23.208C47.4702 23.276 47.5694 23.31 47.7016 23.31C47.8669 23.31 48.0322 23.208 48.0322 23.1061C48.0322 22.9702 47.8669 22.9362 47.7016 22.9022C47.6025 22.9022 47.5033 22.8682 47.4041 22.8682C47.3049 22.8343 46.9082 22.7663 46.9082 22.3585C46.9082 21.8828 47.338 21.7469 47.6355 21.7469C48.0653 21.7469 48.2636 21.9508 48.4289 22.0867L48.0983 22.3245C48.0322 22.2566 47.9992 22.2226 47.933 22.1886C47.8669 22.1546 47.7678 22.1207 47.6355 22.1207C47.4702 22.1207 47.3711 22.2226 47.3711 22.3245C47.3711 22.4605 47.5364 22.4944 47.6025 22.4944C47.8008 22.5284 48.0653 22.5624 48.1644 22.5964C48.3628 22.6643 48.462 22.8343 48.462 23.0381C48.462 23.1741 48.4289 23.31 48.3297 23.4459C48.1644 23.6498 47.9 23.6838 47.6355 23.6838C47.1397 23.6838 46.9083 23.4459 46.8091 23.31L47.1727 23.0721ZM5.58594 21.7469H6.31321C6.61073 21.7469 6.87519 21.7469 7.04048 21.9847C7.1066 22.0867 7.13966 22.2566 7.13966 22.3585C7.13966 22.4605 7.1066 22.5624 7.07354 22.6643C6.90825 23.0042 6.57767 23.0042 6.34627 23.0042H6.04875V23.6158H5.58594V21.7469ZM6.01569 22.0867V22.6643H6.28015C6.44544 22.6643 6.64379 22.6643 6.64379 22.3585C6.64379 22.0867 6.41238 22.0867 6.28015 22.0867H6.01569ZM50.5116 23.6838C49.9496 23.6838 49.619 23.242 49.619 22.6983C49.619 22.1886 49.9165 21.7129 50.5116 21.7129C50.6107 21.7129 50.743 21.7129 50.8421 21.7809C51.4041 21.9847 51.4372 22.5964 51.4372 22.7323C51.4372 23.0381 51.305 23.344 51.1066 23.5139C50.9083 23.6158 50.7099 23.6838 50.5116 23.6838ZM50.8091 22.2226C50.743 22.1546 50.6107 22.0867 50.4785 22.0867C50.214 22.0867 50.0157 22.3245 50.0157 22.6643C50.0157 23.1061 50.2471 23.276 50.4785 23.276C50.7099 23.276 50.9083 23.1061 50.9413 22.7323C50.9744 22.5284 50.9082 22.3245 50.8091 22.2226ZM53.1892 21.7469V22.1207H52.2636V22.4944H53.1231V22.8682H52.2636V23.6158H51.8008V21.7469H53.1892Z" fill="white"/>
<path d="M7.43782 25.8238C7.43782 25.8917 7.30559 26.1296 7.17336 26.5714C7.00807 27.0471 6.84278 27.6927 6.84278 28.5082C6.84278 28.984 6.94195 29.5956 7.04113 30.2413L6.77667 30.615C6.34691 30.0714 6.04939 29.4257 6.04939 28.3383C6.04939 26.8092 6.94196 25.7558 7.40477 25.7558C7.40477 25.7898 7.43782 25.8238 7.43782 25.8238ZM19.8676 30.1053C19.9337 30.2752 19.9337 30.3772 19.9337 30.5131C19.9337 30.649 19.8676 30.7849 19.7684 30.7849C19.7023 30.7849 19.6362 30.717 19.6362 30.5811C19.6362 30.4791 19.7684 30.2413 19.8676 30.1053ZM7.10724 30.717C7.17336 31.1927 7.23948 31.6684 7.23948 32.0422C7.23948 32.8917 6.97501 33.9112 6.47914 33.9112C6.2808 33.9112 6.14857 33.7073 6.11551 33.4015C6.11551 32.2801 6.61138 31.3966 7.10724 30.717ZM21.4874 28.7801C21.3221 28.984 21.2229 29.2898 21.2229 29.6976C21.2229 30.4451 21.6527 31.1587 22.4461 31.1587C23.2395 31.1587 23.7684 30.5131 23.7684 29.6296C23.7684 29.3578 23.7684 29.3238 23.7353 29.2218C23.9006 29.1539 24.0659 29.018 24.1982 28.916C24.2973 28.8481 24.3965 28.7801 24.4296 28.7801C24.4957 28.7801 24.5287 28.8481 24.5287 28.95V30.717C24.5287 30.9888 24.6279 31.1248 24.8263 31.1248C25.0246 31.1248 25.1568 30.9888 25.256 30.8189C25.5535 30.2073 25.9502 29.3917 26.1486 29.0519C26.1816 28.984 26.2147 28.916 26.2477 28.916C26.2808 28.916 26.3139 28.95 26.3139 29.0519V30.4451C26.3139 30.8529 26.4791 31.0908 26.8758 31.0908C27.2725 31.0908 27.4709 30.683 27.8345 30.0714C27.8676 30.0374 27.8676 30.0034 27.8676 29.9694C27.8676 29.9015 27.8015 29.8335 27.7353 29.8335C27.6692 29.8335 27.6031 29.9014 27.3386 30.2073C27.2725 30.2752 27.2395 30.3432 27.1403 30.3432C27.1072 30.3432 27.0742 30.3092 27.0742 30.2413V28.6782C27.0742 28.2704 26.8758 28.1005 26.6444 28.1005C26.4461 28.1005 26.2808 28.1684 26.1155 28.4403C25.818 28.882 25.5205 29.5277 25.3552 29.8335C25.3221 29.8675 25.3221 29.9354 25.2891 29.9354C25.256 29.9354 25.256 29.9015 25.256 29.8335V28.6782C25.256 28.3383 25.1568 28.1005 24.8263 28.1005C24.4626 28.1005 24.2973 28.3383 24.0329 28.5422C23.8676 28.6782 23.7023 28.7461 23.6031 28.8141C23.4378 28.3723 23.1072 28.1345 22.8428 28.1345C22.5783 28.1345 22.38 28.3044 22.38 28.6102C22.38 28.916 22.5453 29.1199 22.7767 29.1879C22.9089 29.2558 23.0411 29.2558 23.2064 29.2558C23.2725 29.2558 23.3056 29.2558 23.3386 29.2558C23.3717 29.3578 23.3386 29.4597 23.3386 29.5616C23.3386 30.0034 23.0742 30.4451 22.6114 30.4451C22.1155 30.4451 21.851 29.9694 21.851 29.3917C21.851 28.984 21.9833 28.6102 22.1816 28.3723C22.2477 28.2704 22.3139 28.2364 22.3139 28.1345C22.3139 28.1005 22.2477 28.1005 22.2147 28.1005C21.8841 28.1005 21.5205 28.2364 21.256 28.3723C20.9254 28.5422 20.5287 28.8481 20.1982 29.1539C20.0329 28.7801 19.8345 28.4743 19.7684 28.2364C19.7353 28.1345 19.7023 28.0325 19.6362 28.0325C19.5701 28.0325 19.537 28.1005 19.5039 28.2024C19.3386 28.6782 18.5122 30.0714 18.3139 30.2752C18.3139 30.3092 18.2808 30.3432 18.2477 30.3432C18.2147 30.3432 18.2147 30.3432 18.2147 30.2752V28.7121C18.2147 28.3044 18.0494 28.1345 17.818 28.1345C17.6196 28.1345 17.4544 28.2024 17.2891 28.4743C16.9915 28.916 16.661 29.5616 16.4957 29.9015C16.4626 29.9694 16.4296 29.9694 16.4296 29.9694C16.4296 29.9694 16.4296 29.9354 16.4296 29.8675V28.7121C16.4296 28.3044 16.2643 28.1345 16.0329 28.1345C15.8345 28.1345 15.6692 28.2024 15.5039 28.4743C15.1403 29.1199 14.5122 30.1053 14.413 30.2413C14.38 30.2752 14.38 30.2752 14.3469 30.3092C14.3139 30.3092 14.3139 30.2752 14.3139 30.2413V28.7461C14.3139 28.3383 14.1486 28.1684 13.9172 28.1684C13.5866 28.1684 13.4213 28.4743 13.3221 28.6442C13.1568 28.916 12.9585 29.2558 12.7932 29.5616C12.694 29.7655 12.5948 29.9694 12.5618 29.9694C12.5287 29.9694 12.5287 29.9015 12.5287 29.7315V28.5422C13.0907 27.8966 13.4213 27.149 13.4213 26.2995C13.4213 25.8238 13.2229 25.5519 12.8924 25.5519C12.2973 25.5519 11.8345 26.5374 11.8345 27.6587V28.5762C11.5701 28.7461 11.3056 28.8481 10.975 28.916C10.8097 28.4063 10.4461 28.1684 10.1816 28.1684C9.91716 28.1684 9.71881 28.3383 9.71881 28.6442C9.71881 29.1199 10.1816 29.3238 10.5783 29.3238H10.6775C10.7106 29.4257 10.7105 29.5277 10.7105 29.5956C10.7105 30.0374 10.4461 30.4791 9.98328 30.4791C9.48741 30.4791 9.18989 30.0034 9.18989 29.4257C9.18989 29.018 9.32212 28.6442 9.52047 28.4063C9.58658 28.3044 9.6527 28.2364 9.6527 28.1684C9.6527 28.1345 9.58658 28.1345 9.55353 28.1345C9.22295 28.1345 8.49567 28.5762 7.60311 29.4937C7.537 28.7801 7.43782 28.0665 7.43782 27.3869C7.43782 26.6393 7.57005 25.9597 7.63617 25.7898C7.66923 25.6879 7.66923 25.6199 7.66923 25.5519C7.66923 25.484 7.63617 25.45 7.537 25.45C6.84278 25.45 5.28906 26.6053 5.28906 28.3383C5.28906 29.5616 5.71881 30.1733 6.47914 30.9209C6.01633 31.6684 5.6527 32.5859 5.6527 33.4015C5.6527 33.9791 5.78493 34.4209 6.21468 34.4209C7.07419 34.4209 7.73534 32.5519 7.73534 31.1587C7.73534 30.751 7.73534 30.3432 7.66923 29.9354C7.99981 29.5956 8.49567 29.1199 8.59485 29.0519C8.52873 29.2558 8.49567 29.4257 8.49567 29.6296C8.49567 30.3772 8.92543 31.0908 9.71881 31.0908C10.4791 31.0908 11.0411 30.4451 11.0411 29.5616C11.0411 29.4597 11.0411 29.3578 11.0411 29.2558C11.3056 29.1879 11.5701 29.1199 11.8345 28.984V30.7849C11.8345 31.0228 11.9998 31.1248 12.132 31.1248C12.3304 31.1248 12.4296 30.9888 12.5948 30.649C12.7271 30.3772 13.0577 29.7655 13.256 29.3917C13.4213 29.1199 13.4874 28.916 13.5866 28.916C13.6196 28.916 13.6196 28.95 13.6196 29.0519V30.5811C13.6196 30.9888 13.818 31.0908 14.0163 31.0908C14.1816 31.0908 14.3139 30.9888 14.413 30.8189C14.8758 30.1393 15.3386 29.3578 15.537 29.018C15.5701 28.95 15.6031 28.916 15.6362 28.916C15.6692 28.916 15.7023 28.95 15.7023 29.0519V30.649C15.7023 30.9209 15.8015 31.0568 15.9998 31.0568C16.1982 31.0568 16.3304 30.9209 16.3965 30.751C16.694 30.1393 17.1238 29.3238 17.2891 28.984C17.3221 28.916 17.3882 28.8481 17.3882 28.8481C17.4213 28.8481 17.4213 28.882 17.4213 29.018V30.5471C17.4213 30.9548 17.6196 31.0568 17.818 31.0568C18.0494 31.0568 18.2147 30.8869 18.38 30.683C18.6775 30.3092 19.0742 29.5956 19.3386 29.1539C19.4378 29.2898 19.537 29.4597 19.6031 29.6636C19.4048 29.9354 19.1734 30.2073 19.1734 30.5471C19.1734 30.8869 19.4048 31.0908 19.6362 31.0908C20.0329 31.0908 20.3965 30.683 20.3965 30.1393C20.3965 29.9354 20.3304 29.6976 20.2643 29.4937C20.7601 29.1879 21.1568 28.8481 21.4874 28.7801ZM12.6279 27.4549C12.6279 26.1296 12.8924 25.9257 12.9585 25.9257C13.0907 25.9257 13.1238 26.0277 13.1238 26.5374C13.1238 27.0811 12.8924 27.7607 12.6279 28.1345V27.4549ZM10.1816 28.7461C10.1816 28.6781 10.2477 28.6102 10.3139 28.6102C10.413 28.6102 10.5783 28.7461 10.6775 28.984C10.38 28.984 10.1816 28.916 10.1816 28.7461ZM22.8097 28.7461C22.8097 28.6781 22.8758 28.6102 22.942 28.6102C23.0411 28.6102 23.2395 28.7461 23.3386 28.984C23.3056 28.984 23.2395 28.984 23.2064 28.984C22.975 29.018 22.8097 28.916 22.8097 28.7461ZM29.851 30.2413C29.7188 30.2752 29.6196 30.2752 29.4544 30.2752C29.1238 30.2752 28.8593 30.1393 28.8593 29.9354C28.8593 29.7995 28.9254 29.7315 29.0907 29.7315C29.3882 29.7315 29.5866 29.9354 29.851 30.2413ZM31.5701 30.3092C31.7353 30.5131 31.9337 30.717 32.132 30.9549C31.6692 31.7024 31.3056 32.6199 31.3056 33.4354C31.3056 34.0131 31.4378 34.4548 31.8676 34.4548C32.7271 34.4548 33.3882 32.5859 33.3882 31.1927C33.3882 30.7849 33.3552 30.3772 33.3221 29.9694C33.6527 29.6296 34.1486 29.1539 34.2477 29.0859C34.1816 29.2898 34.1486 29.4597 34.1486 29.6636C34.1486 30.4112 34.5783 31.1248 35.3717 31.1248C36.132 31.1248 36.694 30.4791 36.694 29.5956C36.694 29.4937 36.694 29.3917 36.661 29.2898C36.9254 29.2218 37.1899 29.1539 37.4543 29.018V30.8189C37.4543 31.0568 37.6196 31.1587 37.7519 31.1587C37.9502 31.1587 38.0494 31.0228 38.2147 30.683C38.3469 30.4112 38.6775 29.7995 38.8758 29.4257C39.0411 29.1539 39.1072 28.95 39.1734 28.95C39.2064 28.95 39.2064 28.984 39.2064 29.0859V30.615C39.2064 31.0228 39.4048 31.1248 39.6031 31.1248C39.7684 31.1248 39.9006 31.0228 39.9998 30.8529C40.4626 30.1733 40.9254 29.3917 41.1238 29.0519C41.1568 28.984 41.1899 28.95 41.2229 28.95C41.256 28.95 41.2891 28.984 41.2891 29.0859V30.683C41.2891 30.9549 41.3882 31.0908 41.5866 31.0908C41.7849 31.0908 41.9172 30.9549 41.9833 30.7849C42.2808 30.1733 42.7105 29.3578 42.8758 29.018C42.9089 28.95 42.975 28.882 43.0081 28.882C43.0411 28.882 43.0411 28.916 43.0411 29.0519V30.5811C43.0411 30.9888 43.2395 31.0908 43.4378 31.0908C43.6692 31.0908 43.8345 30.9209 43.9998 30.717C44.2973 30.3432 44.694 29.6296 44.9585 29.1879C45.0577 29.3238 45.1568 29.4937 45.2229 29.6976C45.0246 29.9694 44.7932 30.2413 44.7932 30.5811C44.7932 30.9209 45.0246 31.1248 45.256 31.1248C45.6527 31.1248 46.0163 30.717 46.0163 30.1733C46.0163 29.9694 45.9502 29.7315 45.8841 29.5277C46.2477 29.1539 46.6775 28.8141 46.975 28.7461C46.8097 28.95 46.7105 29.2558 46.7105 29.6636C46.7105 30.4112 47.1403 31.1248 47.9337 31.1248C48.7271 31.1248 49.256 30.4791 49.256 29.5956C49.256 29.3238 49.256 29.2898 49.2229 29.1879C49.4213 29.1199 49.5535 28.984 49.6858 28.882C49.7849 28.8141 49.8841 28.7461 49.9172 28.7461C49.9833 28.7461 50.0163 28.8141 50.0163 28.916V30.683C50.0163 30.9549 50.1155 31.0908 50.3139 31.0908C50.5122 31.0908 50.6444 30.9549 50.7436 30.7849C51.0411 30.1733 51.4378 29.3578 51.6362 29.018C51.6692 28.95 51.7023 28.882 51.7353 28.882C51.7684 28.882 51.8015 28.916 51.8015 29.018V30.4112C51.8015 30.8189 51.9667 31.0568 52.3634 31.0568C52.7601 31.0568 52.9585 30.649 53.3221 30.0374C53.3552 30.0034 53.3552 29.9694 53.3552 29.9354C53.3552 29.8675 53.2891 29.7995 53.2229 29.7995C53.1568 29.7995 53.0907 29.8675 52.8262 30.1733C52.7601 30.2413 52.7271 30.3092 52.6279 30.3092C52.5948 30.3092 52.5618 30.2752 52.5618 30.2073V28.6442C52.5618 28.2364 52.3634 28.0665 52.132 28.0665C51.9337 28.0665 51.7684 28.1345 51.6031 28.4063C51.3056 28.8481 51.0081 29.4937 50.8428 29.7995C50.8097 29.8335 50.8097 29.9015 50.7767 29.9015C50.7436 29.9015 50.7436 29.8675 50.7436 29.7995V28.6442C50.7436 28.3044 50.6444 28.0665 50.3139 28.0665C49.9502 28.0665 49.7849 28.3044 49.5205 28.5082C49.3552 28.6442 49.1899 28.7121 49.0907 28.7801C48.9254 28.3383 48.5948 28.1005 48.3304 28.1005C48.0659 28.1005 47.8676 28.2704 47.8676 28.5762C47.8676 28.882 48.0329 29.0859 48.2643 29.1539C48.3965 29.2218 48.5287 29.2218 48.694 29.2218C48.7601 29.2218 48.7932 29.2218 48.8262 29.2218C48.8593 29.3238 48.8262 29.4257 48.8262 29.5277C48.8262 29.9694 48.5618 30.4112 48.099 30.4112C47.6031 30.4112 47.3386 29.9354 47.3386 29.3578C47.3386 28.95 47.4709 28.5762 47.6692 28.3383C47.7353 28.2364 47.8015 28.2024 47.8015 28.1005C47.8015 28.0665 47.7353 28.0665 47.7023 28.0665C47.3717 28.0665 47.0081 28.2024 46.7436 28.3383C46.413 28.5082 46.0163 28.8141 45.6858 29.1199C45.5205 28.7461 45.3552 28.4403 45.256 28.2024C45.2229 28.1005 45.1899 27.9985 45.1238 27.9985C45.0577 27.9985 45.0246 28.0665 44.9915 28.1684C44.8263 28.6442 43.9998 30.0374 43.8015 30.2413C43.7684 30.2752 43.7684 30.3092 43.7353 30.3092C43.7353 30.3092 43.7023 30.3092 43.7023 30.2413V28.6782C43.7023 28.2704 43.537 28.1005 43.3056 28.1005C43.1072 28.1005 42.9419 28.1684 42.7767 28.4403C42.4791 28.882 42.1486 29.5277 41.9833 29.8675C41.9502 29.9354 41.9172 29.9354 41.9172 29.9354C41.9172 29.9354 41.8841 29.9015 41.8841 29.8335V28.6782C41.8841 28.2704 41.7188 28.1005 41.4874 28.1005C41.2891 28.1005 41.1238 28.1684 40.9585 28.4403C40.5948 29.0859 39.9667 30.0714 39.8676 30.2073C39.8345 30.2413 39.8345 30.2413 39.8015 30.2752C39.8015 30.2752 39.7684 30.2413 39.7684 30.2073V28.7121C39.7684 28.3044 39.6031 28.1345 39.3717 28.1345C39.0742 28.1345 38.8758 28.4403 38.7767 28.6102C38.6114 28.882 38.413 29.2218 38.2477 29.5277C38.1486 29.7315 38.0494 29.9354 38.0163 29.9354C37.9833 29.9354 37.9833 29.8675 37.9833 29.6976V28.5082C38.5453 27.8626 38.8758 27.115 38.8758 26.2655C38.8758 25.7898 38.6775 25.518 38.3469 25.518C37.7519 25.518 37.2891 26.5034 37.2891 27.6248V28.5422C36.9915 28.7121 36.7601 28.8141 36.4296 28.882C36.2643 28.3723 35.9006 28.1345 35.6362 28.1345C35.3717 28.1345 35.1734 28.3044 35.1734 28.6102C35.1734 29.0859 35.6362 29.2898 36.0329 29.2898H36.132C36.1651 29.3917 36.1651 29.4937 36.1651 29.5616C36.1651 30.0034 35.9006 30.4451 35.4378 30.4451C34.942 30.4451 34.6775 29.9694 34.6775 29.3917C34.6775 28.984 34.8097 28.6102 35.0081 28.3723C35.0742 28.2704 35.1403 28.2024 35.1403 28.1345C35.1403 28.1005 35.0742 28.1005 35.0411 28.1005C34.7105 28.1005 33.9833 28.5422 33.0907 29.4597C33.0246 28.7461 32.9254 28.0325 32.9254 27.3529C32.9254 26.6053 33.0577 25.9257 33.1238 25.7558C33.1238 25.6539 33.1568 25.5859 33.1568 25.518C33.1568 25.45 33.1238 25.416 33.0246 25.416C32.3304 25.416 30.7767 26.5714 30.7767 28.3044C30.7767 29.018 30.9089 29.5277 31.1734 29.9694C31.0742 29.9354 31.0081 29.9354 30.942 29.9354C30.6775 29.9354 30.413 30.0034 30.2477 30.0374V29.8675C30.2477 29.4937 30.1486 28.95 30.0163 28.7801C29.9833 28.7461 29.9833 28.7461 29.9502 28.7461C29.8841 28.7461 29.7849 28.7801 29.6858 28.8481C29.5866 28.916 29.4874 28.95 29.4874 28.984C29.4874 29.018 29.4874 29.018 29.5205 29.0519C29.5866 29.1539 29.7519 29.3238 29.818 29.7315C29.5205 29.4257 29.1899 29.2898 28.7271 29.2898C28.1982 29.2898 28.0329 29.5277 28.0329 29.7655C28.0329 30.2413 28.6279 30.4791 29.3882 30.4791C29.5205 30.4791 29.6858 30.4451 29.851 30.4112C29.851 30.5471 29.8841 30.683 29.8841 30.7849C29.8841 30.9549 29.9172 31.0568 30.0163 31.0568C30.1486 31.0568 30.2477 30.751 30.2808 30.3092C30.5453 30.2413 30.8428 30.1733 31.0742 30.1733C31.2725 30.2752 31.4378 30.3092 31.5701 30.3092ZM33.0246 25.8238C33.0246 25.8917 32.8924 26.1296 32.7601 26.5714C32.5948 27.0471 32.4296 27.6927 32.4296 28.5082C32.4296 28.984 32.5618 29.5956 32.6279 30.2413L32.3634 30.615C31.9337 30.0714 31.6362 29.4257 31.6362 28.3383C31.6362 26.8092 32.5287 25.7558 32.9915 25.7558C33.0246 25.7898 33.0246 25.8238 33.0246 25.8238ZM45.4543 30.1053C45.5205 30.2752 45.5205 30.3772 45.5205 30.5131C45.5205 30.649 45.4543 30.7849 45.3882 30.7849C45.3221 30.7849 45.256 30.717 45.256 30.5811C45.2229 30.4791 45.3552 30.2413 45.4543 30.1053ZM32.694 30.717C32.7601 31.1927 32.8263 31.6684 32.8263 32.0422C32.8263 32.8917 32.5618 33.9112 32.0659 33.9112C31.8676 33.9112 31.7353 33.7073 31.7023 33.4015C31.7023 32.2801 32.1981 31.3966 32.694 30.717ZM38.2147 27.4549C38.2147 26.1296 38.4791 25.9257 38.5453 25.9257C38.6775 25.9257 38.7105 26.0277 38.7105 26.5374C38.7105 27.0811 38.4791 27.7607 38.2147 28.1345V27.4549ZM35.8015 28.7461C35.8015 28.6781 35.8676 28.6102 35.9337 28.6102C36.0329 28.6102 36.1982 28.7461 36.2973 28.984C35.9667 28.984 35.8015 28.916 35.8015 28.7461ZM48.3965 28.7461C48.3965 28.6781 48.4626 28.6102 48.5287 28.6102C48.6279 28.6102 48.8262 28.7461 48.9254 28.984C48.8924 28.984 48.8262 28.984 48.7932 28.984C48.5948 29.018 48.3965 28.916 48.3965 28.7461Z" fill="white"/>
<path d="M0 20.9309V19.9115C0.991736 19.5377 1.71901 18.6202 1.71901 16.5474V7.37263H3.23967V16.4454C3.23967 19.1639 1.65289 20.727 0 20.9309ZM8.92562 17.1251C6.47934 17.1251 5.35537 16.0377 5.35537 14.2707C5.35537 11.7221 7.66942 10.9746 10.5785 10.6687V10.0911C10.5785 8.59593 9.71901 8.18816 8.49587 8.18816C7.60331 8.18816 6.7438 8.52797 6.24793 8.79981L5.8843 7.88234C6.41322 7.57651 7.47108 7.16875 8.76033 7.16875C10.5124 7.16875 12.0331 7.9503 12.0331 10.295V16.4794C11.3058 16.8532 10.2149 17.1251 8.92562 17.1251ZM10.5785 11.4843C8.23141 11.7901 6.80992 12.2998 6.80992 14.2367C6.80992 15.6299 7.63637 16.2076 9.02479 16.2076C9.61984 16.2076 10.1818 16.1056 10.5785 15.9018V11.4843ZM19.7686 16.9552V10.0231C19.7686 9.13962 19.405 8.15418 17.8182 8.15418C16.9587 8.15418 16.5289 8.29011 16.0331 8.49399V16.9552H14.5124V7.81438C15.3388 7.40661 16.4298 7.13477 17.9504 7.13477C20.562 7.13477 21.3223 8.62991 21.3223 9.98913V16.9212H19.7686V16.9552ZM25.5868 17.0911C24.595 17.0911 23.7025 16.8192 23.1736 16.4454L23.6033 15.392C23.9339 15.6639 24.595 15.9697 25.4215 15.9697C26.4793 15.9697 27.1736 15.2221 27.1736 14.3047C27.1736 13.3192 26.6446 12.8435 25.6198 12.4697C23.8017 11.7561 23.438 10.7707 23.438 9.78525C23.438 8.35807 24.5289 7.13477 26.2479 7.13477C27.2066 7.13477 27.9339 7.47457 28.4298 7.7804L28.0331 8.73185C27.7686 8.52797 27.2066 8.18816 26.4793 8.18816C25.4545 8.18816 24.9256 8.86777 24.9256 9.71729C24.9256 10.6348 25.5868 11.0765 26.4793 11.4503C28.2975 12.1639 28.7603 13.1493 28.7603 14.2707C28.7273 15.7319 27.4711 17.0911 25.5868 17.0911ZM32.4298 17.0911C31.438 17.0911 30.5455 16.8192 30.0165 16.4454L30.4463 15.392C30.7769 15.6639 31.438 15.9697 32.2645 15.9697C33.3223 15.9697 34.0165 15.2221 34.0165 14.3047C34.0165 13.3192 33.4876 12.8435 32.4628 12.4697C30.6446 11.7561 30.281 10.7707 30.281 9.78525C30.281 8.35807 31.3719 7.13477 33.0909 7.13477C34.0496 7.13477 34.8099 7.47457 35.2727 7.7804L34.876 8.73185C34.6116 8.52797 34.0496 8.18816 33.3223 8.18816C32.2975 8.18816 31.7686 8.86777 31.7686 9.71729C31.7686 10.6348 32.4298 11.0765 33.3223 11.4503C35.1405 12.1639 35.6033 13.1493 35.6033 14.2707C35.5702 15.7319 34.3471 17.0911 32.4298 17.0911ZM38.6777 12.7416C38.843 14.9163 39.8347 16.0037 41.5207 16.0037C42.5785 16.0037 43.3388 15.7319 43.8347 15.46L44.2314 16.4794C43.6694 16.8192 42.6777 17.1251 41.3884 17.1251C38.9422 17.1251 37.2231 15.528 37.2231 12.0959C37.2231 8.83379 38.7769 7.13477 40.9917 7.13477C43.2397 7.13477 44.595 8.62991 44.562 11.8581L38.6777 12.7416ZM40.9587 8.15418C39.6033 8.15418 38.5785 9.27554 38.6446 11.892L43.1405 11.1785C43.1074 9.0037 42.314 8.15418 40.9587 8.15418ZM51.9339 16.9552V10.0231C51.9339 9.13962 51.5703 8.15418 49.9835 8.15418C49.124 8.15418 48.6942 8.29011 48.1984 8.49399V16.9552H46.6777V7.81438C47.5041 7.40661 48.595 7.13477 50.1157 7.13477C52.7273 7.13477 53.4876 8.62991 53.4876 9.98913V16.9212H51.9339V16.9552Z" fill="white"/>
<path d="M73.7837 7.06796C73.7837 7.06796 70.5109 7.71359 65.2217 6.89806C60.4944 6.15049 56.0977 2.95631 55.668 0C55.668 0 57.5853 2.68447 64.9572 3.83981C64.9572 3.83981 67.4035 4.21359 70.8415 4.21359C73.0564 4.21359 73.7837 7.06796 73.7837 7.06796ZM80.0647 9.37864C76.9572 9.31068 65.6514 8.93689 65.6514 8.93689C66.7093 10.6359 67.8002 13.5922 67.8002 16.8883C67.8002 24.9417 64.3952 30.8544 59.9655 34.8641C67.4035 33.267 73.1225 24.8058 73.1225 15.699C73.1225 14.9515 73.1225 14.2039 73.0895 13.5583L78.8415 11.5534C79.5688 11.2816 80.0316 10.8738 80.0316 10.1602C80.0647 9.65049 80.0647 9.37864 80.0647 9.37864Z" fill="white"/>
</svg>
