<svg width="108" height="41" viewBox="0 0 108 41" fill="none" xmlns="http://www.w3.org/2000/svg">
<path d="M38.3894 9.35378C35.1565 10.1958 31.915 11.1389 28.6949 12.722C25.2749 14.3487 22.1039 16.4392 19.2745 18.9322C17.2277 20.7679 15.4207 22.793 14.3245 25.2476C12.5089 29.3232 13.9605 32.6535 17.7501 33.0956C19.1711 33.2827 20.6171 33.0922 21.9379 32.544C23.1197 32.0039 24.2135 31.2945 25.1837 30.4389C29.6926 26.5949 32.0349 22.0857 32.3346 17.1218C32.416 15.7913 32.1591 14.5535 32.0477 13.1936C32.3814 13.0331 32.7246 12.8925 33.0754 12.7725C35.3064 12.1578 37.533 11.5684 39.7596 10.9621C40.1536 10.8526 40.2692 11.0042 40.3206 11.341C41.2626 17.5975 39.2758 23.9087 34.2187 30.1568C29.6156 35.8365 24.156 39.4489 17.9043 40.5351C13.0313 41.3772 9.02338 40.4762 6.20153 37.4785C4.33458 35.4996 3.55097 32.8472 4.54439 29.3737C5.28946 26.7507 6.90378 24.4477 8.9934 22.3509C11.8966 19.45 15.2023 17.4038 18.5594 15.5008C22.1639 13.4919 25.9953 11.9051 29.9752 10.7727C30.1551 10.7179 30.3392 10.6548 30.6561 10.5495L29.804 9.41272C30.8873 9.08853 31.8807 8.73487 32.8656 8.50752C34.754 8.08649 36.6338 7.71598 38.5221 7.3118C38.8861 7.23601 39.1045 7.3118 39.1559 7.64862C39.3229 8.6633 61.8505 4.44038 62.9381 4.13303C63.1974 4.08028 63.4613 4.05209 63.726 4.04883" fill="url(#paint0_linear_1211_18631)" fill-opacity="0.5"/>
<path d="M62.8048 0.685433C58.6384 1.41802 32.8308 6.79877 28.7243 8.285C24.1166 9.90323 19.7015 12.0095 15.5571 14.5667C13.5917 15.7961 11.6605 17.1434 9.74217 18.5076C9.01039 19.0807 8.32069 19.704 7.67823 20.3727C6.99739 21.0253 6.31656 21.6905 5.67854 22.3895C4.20542 23.9494 3.01105 25.743 2.14589 27.6944C1.35314 29.4927 1.09051 31.4739 1.38797 33.412C1.13889 33.0324 0.926706 32.6307 0.754233 32.212C0.274648 30.7006 -0.157837 29.1554 0.0562631 27.3155C0.200012 25.7873 0.60992 24.2947 1.26807 22.9031C2.23893 20.9166 3.55795 19.1138 5.1647 17.5771C6.07455 16.7316 7.04789 15.9547 8.07647 15.253C8.80013 14.7394 9.45956 14.0741 10.1918 13.5942C11.9205 12.4409 13.7421 11.4285 15.6385 10.567C19.0393 9.03703 22.5866 7.84384 26.2279 7.00507C26.2536 7.00507 26.2879 6.95455 26.4035 6.84929C22.9779 5.38411 19.2054 5.39674 14.8121 7.49768C10.5301 9.54809 7.02309 12.7226 4.08135 16.7603C4.52197 15.4127 5.12579 14.1221 5.8798 12.9163C8.43592 8.49893 12.2289 4.8966 16.8075 2.53796C21.4535 0.159151 25.8425 -0.51029 29.9104 0.37387C32.9413 0.986814 35.6536 2.63496 37.5667 5.02624C37.6468 5.08833 37.7392 5.13348 37.8379 5.15883C37.9367 5.18419 38.0396 5.18922 38.1405 5.1736C39.3523 5.11465 62.4194 0.567549 63.6313 0.491763" fill="#4E84FF"/>
<path d="M20.742 19.4492V33.1856H19.3535V19.4492H20.742ZM27.0379 19.4492H28.6897L23.3473 26.0033L28.9331 33.1856H27.2095L21.6876 26.1495L27.0379 19.4492Z" fill="white"/>
<path d="M40.7226 28.1174C40.7195 29.1668 40.4023 30.1918 39.8112 31.0629C39.2201 31.934 38.3815 32.6121 37.4014 33.0116C36.4213 33.411 35.3436 33.5139 34.3045 33.3073C33.2653 33.1006 32.3113 32.5937 31.563 31.8505C30.8147 31.1073 30.3055 30.1612 30.0999 29.1316C29.8943 28.1021 30.0014 27.0353 30.4078 26.066C30.8141 25.0967 31.5014 24.2684 32.3829 23.6857C33.2643 23.1029 34.3005 22.7919 35.3603 22.7919C36.0695 22.779 36.7739 22.908 37.4315 23.1713C38.089 23.4345 38.6861 23.8266 39.1868 24.3239C39.6876 24.8212 40.0818 25.4136 40.3457 26.0654C40.6096 26.7173 40.7378 27.4152 40.7226 28.1174ZM31.3865 28.1174C31.3865 30.4206 33.0542 32.1826 35.3763 32.1826C37.6984 32.1826 39.3661 30.4206 39.3661 28.1174C39.3661 25.8141 37.6984 24.0364 35.3763 24.0364C33.0542 24.0364 31.3865 25.8181 31.3865 28.1174Z" fill="white"/>
<path d="M44.0584 23.0332V27.3591H49.7957V23.0332H51.1802V33.1863H49.7957V28.5996H44.0584V33.1863H42.6699V23.0332H44.0584Z" fill="white"/>
<path d="M58.8834 23.0332V24.2816H54.9295V33.1903H53.541V23.0372L58.8834 23.0332Z" fill="white"/>
<path d="M60.2874 23.0334H61.5841V24.7795H61.624C62.0791 24.1516 62.6824 23.6433 63.3813 23.299C64.0802 22.9547 64.8534 22.7849 65.6338 22.8042C69.2246 22.8042 71.0879 25.5697 71.0879 28.1692C71.0879 31.1914 68.7458 33.4393 65.5979 33.4393C64.8129 33.4725 64.0339 33.291 63.3463 32.9147C62.6587 32.5384 62.089 31.9818 61.6998 31.306H61.6599V36.7618H60.2715L60.2874 23.0334ZM61.6001 28.1692C61.5837 28.6973 61.6761 29.2233 61.8715 29.7149C62.0669 30.2066 62.3613 30.6538 62.7368 31.0293C63.1122 31.4048 63.5609 31.7007 64.0555 31.899C64.5501 32.0974 65.0803 32.194 65.6138 32.183C66.7048 32.1877 67.753 31.7631 68.5278 31.0026C69.3026 30.2421 69.7405 29.208 69.7453 28.1277C69.75 27.0474 69.3212 26.0096 68.5532 25.2424C67.7851 24.4752 66.7407 24.0415 65.6498 24.0368C63.2718 24.0368 61.5841 25.8936 61.5841 28.1731L61.6001 28.1692Z" fill="white"/>
<path d="M74.1245 28.5985C74.1908 29.4583 74.5449 30.2716 75.1306 30.9097C75.7163 31.5478 76.5003 31.9743 77.3583 32.1217C78.2164 32.269 79.0995 32.1288 79.868 31.7232C80.6366 31.3177 81.2465 30.6699 81.6014 29.8824H83.0457C82.6356 31.0695 81.8118 32.0732 80.722 32.7133C79.6323 33.3535 78.3479 33.5883 77.0991 33.3758C75.8503 33.1632 74.7189 32.5171 73.9076 31.5533C73.0964 30.5895 72.6584 29.3711 72.6722 28.1165C72.6722 25.6118 74.5275 22.791 78.0146 22.791C81.8927 22.791 83.3011 25.9831 83.2811 28.5985H74.1245ZM81.7889 27.358C81.39 25.2957 79.794 24.0355 78.0225 24.0355C77.0789 24.0363 76.1669 24.3719 75.4517 24.9814C74.7366 25.591 74.2657 26.4341 74.1245 27.358H81.7889Z" fill="white"/>
<path d="M95.3226 30.2063C94.8172 31.3336 93.938 32.2562 92.8307 32.8213C91.7235 33.3863 90.4545 33.5599 89.2339 33.3133C88.0134 33.0667 86.9146 32.4147 86.1194 31.4653C85.3242 30.5159 84.8803 29.326 84.8613 28.0927C84.8623 27.3863 85.0053 26.6872 85.2821 26.0362C85.5589 25.3852 85.964 24.7953 86.4736 24.301C86.9832 23.8067 87.5872 23.4178 88.2502 23.1572C88.9133 22.8966 89.6221 22.7694 90.3353 22.783C91.4148 22.7549 92.4764 23.0594 93.3734 23.6546C94.2704 24.2498 94.9585 25.1063 95.3425 26.1055H93.7865C93.4673 25.4725 92.974 24.9416 92.3634 24.574C91.7528 24.2064 91.0498 24.0169 90.3353 24.0275C89.7952 24.0145 89.2581 24.1103 88.7565 24.309C88.2548 24.5077 87.7992 24.8052 87.4172 25.1834C87.0352 25.5617 86.7347 26.0129 86.534 26.5096C86.3334 27.0063 86.2367 27.5381 86.2498 28.0729C86.2429 28.6091 86.3435 29.1412 86.5456 29.6386C86.7476 30.1361 87.0473 30.5889 87.4272 30.9709C87.8071 31.353 88.2597 31.6567 88.7589 31.8645C89.2581 32.0723 89.7939 32.1801 90.3353 32.1816C91.0369 32.1904 91.7278 32.0115 92.3352 31.6638C92.9426 31.3161 93.444 30.8126 93.7865 30.2063H95.3226Z" fill="white"/>
<path d="M107.467 30.2078C106.962 31.3351 106.083 32.2577 104.975 32.8228C103.868 33.3878 102.599 33.5614 101.378 33.3148C100.158 33.0682 99.0591 32.4162 98.2639 31.4668C97.4687 30.5174 97.0248 29.3275 97.0059 28.0942C97.0068 27.3878 97.1498 26.6887 97.4267 26.0377C97.7035 25.3866 98.1085 24.7967 98.6181 24.3024C99.1277 23.8081 99.7317 23.4193 100.395 23.1587C101.058 22.8981 101.767 22.7709 102.48 22.7845C103.557 22.7605 104.615 23.0679 105.508 23.6644C106.402 24.2609 107.086 25.1171 107.467 26.1149H105.911C105.593 25.4822 105.1 24.9515 104.49 24.5838C103.88 24.2162 103.178 24.0266 102.464 24.0369C101.924 24.0239 101.387 24.1196 100.885 24.3183C100.383 24.517 99.9278 24.8145 99.5458 25.1928C99.1637 25.5711 98.8633 26.0223 98.6626 26.5189C98.4619 27.0156 98.3652 27.5475 98.3784 28.0823C98.3726 28.6178 98.4739 29.1491 98.6764 29.6456C98.879 30.1421 99.1789 30.594 99.5587 30.9752C99.9385 31.3564 100.391 31.6594 100.889 31.8667C101.388 32.074 101.923 32.1815 102.464 32.1831C103.165 32.1915 103.855 32.0125 104.462 31.6648C105.069 31.3172 105.569 30.8138 105.911 30.2078H107.467Z" fill="white"/>
<defs>
<linearGradient id="paint0_linear_1211_18631" x1="4.08622" y1="22.4478" x2="63.7175" y2="22.4478" gradientUnits="userSpaceOnUse">
<stop stop-color="#3C73ED"/>
<stop offset="1" stop-color="white" stop-opacity="0"/>
</linearGradient>
</defs>
</svg>
