<svg width="64" height="41" viewBox="0 0 64 41" fill="none" xmlns="http://www.w3.org/2000/svg">
<path d="M38.6335 9.35378C35.4006 10.1958 32.1591 11.1389 28.9391 12.722C25.519 14.3487 22.348 16.4392 19.5186 18.9322C17.4718 20.7679 15.6648 22.793 14.5686 25.2476C12.7531 29.3232 14.2047 32.6535 17.9943 33.0956C19.4152 33.2827 20.8612 33.0922 22.1821 32.544C23.3638 32.0039 24.4577 31.2945 25.4278 30.4389C29.9368 26.5949 32.279 22.0857 32.5788 17.1218C32.6601 15.7913 32.4032 14.5535 32.2919 13.1936C32.6255 13.0331 32.9687 12.8925 33.3196 12.7725C35.5505 12.1578 37.7771 11.5684 40.0038 10.9621C40.3977 10.8526 40.5133 11.0042 40.5647 11.341C41.5068 17.5975 39.5199 23.9087 34.4629 30.1568C29.8597 35.8365 24.4001 39.4489 18.1484 40.5351C13.2755 41.3772 9.26752 40.4762 6.44567 37.4785C4.57872 35.4996 3.79511 32.8472 4.78853 29.3737C5.5336 26.7507 7.14792 24.4477 9.23754 22.3509C12.1407 19.45 15.4464 17.4038 18.8035 15.5008C22.408 13.4919 26.2394 11.9051 30.2194 10.7727C30.3992 10.7179 30.5833 10.6548 30.9002 10.5495L30.0481 9.41272C31.1314 9.08853 32.1249 8.73487 33.1097 8.50752C34.9981 8.08649 36.8779 7.71598 38.7663 7.3118C39.1302 7.23601 39.3486 7.3118 39.4 7.64862C39.567 8.6633 62.0947 4.44038 63.1823 4.13303C63.4416 4.08028 63.7054 4.05209 63.9702 4.04883" fill="url(#paint0_linear_1211_18662)" fill-opacity="0.5"/>
<path d="M63.049 0.685433C58.8826 1.41802 33.0749 6.79877 28.9685 8.285C24.3607 9.90323 19.9457 12.0095 15.8013 14.5667C13.8358 15.7961 11.9046 17.1434 9.98631 18.5076C9.25453 19.0807 8.56483 19.704 7.92237 20.3727C7.24154 21.0253 6.5607 21.6905 5.92268 22.3895C4.44956 23.9494 3.25519 25.743 2.39003 27.6944C1.59728 29.4927 1.33465 31.4739 1.63211 33.412C1.38303 33.0324 1.17085 32.6307 0.998373 32.212C0.518788 30.7006 0.0863033 29.1554 0.300404 27.3155C0.444153 25.7873 0.854061 24.2947 1.51221 22.9031C2.48307 20.9166 3.80209 19.1138 5.40884 17.5771C6.31869 16.7316 7.29203 15.9547 8.32061 15.253C9.04427 14.7394 9.7037 14.0741 10.4359 13.5942C12.1646 12.4409 13.9862 11.4285 15.8826 10.567C19.2835 9.03703 22.8307 7.84384 26.472 7.00507C26.4977 7.00507 26.532 6.95455 26.6476 6.84929C23.222 5.38411 19.4495 5.39674 15.0562 7.49768C10.7742 9.54809 7.26723 12.7226 4.32549 16.7603C4.76611 15.4127 5.36993 14.1221 6.12394 12.9163C8.68006 8.49893 12.4731 4.8966 17.0516 2.53796C21.6976 0.159151 26.0867 -0.51029 30.1546 0.37387C33.1854 0.986814 35.8977 2.63496 37.8108 5.02624C37.891 5.08833 37.9833 5.13348 38.0821 5.15883C38.1808 5.18419 38.2838 5.18922 38.3846 5.1736C39.5964 5.11465 62.6636 0.567549 63.8754 0.491763" fill="#4E84FF"/>
<path d="M32.6472 32.3749H33.904V36.2149H32.5155V33.6036H20.9451V36.1991H19.5566V32.3591H20.8134L26.0002 19.8672H27.4924L32.6472 32.3749ZM31.147 32.3749L26.7263 21.645L22.3056 32.3749H31.147Z" fill="white"/>
<path d="M35.4199 19.8809H45.3944V33.6014H44.006V21.1253H36.8243V33.6014H35.4359L35.4199 19.8809Z" fill="white"/>
<path d="M62.2628 26.6728C62.2628 30.7933 59.0391 33.859 54.9136 33.859C50.7881 33.859 47.5684 30.9078 47.5684 26.7873C47.5684 22.6668 50.7921 19.6406 54.9136 19.6406C59.0351 19.6406 62.2628 22.5917 62.2628 26.6728ZM60.8744 26.6728C60.8744 23.2594 58.269 20.8851 54.9335 20.8851C54.1436 20.8628 53.3573 21.0001 52.6226 21.2886C51.8879 21.577 51.2203 22.0106 50.6603 22.5628C50.1004 23.1151 49.6598 23.7744 49.3656 24.5007C49.0714 25.227 48.9296 26.005 48.9488 26.7873C48.9488 30.2402 51.5941 32.6145 54.9335 32.6145C55.7235 32.6315 56.5087 32.489 57.2412 32.1957C57.9737 31.9024 58.6382 31.4643 59.1941 30.9083C59.75 30.3523 60.1857 29.69 60.4746 28.9618C60.7635 28.2336 60.8995 27.4547 60.8744 26.6728Z" fill="white"/>
<defs>
<linearGradient id="paint0_linear_1211_18662" x1="4.33036" y1="22.4478" x2="63.9616" y2="22.4478" gradientUnits="userSpaceOnUse">
<stop stop-color="#3C73ED"/>
<stop offset="1" stop-color="white" stop-opacity="0"/>
</linearGradient>
</defs>
</svg>
