<svg width="93" height="41" viewBox="0 0 93 41" fill="none" xmlns="http://www.w3.org/2000/svg">
<path d="M38.3894 9.51784C35.1565 10.3599 31.915 11.303 28.6949 12.8861C25.2749 14.5128 22.1039 16.6032 19.2745 19.0962C17.2277 20.9319 15.4207 22.9571 14.3245 25.4117C12.5089 29.4872 13.9605 32.8176 17.7501 33.2596C19.1711 33.4467 20.6171 33.2563 21.9379 32.7081C23.1197 32.168 24.2135 31.4585 25.1837 30.6029C29.6926 26.759 32.0349 22.2497 32.3346 17.2858C32.416 15.9554 32.1591 14.7176 32.0477 13.3576C32.3814 13.1972 32.7246 13.0566 33.0754 12.9366C35.3064 12.3219 37.533 11.7325 39.7596 11.1262C40.1536 11.0167 40.2692 11.1683 40.3206 11.5051C41.2626 17.7616 39.2758 24.0728 34.2187 30.3209C29.6156 36.0005 24.156 39.613 17.9043 40.6992C13.0313 41.5413 9.02338 40.6403 6.20153 37.6425C4.33458 35.6637 3.55097 33.0112 4.54439 29.5377C5.28946 26.9147 6.90378 24.6117 8.9934 22.515C11.8966 19.6141 15.2023 17.5679 18.5594 15.6649C22.1639 13.656 25.9953 12.0691 29.9752 10.9367C30.1551 10.882 30.3392 10.8188 30.6561 10.7136L29.804 9.57679C30.8873 9.2526 31.8807 8.89894 32.8656 8.67158C34.754 8.25055 36.6338 7.88005 38.5221 7.47586C38.8861 7.40008 39.1045 7.47586 39.1559 7.81268C39.3229 8.82736 61.8505 4.60445 62.9381 4.2971C63.1974 4.24435 63.4613 4.21615 63.726 4.21289" fill="url(#paint0_linear_1211_18643)" fill-opacity="0.5"/>
<path d="M62.8048 0.849495C58.6384 1.58209 32.8308 6.96283 28.7243 8.44906C24.1166 10.0673 19.7015 12.1736 15.5571 14.7308C13.5917 15.9602 11.6605 17.3075 9.74217 18.6716C9.01039 19.2448 8.32069 19.8681 7.67823 20.5368C6.99739 21.1894 6.31656 21.8546 5.67854 22.5535C4.20542 24.1135 3.01105 25.9071 2.14589 27.8585C1.35314 29.6568 1.09051 31.638 1.38797 33.576C1.13889 33.1965 0.926706 32.7948 0.754233 32.3761C0.274648 30.8646 -0.157837 29.3194 0.0562631 27.4796C0.200012 25.9513 0.60992 24.4588 1.26807 23.0672C2.23893 21.0807 3.55795 19.2778 5.1647 17.7412C6.07455 16.8957 7.04789 16.1188 8.07647 15.4171C8.80013 14.9034 9.45956 14.2382 10.1918 13.7582C11.9205 12.605 13.7421 11.5925 15.6385 10.731C19.0393 9.20109 22.5866 8.0079 26.2279 7.16913C26.2536 7.16913 26.2879 7.11861 26.4035 7.01335C22.9779 5.54817 19.2054 5.56081 14.8121 7.66174C10.5301 9.71215 7.02309 12.8867 4.08135 16.9244C4.52197 15.5768 5.12579 14.2862 5.8798 13.0804C8.43592 8.66299 12.2289 5.06066 16.8075 2.70202C21.4535 0.323214 25.8425 -0.346228 29.9104 0.537932C32.9413 1.15088 35.6536 2.79902 37.5667 5.1903C37.6468 5.2524 37.7392 5.29754 37.8379 5.3229C37.9367 5.34826 38.0396 5.35328 38.1405 5.33766C39.3523 5.27872 62.4194 0.731611 63.6313 0.655826" fill="#4E84FF"/>
<path d="M21.0731 33.8321H19.3535L24.8794 26.551L19.7525 20.0957H21.4003L26.5551 26.6656L21.0731 33.8321ZM28.57 20.0957V33.8321H27.1815V20.0957H28.57ZM34.3432 20.0957H35.995L30.8761 26.551L36.406 33.8479H34.6824L29.1884 26.6814L34.3432 20.0957Z" fill="white"/>
<path d="M45.6471 23.6797L39.7262 37.3963H38.242L39.9496 33.3667L35.9199 23.6797H37.5677L40.7915 31.581L44.1669 23.6797H45.6471Z" fill="white"/>
<path d="M46.959 23.678H48.2716V25.4203H48.3075C48.763 24.7917 49.3669 24.2831 50.0666 23.9388C50.7662 23.5945 51.5403 23.4249 52.3213 23.4449C55.9121 23.4449 57.7754 26.2104 57.7754 28.8099C57.7754 31.8322 55.4293 34.0801 52.2814 34.0801C51.4964 34.1133 50.7174 33.9318 50.0298 33.5554C49.3422 33.1791 48.7725 32.6225 48.3833 31.9467H48.3434V37.4025H46.959V23.678ZM48.2716 28.8139C48.2554 29.3398 48.347 29.8635 48.541 30.3534C48.735 30.8433 49.0273 31.2891 49.4002 31.6639C49.7732 32.0387 50.219 32.3348 50.7108 32.5341C51.2026 32.7335 51.7301 32.832 52.2614 32.8238C53.3524 32.829 54.4008 32.4049 55.176 31.6447C55.9511 30.8846 56.3896 29.8507 56.3949 28.7704C56.4002 27.6901 55.9719 26.6521 55.2042 25.8845C54.4365 25.1169 53.3923 24.6828 52.3013 24.6775C49.9394 24.6815 48.2716 26.5501 48.2716 28.8178V28.8139Z" fill="white"/>
<path d="M61.1287 23.6797V28.0254H66.862V23.6797H68.2505V33.8328H66.862V29.2461H61.1287V33.8328H59.7402V23.6797H61.1287Z" fill="white"/>
<path d="M81.0534 33.8316H79.7407V31.9393H79.7008C79.28 32.6072 78.6908 33.1551 77.9912 33.5291C77.2917 33.9032 76.5058 34.0905 75.711 34.0726C72.6348 34.0726 70.217 31.8445 70.217 28.6879C70.2106 27.9839 70.3484 27.2859 70.6222 26.6361C70.896 25.9863 71.3 25.3982 71.8098 24.9074C72.3196 24.4167 72.9246 24.0334 73.5883 23.7807C74.252 23.528 74.9605 23.4113 75.6711 23.4375C76.4604 23.3977 77.2466 23.5613 77.9529 23.9124C78.6592 24.2635 79.2615 24.79 79.7008 25.4405H79.7407V23.6785H81.0534V33.8316ZM71.6174 28.8025C71.6179 29.3343 71.7248 29.8608 71.9318 30.3516C72.1388 30.8424 72.4418 31.2877 72.8235 31.6619C73.2051 32.0362 73.6578 32.3319 74.1555 32.5321C74.6531 32.7322 75.1859 32.8329 75.723 32.8282C76.2543 32.8297 76.7806 32.727 77.2716 32.5258C77.7625 32.3246 78.2083 32.0289 78.583 31.656C78.9578 31.2831 79.2542 30.8402 79.4549 30.3531C79.6557 29.866 79.7569 29.3444 79.7527 28.8183C79.7697 28.2787 79.6772 27.7413 79.4804 27.2379C79.2837 26.7344 78.9868 26.2753 78.6074 25.8877C78.228 25.5 77.7738 25.1919 77.2718 24.9814C76.7698 24.7709 76.2302 24.6625 75.6851 24.6625C75.1399 24.6625 74.6003 24.7709 74.0983 24.9814C73.5963 25.1919 73.1421 25.5 72.7627 25.8877C72.3833 26.2753 72.0864 26.7344 71.8897 27.2379C71.693 27.7413 71.6004 28.2787 71.6174 28.8183V28.8025Z" fill="white"/>
<path d="M92.5806 33.8328H91.0804L87.4896 25.4219L83.8988 33.8328H82.3906L86.7794 23.6797H88.2237L92.5806 33.8328Z" fill="white"/>
<defs>
<linearGradient id="paint0_linear_1211_18643" x1="4.08622" y1="22.6118" x2="63.7175" y2="22.6118" gradientUnits="userSpaceOnUse">
<stop stop-color="#3C73ED"/>
<stop offset="1" stop-color="white" stop-opacity="0"/>
</linearGradient>
</defs>
</svg>
