<svg width="90" height="41" viewBox="0 0 90 41" fill="none" xmlns="http://www.w3.org/2000/svg">
<path d="M38.6335 9.51784C35.4006 10.3599 32.1591 11.303 28.9391 12.8861C25.519 14.5128 22.348 16.6032 19.5186 19.0962C17.4718 20.9319 15.6648 22.9571 14.5686 25.4117C12.7531 29.4872 14.2047 32.8176 17.9943 33.2596C19.4152 33.4467 20.8612 33.2563 22.1821 32.7081C23.3638 32.168 24.4577 31.4585 25.4278 30.6029C29.9368 26.759 32.279 22.2497 32.5788 17.2858C32.6601 15.9554 32.4032 14.7176 32.2919 13.3576C32.6255 13.1972 32.9687 13.0566 33.3196 12.9366C35.5505 12.3219 37.7771 11.7325 40.0038 11.1262C40.3977 11.0167 40.5133 11.1683 40.5647 11.5051C41.5068 17.7616 39.5199 24.0728 34.4629 30.3209C29.8597 36.0005 24.4001 39.613 18.1484 40.6992C13.2755 41.5413 9.26752 40.6403 6.44567 37.6425C4.57872 35.6637 3.79511 33.0112 4.78853 29.5377C5.5336 26.9147 7.14792 24.6117 9.23754 22.515C12.1407 19.6141 15.4464 17.5679 18.8035 15.6649C22.408 13.656 26.2394 12.0691 30.2194 10.9367C30.3992 10.882 30.5833 10.8188 30.9002 10.7136L30.0481 9.57679C31.1314 9.2526 32.1249 8.89894 33.1097 8.67158C34.9981 8.25055 36.8779 7.88005 38.7663 7.47586C39.1302 7.40008 39.3486 7.47586 39.4 7.81268C39.567 8.82736 62.0947 4.60445 63.1823 4.2971C63.4416 4.24435 63.7054 4.21615 63.9702 4.21289" fill="url(#paint0_linear_1211_18669)" fill-opacity="0.5"/>
<path d="M63.049 0.849495C58.8826 1.58209 33.0749 6.96283 28.9685 8.44906C24.3607 10.0673 19.9457 12.1736 15.8013 14.7308C13.8358 15.9602 11.9046 17.3075 9.98631 18.6716C9.25453 19.2448 8.56483 19.8681 7.92237 20.5368C7.24154 21.1894 6.5607 21.8546 5.92268 22.5535C4.44956 24.1135 3.25519 25.9071 2.39003 27.8585C1.59728 29.6568 1.33465 31.638 1.63211 33.576C1.38303 33.1965 1.17085 32.7948 0.998373 32.3761C0.518788 30.8646 0.0863033 29.3194 0.300404 27.4796C0.444153 25.9513 0.854061 24.4588 1.51221 23.0672C2.48307 21.0807 3.80209 19.2778 5.40884 17.7412C6.31869 16.8957 7.29203 16.1188 8.32061 15.4171C9.04427 14.9034 9.7037 14.2382 10.4359 13.7582C12.1646 12.605 13.9862 11.5925 15.8826 10.731C19.2835 9.20109 22.8307 8.0079 26.472 7.16913C26.4977 7.16913 26.532 7.11861 26.6476 7.01335C23.222 5.54817 19.4495 5.56081 15.0562 7.66174C10.7742 9.71215 7.26723 12.8867 4.32549 16.9244C4.76611 15.5768 5.36993 14.2862 6.12394 13.0804C8.68006 8.66299 12.4731 5.06066 17.0516 2.70202C21.6976 0.323214 26.0867 -0.346228 30.1546 0.537932C33.1854 1.15088 35.8977 2.79902 37.8108 5.1903C37.891 5.2524 37.9833 5.29754 38.0821 5.3229C38.1808 5.34826 38.2838 5.35328 38.3846 5.33766C39.5964 5.27872 62.6636 0.731611 63.8754 0.655826" fill="#4E84FF"/>
<path d="M20.3652 20.0957H30.3398V33.8281H28.9553V21.3204H21.7736V33.8123H20.3852L20.3652 20.0957Z" fill="white"/>
<path d="M32.905 23.6501H34.2376V25.3963C34.6908 24.7711 35.2909 24.2646 35.986 23.9204C36.6812 23.5763 37.4505 23.4048 38.2275 23.421C41.8183 23.421 43.6855 26.1864 43.6855 28.7859C43.6855 31.8121 41.3395 34.056 38.1916 34.056C37.4066 34.0893 36.6276 33.9077 35.94 33.5314C35.2523 33.1551 34.6827 32.5985 34.2935 31.9227H34.2536V37.3785H32.8691L32.905 23.6501ZM34.2376 28.7859C34.2198 29.313 34.3102 29.8382 34.5034 30.3297C34.6966 30.8211 34.9885 31.2687 35.3616 31.6451C35.7347 32.0215 36.181 32.319 36.6737 32.5195C37.1663 32.72 37.6949 32.8194 38.2275 32.8116C39.2971 32.7836 40.3138 32.3443 41.062 31.5869C41.8103 30.8294 42.2313 29.8133 42.236 28.7538C42.2407 27.6942 41.8286 26.6745 41.087 25.9106C40.3455 25.1468 39.3328 24.6987 38.2634 24.6615C35.8854 24.6615 34.2376 26.5182 34.2376 28.7859Z" fill="white"/>
<path d="M46.7397 29.2293C46.8052 30.0903 47.1592 30.905 47.7455 31.5441C48.3318 32.1832 49.1169 32.6102 49.9761 32.7572C50.8354 32.9042 51.7196 32.7629 52.4886 32.3557C53.2575 31.9485 53.867 31.2986 54.2206 30.5093H55.6609C55.2508 31.6961 54.4274 32.6995 53.3381 33.3397C52.2487 33.9798 50.9648 34.215 49.7163 34.0029C48.4678 33.7908 47.3364 33.1455 46.5248 32.1824C45.7132 31.2194 45.2746 30.0016 45.2874 28.7474C45.2874 26.2387 47.1426 23.418 50.6297 23.418C54.5118 23.418 55.9162 26.6101 55.8963 29.2293H46.7397ZM54.4041 27.9968C54.0051 25.9385 52.4092 24.6743 50.6377 24.6743C49.6941 24.6751 48.782 25.0107 48.0669 25.6202C47.3517 26.2298 46.8809 27.0729 46.7397 27.9968H54.4041Z" fill="white"/>
<path d="M60.006 23.6504L63.4372 31.9467L66.8685 23.6504H69.003V33.8035H67.6186V25.1832L64.0277 33.8114H62.8308L59.2399 25.1832V33.8114H57.8555V23.6504H60.006Z" fill="white"/>
<path d="M72.7556 23.6504V31.8559L78.8641 23.6504H80.2525V33.8035H78.8641V25.6257L72.7556 33.8272H71.3672V23.6504H72.7556Z" fill="white"/>
<path d="M90.0001 33.8113H88.6117V24.9027H85.8587C85.5555 24.9027 83.4648 24.9224 83.4648 27.0755C83.4648 28.2054 84.1391 29.118 85.8587 29.118H87.2631L83.8518 33.8113H82.2559L85.0488 30.1926C84.2271 30.1576 83.4527 29.8025 82.8944 29.2045C82.3361 28.6065 82.0392 27.8143 82.0684 27.0005C82.0684 25.274 83.397 23.6582 85.8547 23.6582H89.9961L90.0001 33.8113Z" fill="white"/>
<defs>
<linearGradient id="paint0_linear_1211_18669" x1="4.33036" y1="22.6118" x2="63.9616" y2="22.6118" gradientUnits="userSpaceOnUse">
<stop stop-color="#3C73ED"/>
<stop offset="1" stop-color="white" stop-opacity="0"/>
</linearGradient>
</defs>
</svg>
