<svg width="134" height="134" viewBox="0 0 134 134" fill="none" xmlns="http://www.w3.org/2000/svg">
<path opacity="0.1" d="M137.474 21.8914C125.923 24.89 114.341 28.2485 102.836 33.8859C90.6162 39.6788 79.2863 47.123 69.1772 56.0008C61.8641 62.5378 55.4077 69.7495 51.4911 78.4905C45.0042 93.0039 50.1907 104.863 63.7306 106.438C68.8077 107.104 73.9742 106.426 78.6934 104.474C82.9159 102.55 86.824 100.024 90.2903 96.9771C106.401 83.2883 114.769 67.2307 115.84 49.5537C116.131 44.8159 115.213 40.4079 114.815 35.5651C116.007 34.9937 117.234 34.493 118.487 34.0658C126.458 31.8768 134.414 29.7778 142.369 27.6188C143.777 27.2289 144.19 27.7687 144.374 28.9681C147.739 51.248 140.641 73.7227 122.572 95.9726C106.125 116.198 86.6185 129.062 64.2814 132.931C46.8707 135.929 32.5505 132.721 22.4682 122.046C15.7977 114.999 12.9979 105.553 16.5473 93.1838C19.2094 83.8431 24.9773 75.6418 32.4434 68.1752C42.8163 57.845 54.6275 50.5583 66.6222 43.7814C79.5008 36.6276 93.1901 30.9767 107.41 26.9441C108.053 26.7492 108.711 26.5243 109.843 26.1494L106.798 22.1013C110.669 20.9468 114.219 19.6874 117.737 18.8777C124.484 17.3784 131.201 16.059 137.948 14.6197C139.248 14.3498 140.029 14.6197 140.212 15.8191C140.809 19.4325 221.299 4.39436 225.185 3.29986C226.111 3.11202 227.054 3.01161 228 3" fill="url(#paint0_linear_1701_970)"/>
<path opacity="0.1" d="M225.039 -9.55876C210.11 -6.94957 117.637 12.2145 102.923 17.5078C86.4132 23.2713 70.5935 30.7731 55.7435 39.8809C48.701 44.2595 41.7813 49.058 34.9076 53.9165C32.2855 55.9579 29.8142 58.1777 27.5122 60.5594C25.0727 62.8837 22.6332 65.253 20.347 67.7422C15.0686 73.2983 10.789 79.6863 7.68902 86.6364C4.84849 93.0412 3.90744 100.098 4.97329 107C4.08079 105.648 3.32052 104.217 2.70253 102.726C0.984103 97.343 -0.565554 91.8397 0.201599 85.2868C0.716673 79.8439 2.18543 74.5281 4.54369 69.5716C8.02242 62.4967 12.7486 56.0756 18.5059 50.6025C21.766 47.5912 25.2536 44.8242 28.9392 42.3251C31.5321 40.4957 33.895 38.1264 36.5186 36.417C42.7127 32.3094 49.2399 28.7036 56.035 25.6353C68.2206 20.1862 80.9311 15.9366 93.9784 12.9492C94.0704 12.9492 94.1932 12.7693 94.6074 12.3944C82.333 7.17603 68.8158 7.22103 53.0738 14.7037C37.7307 22.0064 25.1647 33.3129 14.6241 47.6935C16.2029 42.8939 18.3664 38.2974 21.0682 34.0027C30.2271 18.2698 43.818 5.43972 60.2236 -2.9608C76.8709 -11.4332 92.5975 -13.8174 107.173 -10.6684C118.033 -8.48537 127.752 -2.61533 134.607 5.90143C134.894 6.1226 135.225 6.28338 135.579 6.37369C135.933 6.46401 136.302 6.48191 136.663 6.42627C141.005 6.21634 223.658 -9.97862 228 -10.2485" fill="white"/>
<defs>
<linearGradient id="paint0_linear_1701_970" x1="14.9103" y1="68.5201" x2="227.969" y2="68.5201" gradientUnits="userSpaceOnUse">
<stop stop-color="white"/>
<stop offset="1" stop-color="#6085C3" stop-opacity="0"/>
</linearGradient>
</defs>
</svg>