<svg width="755" height="703" viewBox="0 0 755 703" fill="none" xmlns="http://www.w3.org/2000/svg">
<path opacity="0.1" d="M756.105 186.402C692.574 202.895 628.875 221.367 565.597 252.372C498.389 284.234 436.075 325.177 380.474 374.004C340.252 409.958 304.743 449.622 283.201 497.698C247.523 577.522 276.049 642.749 350.518 651.408C378.442 655.072 406.858 651.342 432.814 640.605C456.037 630.026 477.532 616.131 496.597 599.374C585.203 524.086 631.231 435.769 637.122 338.546C638.72 312.488 633.671 288.244 631.484 261.608C638.041 258.465 644.785 255.711 651.679 253.362C695.519 241.322 739.275 229.778 783.032 217.903C790.773 215.759 793.045 218.728 794.055 225.325C812.567 347.864 773.523 471.475 674.146 593.849C583.688 705.091 476.401 775.843 353.547 797.119C257.789 813.611 179.028 795.964 123.575 737.251C86.8871 698.494 71.4882 646.542 91.0102 578.511C105.652 527.137 137.375 482.03 178.439 440.964C235.49 384.147 300.451 344.071 366.422 306.798C437.254 267.452 512.546 236.372 590.757 214.192C594.291 213.12 597.909 211.883 604.136 209.822L587.391 187.557C608.68 181.207 628.202 174.281 647.556 169.828C684.664 161.581 721.605 154.325 758.713 146.408C765.866 144.924 770.157 146.408 771.167 153.005C774.449 172.879 1217.14 90.169 1238.52 84.1492C1243.61 83.1161 1248.8 82.5639 1254 82.5" fill="url(#paint0_linear_691_9009)"/>
<path opacity="0.1" d="M1237.71 13.4268C1155.61 27.7773 647.006 133.18 566.079 162.293C475.272 193.992 388.264 235.252 306.589 285.345C267.856 309.427 229.797 335.819 191.992 362.541C177.57 373.768 163.978 385.977 151.317 399.077C137.9 411.86 124.482 424.891 111.909 438.582C82.8775 469.14 59.3396 504.275 42.2896 542.5C26.6667 577.727 21.4909 616.536 27.3531 654.5C22.4444 647.065 18.2629 639.196 14.8639 630.995C5.41256 601.386 -3.11055 571.119 1.10879 535.077C3.9417 505.141 12.0199 475.904 24.9903 448.644C44.1233 409.732 70.1175 374.416 101.782 344.314C119.713 327.752 138.895 312.533 159.165 298.788C173.427 288.726 186.422 275.695 200.853 266.293C234.92 243.702 270.819 223.87 308.193 206.994C375.213 177.024 445.121 153.651 516.881 137.221C517.387 137.221 518.062 136.231 520.341 134.169C452.831 105.468 378.487 105.716 291.906 146.87C207.519 187.035 138.406 249.221 80.4324 328.314C89.1157 301.917 101.015 276.635 115.875 253.015C166.249 166.484 240.999 95.9184 331.23 49.7156C422.79 3.11758 509.286 -9.99597 589.454 7.32365C649.183 19.3305 702.635 51.6157 740.337 98.4578C741.917 99.6743 743.737 100.559 745.683 101.055C747.629 101.552 749.659 101.651 751.645 101.344C775.527 100.19 1230.12 11.1176 1254 9.63305" fill="white"/>
<defs>
<linearGradient id="paint0_linear_691_9009" x1="82.0066" y1="442.86" x2="1253.83" y2="442.86" gradientUnits="userSpaceOnUse">
<stop stop-color="white"/>
<stop offset="1" stop-color="#6085C3" stop-opacity="0"/>
</linearGradient>
</defs>
</svg>