<svg width="136" height="130" viewBox="0 0 136 130" fill="none" xmlns="http://www.w3.org/2000/svg">
<path opacity="0.1" d="M137.474 33.8914C125.923 36.89 114.341 40.2485 102.836 45.8859C90.6162 51.6788 79.2863 59.123 69.1772 68.0008C61.8641 74.5378 55.4077 81.7495 51.4911 90.4905C45.0042 105.004 50.1907 116.863 63.7306 118.438C68.8077 119.104 73.9742 118.426 78.6934 116.474C82.9159 114.55 86.824 112.024 90.2903 108.977C106.401 95.2883 114.769 79.2307 115.84 61.5537C116.131 56.8159 115.213 52.4079 114.815 47.5651C116.007 46.9937 117.234 46.493 118.487 46.0658C126.458 43.8768 134.414 41.7778 142.369 39.6188C143.777 39.2289 144.19 39.7687 144.374 40.9681C147.739 63.248 140.641 85.7227 122.572 107.973C106.125 128.198 86.6185 141.062 64.2814 144.931C46.8707 147.929 32.5505 144.721 22.4682 134.046C15.7977 126.999 12.9979 117.553 16.5473 105.184C19.2094 95.8431 24.9773 87.6418 32.4434 80.1752C42.8163 69.845 54.6275 62.5583 66.6222 55.7814C79.5008 48.6276 93.1901 42.9767 107.41 38.9441C108.053 38.7492 108.711 38.5243 109.843 38.1494L106.798 34.1013C110.669 32.9468 114.219 31.6874 117.737 30.8777C124.484 29.3784 131.201 28.059 137.948 26.6197C139.248 26.3498 140.029 26.6197 140.212 27.8191C140.809 31.4325 221.299 16.3944 225.185 15.2999C226.111 15.112 227.054 15.0116 228 15" fill="url(#paint0_linear_691_6779)"/>
<path opacity="0.1" d="M225.039 2.44124C210.11 5.05043 117.637 24.2145 102.923 29.5078C86.4132 35.2713 70.5935 42.7731 55.7435 51.8809C48.701 56.2595 41.7813 61.058 34.9076 65.9165C32.2855 67.9579 29.8142 70.1777 27.5122 72.5594C25.0727 74.8837 22.6332 77.253 20.347 79.7422C15.0686 85.2983 10.789 91.6863 7.68902 98.6364C4.84849 105.041 3.90744 112.098 4.97329 119C4.08079 117.648 3.32052 116.217 2.70253 114.726C0.984103 109.343 -0.565554 103.84 0.201599 97.2868C0.716673 91.8439 2.18543 86.5281 4.54369 81.5716C8.02242 74.4967 12.7486 68.0756 18.5059 62.6025C21.766 59.5912 25.2536 56.8242 28.9392 54.3251C31.5321 52.4957 33.895 50.1264 36.5186 48.417C42.7127 44.3094 49.2399 40.7036 56.035 37.6353C68.2206 32.1862 80.9311 27.9366 93.9784 24.9492C94.0704 24.9492 94.1932 24.7693 94.6074 24.3944C82.333 19.176 68.8158 19.221 53.0738 26.7037C37.7307 34.0064 25.1647 45.3129 14.6241 59.6935C16.2029 54.8939 18.3664 50.2974 21.0682 46.0027C30.2271 30.2698 43.818 17.4397 60.2236 9.0392C76.8709 0.566832 92.5975 -1.81745 107.173 1.33157C118.033 3.51463 127.752 9.38467 134.607 17.9014C134.894 18.1226 135.225 18.2834 135.579 18.3737C135.933 18.464 136.302 18.4819 136.663 18.4263C141.005 18.2163 223.658 2.02138 228 1.75146" fill="white"/>
<defs>
<linearGradient id="paint0_linear_691_6779" x1="14.9103" y1="80.5201" x2="227.969" y2="80.5201" gradientUnits="userSpaceOnUse">
<stop stop-color="white"/>
<stop offset="1" stop-color="#6085C3" stop-opacity="0"/>
</linearGradient>
</defs>
</svg>
