<svg viewBox="0 0 143 65" fill="none" xmlns="http://www.w3.org/2000/svg">
<g clip-path="url(#clip0_1054:46221)">
<path d="M48.4262 12.2677C44.2969 13.3304 40.1568 14.5207 36.0439 16.5187C31.6757 18.5719 27.6255 21.2102 24.0117 24.3566C21.3974 26.6734 19.0894 29.2294 17.6893 32.3274C15.3704 37.4711 17.2244 41.6744 22.0647 42.2323C22.972 42.3504 23.8873 42.3493 24.7866 42.2323C25.6863 42.1153 27.3559 42.9356 28.1996 42.5896C29.709 41.9079 31.536 40.9657 32.7751 39.8858C33.7551 39.0603 33.4389 37.204 34.2594 36.3311C38.2608 32.0744 40.375 27.2707 40.6927 22.0717C40.7967 20.3925 40.4685 18.8303 40.3263 17.1139C40.7525 16.9113 41.1908 16.7339 41.6389 16.5825C44.4884 15.8067 47.3323 15.0628 50.1763 14.2976C50.6795 14.1594 50.8271 14.3507 50.8928 14.7758C52.096 22.6721 49.5583 30.6376 43.0992 38.5233C37.2198 45.6916 30.2466 50.2509 22.2615 51.6218C16.0376 52.6846 10.9184 51.5474 7.31425 47.764C4.92968 45.2665 3.92881 41.9188 5.19766 37.5349C6.1493 34.2244 8.21119 31.3177 10.8802 28.6715C14.5883 25.0102 18.8105 22.4277 23.0983 20.0259C27.7022 17.4905 32.5958 15.4877 37.6792 14.0584C37.9089 13.9894 38.1441 13.9097 38.5488 13.7768L37.4604 12.3421C38.8441 11.9329 40.113 11.4865 41.3709 11.1996C43.7828 10.6682 46.1838 10.2006 48.5957 9.69048C49.0606 9.59483 49.3395 9.69048 49.4052 10.1156C49.6185 11.3962 78.3919 6.06645 79.7811 5.67854C80.1122 5.61197 80.4492 5.57638 80.7874 5.57227" fill="url(#paint0_linear_1054:46221)" fill-opacity="0.5"/>
<path d="M79.7365 0.876266C74.4469 1.81282 41.6817 8.69163 36.4682 10.5916C30.6182 12.6604 25.0129 15.3531 19.7512 18.6223C17.2559 20.194 14.8041 21.9164 12.3686 23.6603C11.4395 24.393 10.5639 25.1898 9.74822 26.0447C8.88383 26.879 8.01946 27.7295 7.20943 28.623C5.33917 30.6173 3.8228 32.9102 2.7244 35.4049C1.71793 37.7039 1.3845 40.2367 1.76215 42.7143C1.44592 42.2291 1.17654 41.7155 0.957568 41.1803C0.348691 39.248 -0.200389 37.2726 0.0714312 34.9205C0.253934 32.9668 0.77435 31.0587 1.60993 29.2796C2.84253 26.7401 4.51714 24.4353 6.55707 22.4708C7.71219 21.3899 8.94795 20.3967 10.2538 19.4997C11.1726 18.843 12.0098 17.9926 12.9394 17.379C15.1341 15.9046 17.4468 14.6103 19.8545 13.5089C24.1722 11.553 28.6758 10.0277 33.2987 8.95537C33.3313 8.95537 33.3748 8.89078 33.5216 8.75622C29.1725 6.88311 24.383 6.89927 18.8053 9.58512C13.3689 12.2064 8.91646 16.2648 5.18165 21.4266C5.74105 19.7038 6.50766 18.0539 7.46494 16.5124C10.7102 10.8651 15.5257 6.25987 21.3386 3.24456C27.2371 0.203461 32.8095 -0.652361 37.974 0.477959C41.822 1.26155 45.2655 3.36857 47.6943 6.4256C47.7961 6.50499 47.9133 6.5627 48.0387 6.59512C48.1641 6.62754 48.2948 6.63396 48.4228 6.61399C49.9613 6.53864 79.2472 0.725561 80.7857 0.628676" fill="#4E84FF"/>
<path d="M36.1674 34.1287C36.1674 39.7469 31.7673 43.9216 26.1364 43.9216C20.5056 43.9216 16.1055 39.8978 16.1055 34.2795C16.1055 28.6613 20.5056 24.5352 26.1364 24.5352C31.7673 24.5352 36.1674 28.559 36.1674 34.1287ZM34.2723 34.1287C34.2723 29.4693 30.7163 26.2319 26.1637 26.2319C25.0852 26.2009 24.0116 26.3875 23.0085 26.7805C22.0054 27.1735 21.0938 27.7647 20.3294 28.5178C19.565 29.2709 18.9637 30.1702 18.5624 31.1609C18.161 32.1515 17.968 33.2127 17.9951 34.2795C17.9951 38.9874 21.6002 42.2248 26.1637 42.2248C27.2414 42.248 28.3126 42.0538 29.3121 41.6542C30.3115 41.2546 31.2182 40.6578 31.9768 39.9003C32.7355 39.1428 33.3303 38.2404 33.725 37.2481C34.1196 36.2559 34.3058 35.1945 34.2723 34.1287V34.1287Z" fill="white"/>
<path d="M38.875 29.7495H40.6666V32.125H40.7211C41.3423 31.2688 42.1657 30.5758 43.1196 30.1064C44.0735 29.6369 45.1289 29.4053 46.194 29.4317C51.0951 29.4317 53.6383 33.2023 53.6383 36.7414C53.6383 40.8675 50.4417 43.9325 46.145 43.9325C45.0723 43.9776 44.0077 43.7295 43.0682 43.2155C42.1287 42.7014 41.3505 41.9412 40.8191 41.0183H40.7701V48.4626H38.875V29.7495ZM40.6666 36.7521C40.6443 37.472 40.7703 38.1888 41.0371 38.859C41.3039 39.5291 41.7058 40.1385 42.2183 40.65C42.7309 41.1615 43.3434 41.5645 44.0184 41.8343C44.6935 42.1042 45.4171 42.2352 46.145 42.2195C47.605 42.1813 48.9926 41.5824 50.0139 40.5496C51.0352 39.5169 51.6099 38.1314 51.6162 36.6867C51.6226 35.2421 51.0601 33.8517 50.048 32.8102C49.0359 31.7687 47.6536 31.1578 46.194 31.107C42.9429 31.1123 40.6666 33.644 40.6666 36.7575V36.7521Z" fill="white"/>
<path d="M63.616 29.748V31.4448H58.2193V43.5916H56.3242V29.748H63.616Z" fill="white"/>
<path d="M65.4305 33.1386C65.6864 30.3807 68.0389 29.4219 69.934 29.4219C71.9816 29.4219 74.3342 30.4076 74.3342 33.0363C74.366 33.7379 74.1794 34.4323 73.7996 35.0256C73.4198 35.619 72.8651 36.0828 72.2104 36.3544C73.8441 36.7854 74.6936 38.1266 74.6936 39.7965C74.6936 42.1989 72.7495 43.9226 69.9068 43.9226C66.4052 43.9226 64.9458 41.8973 64.973 39.6133H66.8627C66.8627 41.1054 67.9518 42.2205 69.9068 42.2205C72.3901 42.2205 72.7985 40.5775 72.7985 39.8396C72.7985 38.7299 72.2866 37.3348 69.9068 37.3348H68.6543V35.638H69.9068C71.6222 35.638 72.4445 34.5284 72.4445 33.2841C72.4445 32.1475 71.6985 31.1294 70.0375 31.1294C68.3766 31.1294 67.5053 31.9913 67.3147 33.1548L65.4305 33.1386Z" fill="white"/>
<path d="M90.3531 41.8949H91.8125V47.1307H89.9338V43.5916H77.8389V47.1307H75.9492V41.8949H77.4087L82.8544 29.748H84.9019L90.3531 41.8949ZM88.3055 41.8949L83.8781 31.8488L79.4508 41.8949H88.3055Z" fill="white"/>
<path d="M93.6758 29.7495H95.462V32.125H95.5164C96.1376 31.2688 96.961 30.5758 97.9149 30.1064C98.8688 29.6369 99.9242 29.4053 100.989 29.4317C105.89 29.4317 108.434 33.2023 108.434 36.7414C108.434 40.8675 105.237 43.9325 100.94 43.9325C99.8682 43.9785 98.8041 43.7307 97.8653 43.2165C96.9265 42.7023 96.1494 41.9416 95.6199 41.0183H95.5654V48.4626H93.6758V29.7495ZM95.462 36.7521C95.4404 37.4718 95.567 38.1883 95.834 38.8581C96.1011 39.5279 96.503 40.1369 97.0154 40.6483C97.5278 41.1597 98.14 41.5627 98.8147 41.8328C99.4894 42.1029 100.213 42.2345 100.94 42.2195C102.4 42.1813 103.788 41.5824 104.809 40.5496C105.83 39.5169 106.405 38.1314 106.412 36.6867C106.418 35.2421 105.855 33.8517 104.843 32.8102C103.831 31.7687 102.449 31.1578 100.989 31.107C97.7437 31.1123 95.462 33.644 95.462 36.7575V36.7521Z" fill="white"/>
<path d="M125.371 43.5917H123.58V41.0061H123.531C122.956 41.917 122.152 42.6645 121.197 43.1754C120.243 43.6863 119.17 43.943 118.085 43.9202C117.099 43.9504 116.116 43.7817 115.198 43.4244C114.28 43.067 113.445 42.5284 112.744 41.8415C112.043 41.1546 111.49 40.3338 111.12 39.4289C110.75 38.524 110.57 37.5541 110.592 36.5783C110.583 35.6184 110.771 34.6666 111.145 33.7807C111.518 32.8947 112.07 32.0929 112.765 31.4237C113.461 30.7546 114.287 30.2319 115.193 29.8874C116.099 29.5429 117.066 29.3838 118.036 29.4195C119.113 29.3673 120.186 29.5925 121.149 30.0731C122.112 30.5537 122.933 31.2732 123.531 32.1613H123.58V29.7588H125.371V43.5917ZM112.476 36.7291C112.476 37.4545 112.622 38.1727 112.905 38.8421C113.187 39.5116 113.601 40.1192 114.122 40.6299C114.642 41.1405 115.26 41.5443 115.939 41.8178C116.619 42.0913 117.346 42.2291 118.079 42.2235C118.805 42.2263 119.524 42.0867 120.194 41.8126C120.864 41.5385 121.473 41.1355 121.985 40.6269C122.496 40.1182 122.901 39.5142 123.175 38.8497C123.448 38.1852 123.586 37.4736 123.58 36.7561C123.603 36.0204 123.476 35.2876 123.208 34.6012C122.939 33.9148 122.534 33.2888 122.016 32.7602C121.498 32.2317 120.879 31.8115 120.193 31.5245C119.508 31.2376 118.772 31.0897 118.028 31.0897C117.284 31.0897 116.547 31.2376 115.862 31.5245C115.177 31.8115 114.557 32.2317 114.039 32.7602C113.521 33.2888 113.116 33.9148 112.847 34.6012C112.579 35.2876 112.452 36.0204 112.476 36.7561V36.7291Z" fill="white"/>
<path d="M133.617 29.75C136.884 29.75 137.761 31.7754 137.761 33.4452C137.773 34.0517 137.601 34.6478 137.269 35.1573C136.936 35.6669 136.457 36.0666 135.893 36.3055C136.609 36.5041 137.234 36.9377 137.667 37.535C138.099 38.1323 138.313 38.8576 138.273 39.5913C138.273 41.746 136.737 43.5936 133.77 43.5936H128.602V29.75H133.617ZM130.497 35.643H133.503C134.984 35.643 135.882 34.7865 135.882 33.4452C135.882 31.4199 133.933 31.4468 133.503 31.4468H130.508L130.497 35.643ZM130.497 41.8968H133.568C135.79 41.8968 136.378 40.5825 136.378 39.6183C136.378 39.0365 136.204 37.3397 133.568 37.3397H130.497V41.8968Z" fill="white"/>
<path d="M26.0017 42.7143C30.6172 42.7143 34.3588 38.9727 34.3588 34.3571C34.3588 29.7416 30.6172 26 26.0017 26C21.3862 26 17.6445 29.7416 17.6445 34.3571C17.6445 38.9727 21.3862 42.7143 26.0017 42.7143Z" fill="white" fill-opacity="0.5"/>
<path d="M27.0815 40.2918C30.9277 40.2918 34.0458 37.1738 34.0458 33.3276C34.0458 29.4813 30.9277 26.3633 27.0815 26.3633C23.2352 26.3633 20.1172 29.4813 20.1172 33.3276C20.1172 37.1738 23.2352 40.2918 27.0815 40.2918Z" fill="#182543"/>
<path d="M60.5561 54.5101C61.5974 52.3809 63.6799 51.1523 66.2854 51.1523C70.6512 51.1523 72.7383 54.6256 72.7383 57.4845C72.7383 61.2395 69.848 63.8813 66.2013 63.8813C65.0274 63.8867 63.875 63.5696 62.8725 62.9653C61.87 62.361 61.0568 61.4934 60.5234 60.4589H62.0036C62.4503 61.1632 63.0698 61.7443 63.8046 62.1481C64.5393 62.5519 65.3654 62.7652 66.206 62.7682C67.5274 62.7846 68.8062 62.3055 69.785 61.4272C70.7639 60.549 71.3703 59.3367 71.4823 58.0341H64.2029V56.921H71.4589C71.3418 55.6422 70.7429 54.4536 69.7811 53.5912C68.8193 52.7288 67.5648 52.2556 66.2667 52.2654C65.4239 52.2365 64.5884 52.429 63.8453 52.8233C63.1022 53.2176 62.478 53.7996 62.0363 54.5101H60.5561Z" fill="white" fill-opacity="0.5"/>
<path d="M75.7148 63.6685V54.5744H76.9569V63.6685H75.7148ZM77.6806 59.0499L81.276 54.5605H82.7375L79.2075 58.9483L82.9709 63.6685H81.374L77.6806 59.0499Z" fill="white" fill-opacity="0.5"/>
<path d="M94.3447 61.0092C93.8889 62.0151 93.1003 62.8375 92.1087 63.3407C91.1171 63.8439 89.9818 63.998 88.8899 63.7774C87.7979 63.5569 86.8145 62.9749 86.1017 62.1275C85.389 61.2801 84.9894 60.2177 84.9688 59.1155C84.9699 58.4831 85.0983 57.8573 85.3466 57.2745C85.5949 56.6917 85.9581 56.1638 86.4149 55.7213C86.8718 55.2789 87.4131 54.9309 88.0074 54.6977C88.6017 54.4645 89.237 54.3507 89.8762 54.3629C90.8435 54.3377 91.7949 54.6103 92.5987 55.1432C93.4026 55.676 94.0193 56.4428 94.3634 57.3373H92.9626C92.6758 56.7725 92.2334 56.2994 91.6865 55.9725C91.1396 55.6457 90.5104 55.4784 89.8715 55.4899C89.3878 55.4798 88.907 55.5666 88.458 55.745C88.009 55.9233 87.6011 56.1896 87.2587 56.5278C86.9164 56.866 86.6467 57.2691 86.4658 57.713C86.2849 58.1569 86.1966 58.6324 86.2061 59.1109C86.2012 59.5906 86.2923 60.0664 86.4742 60.5111C86.6561 60.9558 86.9251 61.3605 87.2658 61.7018C87.6066 62.0431 88.0122 62.3144 88.4595 62.4999C88.9067 62.6854 89.3866 62.7815 89.8715 62.7827C90.4992 62.7917 91.1176 62.6329 91.6616 62.3232C92.2057 62.0135 92.6551 61.5643 92.9626 61.023L94.3447 61.0092Z" fill="white" fill-opacity="0.5"/>
<path d="M105.027 54.5742V63.6683H103.785V55.6873H98.6483V63.6683H97.4062V54.5742H105.027Z" fill="white" fill-opacity="0.5"/>
<path d="M109.295 59.5639C109.357 60.3331 109.675 61.0601 110.201 61.6303C110.727 62.2004 111.429 62.5812 112.198 62.7125C112.967 62.8438 113.758 62.7182 114.446 62.3555C115.135 61.9927 115.681 61.4135 116 60.7093H117.294C116.996 61.5256 116.478 62.2454 115.795 62.7903C115.112 63.3351 114.291 63.684 113.422 63.799C112.552 63.9139 111.667 63.7905 110.864 63.4422C110.06 63.0939 109.369 62.534 108.865 61.8237C108.361 61.1133 108.064 60.2797 108.006 59.4139C107.949 58.548 108.132 57.6831 108.538 56.9134C108.943 56.1438 109.554 55.499 110.304 55.0493C111.054 54.5996 111.915 54.3623 112.792 54.3633C116.271 54.3633 117.527 57.2222 117.513 59.5639H109.295ZM116.168 58.4508C116.056 57.6385 115.654 56.8925 115.035 56.3472C114.416 55.8018 113.621 55.493 112.792 55.4764C111.946 55.4768 111.128 55.777 110.487 56.3227C109.845 56.8684 109.422 57.6233 109.295 58.4508H116.168Z" fill="white" fill-opacity="0.5"/>
<path d="M120.484 54.5759H121.661V56.1416H121.694C122.1 55.5765 122.64 55.1187 123.267 54.8087C123.894 54.4986 124.588 54.3457 125.289 54.3634C125.933 54.3445 126.574 54.4553 127.174 54.6893C127.773 54.9233 128.318 55.2754 128.775 55.7244C129.233 56.1733 129.593 56.7096 129.834 57.3006C130.075 57.8916 130.192 58.525 130.178 59.1622C130.178 61.8733 128.077 63.8824 125.256 63.8824C124.553 63.912 123.854 63.7498 123.238 63.4134C122.621 63.077 122.109 62.5794 121.759 61.9749H121.726V66.8568H120.484V54.5759ZM121.661 59.1945C121.647 59.6668 121.73 60.137 121.905 60.5765C122.081 61.0161 122.345 61.4158 122.681 61.7514C123.017 62.087 123.419 62.3515 123.861 62.5289C124.304 62.7063 124.779 62.7928 125.256 62.7832C125.992 62.8015 126.717 62.6017 127.337 62.2094C127.957 61.8171 128.444 61.2503 128.736 60.5819C129.028 59.9134 129.111 59.1739 128.974 58.4585C128.837 57.7431 128.488 57.0844 127.969 56.5673C127.451 56.0501 126.789 55.6981 126.067 55.5565C125.345 55.415 124.596 55.4903 123.918 55.7728C123.24 56.0553 122.662 56.5321 122.26 57.1419C121.858 57.7517 121.649 58.4665 121.661 59.1945Z" fill="white" fill-opacity="0.5"/>
<path d="M138.276 54.5742V55.6873H135.909V63.6683H134.667V55.6873H132.309V54.5742H138.276Z" fill="white" fill-opacity="0.5"/>
</g>
<defs>
<linearGradient id="paint0_linear_1054:46221" x1="4.61246" y1="28.7937" x2="80.7765" y2="28.7937" gradientUnits="userSpaceOnUse">
<stop stop-color="#3C73ED"/>
<stop offset="1" stop-color="white" stop-opacity="0"/>
</linearGradient>
<clipPath id="clip0_1054:46221">
<rect width="143" height="65" fill="white"/>
</clipPath>
</defs>
</svg>
