<?xml version="1.0" encoding="UTF-8" standalone="no"?>
<svg
   width="203.17999"
   height="60.979988"
   enable-background="new 0 0 595.276 841.89"
   version="1.1"
   viewBox="0 0 203.17999 60.979987"
   xml:space="preserve"
   id="svg1903"
   sodipodi:docname="logo_b.svg"
   xmlns:inkscape="http://www.inkscape.org/namespaces/inkscape"
   xmlns:sodipodi="http://sodipodi.sourceforge.net/DTD/sodipodi-0.dtd"
   xmlns:xlink="http://www.w3.org/1999/xlink"
   xmlns="http://www.w3.org/2000/svg"
   xmlns:svg="http://www.w3.org/2000/svg"><defs
   id="defs1907" /><sodipodi:namedview
   id="namedview1905"
   pagecolor="#ffffff"
   bordercolor="#666666"
   borderopacity="1.0"
   inkscape:showpageshadow="2"
   inkscape:pageopacity="0.0"
   inkscape:pagecheckerboard="0"
   inkscape:deskcolor="#d1d1d1"
   showgrid="false" />
<g
   transform="translate(-228.38999,-425.935)"
   id="g1901">
	<defs
   id="defs960"><rect
     id="SVGID_1_"
     width="595.28003"
     height="841.89001"
     x="0"
     y="0" /></defs>
	<clipPath
   id="SVGID_2_">
		<use
   width="100%"
   height="100%"
   overflow="visible"
   xlink:href="#SVGID_1_"
   id="use962" />
	</clipPath>
	
	
	
	
	
	
	
	<g
   clip-path="url(#SVGID_2_)"
   id="g1433"
   inkscape:export-filename="g1433.svg"
   inkscape:export-xdpi="96"
   inkscape:export-ydpi="96">
		<defs
   id="defs1380"><path
     id="SVGID_29_"
     d="m 228.39,486.92 c 5.806,-5.884 11.088,-11.325 16.504,-16.63 0.84,-0.822 2.283,-1.417 3.461,-1.441 6.796,-0.136 21.904,-0.177 22.555,-0.224 -14.202,-14.26 -28.311,-28.425 -42.52,-42.69 z" /></defs>
		<clipPath
   id="SVGID_30_">
			<use
   width="100%"
   height="100%"
   overflow="visible"
   xlink:href="#SVGID_29_"
   id="use1382" />
		</clipPath>
		<defs
   id="defs1388"><filter
     id="Adobe_OpacityMaskFilter_4_"
     x="228.39"
     y="425.92999"
     width="42.52"
     height="60.985001"
     filterUnits="userSpaceOnUse">
				<feColorMatrix
   values="1 0 0 0 0  0 1 0 0 0  0 0 1 0 0  0 0 0 1 0"
   id="feColorMatrix1385" />
			</filter></defs>
		<mask
   id="SVGID_31_"
   x="228.393"
   y="425.933"
   width="42.52"
   height="60.985"
   maskUnits="userSpaceOnUse">
			<g
   filter="url(#Adobe_OpacityMaskFilter_4_)"
   id="g1405">
				
					<linearGradient
   id="SVGID_32_"
   x2="1"
   y1="841.89001"
   y2="841.89001"
   gradientTransform="matrix(0,-60.985,-60.985,0,51592,486.91)"
   gradientUnits="userSpaceOnUse">
					<stop
   stop-color="#fff"
   offset="0"
   id="stop1390" />
					<stop
   stop-color="#fff"
   offset=".006"
   id="stop1392" />
					<stop
   stop-color="#fff"
   offset=".4345"
   id="stop1394" />
					<stop
   stop-color="#FBFBFB"
   offset=".6725"
   id="stop1396" />
					<stop
   stop-color="#F0F0F0"
   offset=".8999"
   id="stop1398" />
					<stop
   stop-color="#E8E8E8"
   offset="1"
   id="stop1400" />
				</linearGradient>
				<rect
   x="228.39"
   y="425.92999"
   width="42.52"
   height="60.985001"
   clip-path="url(#SVGID_30_)"
   fill="url(#SVGID_32_)"
   id="rect1403" />
			</g>
		</mask>
		
			<linearGradient
   id="SVGID_33_"
   x1="-0.00048828"
   x2="0.99949998"
   y1="841.89001"
   y2="841.89001"
   gradientTransform="matrix(0,-60.985,-60.985,0,51592,486.91)"
   gradientUnits="userSpaceOnUse">
			<stop
   stop-color="#73B8E5"
   offset="0"
   id="stop1408" />
			<stop
   stop-color="#73B8E5"
   offset=".006"
   id="stop1410" />
			<stop
   stop-color="#222A44"
   offset=".4345"
   id="stop1412" />
			<stop
   stop-color="#232B45"
   offset=".5156"
   id="stop1414" />
			<stop
   stop-color="#28304B"
   offset=".5929"
   id="stop1416" />
			<stop
   stop-color="#313A56"
   offset=".6686"
   id="stop1418" />
			<stop
   stop-color="#404B66"
   offset=".7435"
   id="stop1420" />
			<stop
   stop-color="#566480"
   offset=".8176"
   id="stop1422" />
			<stop
   stop-color="#788AA4"
   offset=".8914"
   id="stop1424" />
			<stop
   stop-color="#A7BED7"
   offset=".9633"
   id="stop1426" />
			<stop
   stop-color="#C6E1F7"
   offset="1"
   id="stop1428" />
		</linearGradient>
		
			<rect
   x="228.39"
   y="425.92999"
   width="42.52"
   height="60.985001"
   clip-path="url(#SVGID_30_)"
   fill="url(#SVGID_33_)"
   mask="url(#SVGID_31_)"
   id="rect1431"
   style="fill:url(#SVGID_33_)" />
	</g>
	<g
   clip-path="url(#SVGID_2_)"
   id="g1483">
		<defs
   id="defs1436"><path
     id="SVGID_34_"
     d="m 262.76,447.65 c -0.588,0.171 -12.726,2.375 -12.726,2.375 0,0 -0.436,-0.675 -0.634,-0.632 -1.03,0.225 -2.019,0.445 -3.051,0.686 -0.535,0.127 -1.336,0.363 -1.633,0.482 -0.089,0.035 -0.043,0.097 0.021,0.173 0.114,0.136 0.297,0.339 0.399,0.481 -0.173,0.059 -0.273,0.095 -0.372,0.124 -2.094,0.628 -4.179,1.44 -6.228,2.623 -1.834,1.057 -3.637,2.192 -5.22,3.804 -1.143,1.162 -2.023,2.441 -2.43,3.896 -0.542,1.937 -0.114,3.398 0.904,4.498 1.54,1.661 3.727,2.164 6.386,1.695 3.413,-0.602 6.391,-2.606 8.903,-5.759 2.761,-3.467 3.837,-7.044 3.325,-10.517 -0.028,-0.187 -0.09,-0.268 -0.306,-0.211 -1.04,0.28 -1.555,0.399 -2.07,0.541 -0.542,0.15 -1.985,0.631 -2.139,0.694 0.059,0.756 0.208,1.514 0.162,2.254 -0.17,2.754 -1.44,5.256 -3.903,7.391 -0.541,0.469 -1.167,0.903 -1.77,1.161 -0.783,0.338 -1.562,0.394 -2.285,0.308 -2.06,-0.246 -2.853,-2.094 -1.863,-4.357 0.598,-1.364 1.585,-2.489 2.701,-3.506 1.597,-1.455 3.345,-2.554 5.15,-3.447 1.757,-0.869 3.512,-1.354 5.276,-1.827 l 13.834,-2.979 c -0.144,0.015 -0.285,0.008 -0.431,0.049" /></defs>
		<clipPath
   id="SVGID_35_">
			<use
   width="100%"
   height="100%"
   overflow="visible"
   xlink:href="#SVGID_34_"
   id="use1438" />
		</clipPath>
		<defs
   id="defs1444"><filter
     id="Adobe_OpacityMaskFilter_5_"
     x="230.34"
     y="447.60001"
     width="32.847"
     height="20.723"
     filterUnits="userSpaceOnUse">
				<feColorMatrix
   values="1 0 0 0 0  0 1 0 0 0  0 0 1 0 0  0 0 0 1 0"
   id="feColorMatrix1441" />
			</filter></defs>
		<mask
   id="SVGID_36_"
   x="230.344"
   y="447.601"
   width="32.847"
   height="20.723"
   maskUnits="userSpaceOnUse">
			<g
   filter="url(#Adobe_OpacityMaskFilter_5_)"
   id="g1467">
				
					<linearGradient
   id="SVGID_37_"
   x2="1"
   y1="841.89001"
   y2="841.89001"
   gradientTransform="matrix(32.541,0,0,-32.541,230.65,27854)"
   gradientUnits="userSpaceOnUse">
					<stop
   stop-color="#fff"
   offset="0"
   id="stop1446" />
					<stop
   stop-color="#FBFBFB"
   offset=".1194"
   id="stop1448" />
					<stop
   stop-color="#eee"
   offset=".2442"
   id="stop1450" />
					<stop
   stop-color="#D9D9D9"
   offset=".3716"
   id="stop1452" />
					<stop
   stop-color="#BCBCBC"
   offset=".5006"
   id="stop1454" />
					<stop
   stop-color="#969696"
   offset=".631"
   id="stop1456" />
					<stop
   stop-color="#686868"
   offset=".7626"
   id="stop1458" />
					<stop
   stop-color="#323232"
   offset=".8925"
   id="stop1460" />
					<stop
   offset="1"
   id="stop1462" />
				</linearGradient>
				<rect
   x="230.34"
   y="447.60001"
   width="32.847"
   height="20.723"
   clip-path="url(#SVGID_35_)"
   fill="url(#SVGID_37_)"
   id="rect1465" />
			</g>
		</mask>
		
			<linearGradient
   id="SVGID_38_"
   x2="1"
   y1="841.89001"
   y2="841.89001"
   gradientTransform="matrix(32.541,0,0,-32.541,230.65,27854)"
   gradientUnits="userSpaceOnUse">
			<stop
   stop-color="#1C86C4"
   offset="0"
   id="stop1470" />
			<stop
   stop-color="#2686C4"
   offset=".2599"
   id="stop1472" />
			<stop
   stop-color="#3886C4"
   offset=".5312"
   id="stop1474" />
			<stop
   stop-color="#4F86C4"
   offset=".8068"
   id="stop1476" />
			<stop
   stop-color="#6186C3"
   offset="1"
   id="stop1478" />
		</linearGradient>
		
			<rect
   x="230.34"
   y="447.60001"
   width="32.847"
   height="20.723"
   clip-path="url(#SVGID_35_)"
   fill="url(#SVGID_38_)"
   mask="url(#SVGID_36_)"
   id="rect1481"
   style="fill:url(#SVGID_38_)" />
	</g>
	<g
   clip-path="url(#SVGID_2_)"
   id="g1633">
		<defs
   id="defs1486"><rect
     id="SVGID_39_"
     width="595.28003"
     height="841.89001"
     x="0"
     y="0" /></defs>
		<clipPath
   id="SVGID_40_">
			<use
   width="100%"
   height="100%"
   overflow="visible"
   xlink:href="#SVGID_39_"
   id="use1488" />
		</clipPath>
		<path
   d="m 262.69,445.74 c -2.275,0.408 -16.352,3.395 -18.599,4.218 -2.431,0.89 -4.841,1.997 -7.183,3.485 -1.074,0.683 -2.151,1.4 -3.174,2.188 -0.616,0.473 -0.761,0.677 -1.126,1.033 -0.372,0.363 -0.743,0.731 -1.091,1.12 -0.806,0.902 -1.485,1.873 -1.928,2.945 -0.466,1.13 -0.552,2.044 -0.415,3.172 -0.117,-0.22 -0.267,-0.42 -0.343,-0.665 -0.264,-0.839 -0.498,-1.695 -0.383,-2.718 0.091,-0.808 0.262,-1.612 0.662,-2.449 0.526,-1.101 1.234,-2.077 2.127,-2.955 0.495,-0.486 1.044,-0.974 1.594,-1.372 0.395,-0.285 0.749,-0.572 1.149,-0.839 0.967,-0.646 1.953,-1.217 2.971,-1.682 1.93,-0.879 3.854,-1.524 5.778,-1.975 0.016,-0.004 0.033,-0.029 0.097,-0.087 -1.869,-0.814 -3.929,-0.807 -6.326,0.359 -2.344,1.14 -4.249,2.899 -5.854,5.132 0.218,-0.738 0.576,-1.442 0.981,-2.134 1.48,-2.527 3.474,-4.467 5.961,-5.76 2.537,-1.319 4.93,-1.691 7.152,-1.199 1.743,0.386 3.129,1.258 4.176,2.58 0.057,0.074 0.199,0.088 0.314,0.081 0.66,-0.031 13.247,-2.555 13.91,-2.597"
   clip-path="url(#SVGID_40_)"
   fill="#ffffff"
   id="path1491" /><g
   fill="#2090c9"
   id="g1507">
		<path
   d="m 342.03,451.84 c 1.278,-2.639 3.834,-4.164 7.028,-4.164 5.362,0 7.916,4.308 7.916,7.853 0,4.66 -3.545,7.938 -8.039,7.938 -2.987,0 -5.545,-1.587 -6.967,-4.246 h 1.813 c 1.217,1.958 3.319,2.865 5.153,2.865 3.278,0 6.185,-2.35 6.515,-5.875 h -8.945 v -1.381 h 8.945 c -0.371,-3.217 -2.906,-5.772 -6.41,-5.772 -2.041,0 -4.062,0.866 -5.196,2.783 h -1.813 z"
   clip-path="url(#SVGID_40_)"
   id="path1493" />
		<path
   d="m 359.66,451.92 h 1.524 v 11.276 h -1.524 z m 2.412,5.567 4.412,-5.566 h 1.793 l -4.328,5.442 4.616,5.834 h -1.959 z"
   clip-path="url(#SVGID_40_)"
   id="path1495" />
		<path
   d="m 381.55,459.9 c -0.765,1.67 -2.394,3.565 -5.484,3.565 -3.856,0 -6.021,-2.967 -6.021,-5.915 0,-2.7 2.082,-5.896 6.021,-5.896 2.617,0 4.617,1.464 5.504,3.689 h -1.711 c -1.133,-2.226 -3.278,-2.309 -3.793,-2.309 -2.618,0 -4.495,2 -4.495,4.494 0,2.577 2.042,4.556 4.495,4.556 1.546,0 2.988,-0.763 3.793,-2.186 h 1.691 z"
   clip-path="url(#SVGID_40_)"
   id="path1497" />
		<polygon
   points="384.33,463.2 384.33,451.92 393.69,451.92 393.69,463.2 392.16,463.2 392.16,453.3 385.85,453.3 385.85,463.2 "
   clip-path="url(#SVGID_40_)"
   id="polygon1499" />
		<path
   d="m 397.95,458.11 c 0.187,2.247 1.918,3.978 4.289,3.978 1.772,0 3.237,-1.009 3.938,-2.555 h 1.586 c -0.906,2.432 -2.969,3.937 -5.524,3.937 -3.319,0 -5.875,-2.515 -5.875,-5.896 0,-2.783 2.039,-5.916 5.875,-5.916 4.267,0 5.813,3.546 5.791,6.452 z m 8.433,-1.381 c -0.435,-2.288 -2.187,-3.69 -4.144,-3.69 -2.166,0 -3.918,1.545 -4.289,3.69 z"
   clip-path="url(#SVGID_40_)"
   id="path1501" />
		<path
   d="m 410.71,451.92 h 1.443 v 1.938 h 0.041 c 1.401,-1.958 3.381,-2.206 4.411,-2.206 3.957,0 5.998,3.093 5.998,5.957 0,3.361 -2.575,5.855 -6.039,5.855 -2.741,0 -3.896,-1.711 -4.288,-2.37 h -0.041 v 6.06 h -1.525 z m 1.443,5.71 c 0,2.495 1.834,4.453 4.411,4.453 2.494,0 4.515,-1.938 4.515,-4.494 0,-2.556 -1.957,-4.556 -4.474,-4.556 -2.618,10e-4 -4.452,2.062 -4.452,4.597"
   clip-path="url(#SVGID_40_)"
   id="path1503" />
		<polygon
   points="424.23,453.3 424.23,451.92 431.57,451.92 431.57,453.3 428.67,453.3 428.67,463.2 427.14,463.2 427.14,453.3 "
   clip-path="url(#SVGID_40_)"
   id="polygon1505" /></g><g
   fill="#ffffff"
   id="g1631">
		<polygon
   points="251.97,477.82 251.97,474.11 254.63,474.11 254.63,477.82 254.26,477.82 254.26,474.45 252.34,474.45 252.34,477.82 "
   clip-path="url(#SVGID_40_)"
   id="polygon1509"
   transform="matrix(1.3782285,0,0,1.3782285,-95.302239,-179.32192)" />
		<path
   d="m 258.47,476.45 c 0,0.814 -0.627,1.431 -1.432,1.431 -0.806,0 -1.431,-0.616 -1.431,-1.431 0,-0.816 0.621,-1.438 1.431,-1.438 0.811,0 1.432,0.621 1.432,1.438 m -2.494,0 c 0,0.62 0.447,1.096 1.062,1.096 0.616,0 1.061,-0.476 1.061,-1.096 0,-0.621 -0.445,-1.103 -1.061,-1.103 -0.615,0 -1.062,0.482 -1.062,1.103"
   clip-path="url(#SVGID_40_)"
   id="path1511"
   transform="matrix(1.3782285,0,0,1.3782285,-95.302239,-179.32192)" />
		<path
   d="m 259.38,475.08 h 0.35 v 0.471 h 0.01 c 0.34,-0.477 0.82,-0.535 1.072,-0.535 0.961,0 1.455,0.751 1.455,1.446 0,0.815 -0.625,1.421 -1.467,1.421 -0.664,0 -0.945,-0.415 -1.041,-0.575 h -0.009 v 1.472 h -0.37 z m 0.35,1.386 c 0,0.604 0.445,1.081 1.07,1.081 0.606,0 1.098,-0.471 1.098,-1.091 0,-0.621 -0.477,-1.106 -1.086,-1.106 -0.637,0 -1.082,0.501 -1.082,1.116"
   clip-path="url(#SVGID_40_)"
   id="path1513"
   transform="matrix(1.3782285,0,0,1.3782285,-95.302239,-179.32192)" />
		<polygon
   points="262.93,475.08 264.71,475.08 264.71,475.41 264,475.41 264,477.82 263.63,477.82 263.63,475.41 262.93,475.41 "
   clip-path="url(#SVGID_40_)"
   id="polygon1515"
   transform="matrix(1.3782285,0,0,1.3782285,-95.302239,-179.32192)" />
		<path
   d="m 268.27,477.81 h -0.349 v -0.51 h -0.012 c -0.154,0.235 -0.469,0.575 -1.064,0.575 -0.823,0 -1.467,-0.601 -1.467,-1.451 0,-0.651 0.474,-1.416 1.457,-1.416 0.234,0 0.744,0.035 1.074,0.54 h 0.012 v -0.476 h 0.349 z m -2.523,-1.356 c 0,0.626 0.512,1.086 1.098,1.086 0.599,0 1.076,-0.481 1.076,-1.081 0,-0.62 -0.467,-1.116 -1.086,-1.116 -0.596,0 -1.088,0.476 -1.088,1.111"
   clip-path="url(#SVGID_40_)"
   id="path1517"
   transform="matrix(1.3782285,0,0,1.3782285,-95.302239,-179.32192)" />
		<polygon
   points="271.74,477.82 271.34,477.82 270.38,475.55 269.42,477.82 269.01,477.82 270.18,475.08 270.57,475.08 "
   clip-path="url(#SVGID_40_)"
   id="polygon1519"
   transform="matrix(1.3782285,0,0,1.3782285,-95.302239,-179.32192)" />
		<path
   d="m 276.6,477.48 h 0.286 v 1.036 h -0.372 v -0.7 h -2.361 v 0.7 h -0.371 v -1.036 h 0.285 l 1.067,-2.402 h 0.4 z m -0.4,0 -0.865,-1.986 -0.867,1.986 z"
   clip-path="url(#SVGID_40_)"
   id="path1521"
   transform="matrix(1.3782285,0,0,1.3782285,-95.302239,-179.32192)" />
		<polygon
   points="280.09,477.82 279.69,477.82 278.73,475.55 277.76,477.82 277.36,477.82 278.53,475.08 278.92,475.08 "
   clip-path="url(#SVGID_40_)"
   id="polygon1523"
   transform="matrix(1.3782285,0,0,1.3782285,-95.302239,-179.32192)" />
		<path
   d="m 282.8,477.82 h -0.369 v -2.402 h -0.736 c -0.081,0 -0.641,0.005 -0.641,0.585 0,0.306 0.18,0.551 0.641,0.551 h 0.375 l -0.911,1.267 h -0.425 l 0.746,-0.978 c -0.471,-0.033 -0.797,-0.384 -0.797,-0.859 0,-0.466 0.355,-0.901 1.012,-0.901 h 1.105 z"
   clip-path="url(#SVGID_40_)"
   id="path1525"
   transform="matrix(1.3782285,0,0,1.3782285,-95.302239,-179.32192)" />
		<path
   d="m 285.39,475.08 h 0.35 v 0.471 h 0.01 c 0.34,-0.477 0.82,-0.535 1.072,-0.535 0.961,0 1.455,0.751 1.455,1.446 0,0.815 -0.625,1.421 -1.467,1.421 -0.664,0 -0.945,-0.415 -1.041,-0.575 h -0.009 v 1.472 h -0.37 z m 0.35,1.386 c 0,0.604 0.445,1.081 1.07,1.081 0.606,0 1.098,-0.471 1.098,-1.091 0,-0.621 -0.477,-1.106 -1.086,-1.106 -0.637,0 -1.082,0.501 -1.082,1.116"
   clip-path="url(#SVGID_40_)"
   id="path1527"
   transform="matrix(1.3782285,0,0,1.3782285,-95.302239,-179.32192)" />
		<polygon
   points="291.13,475.08 291.53,475.08 289.94,478.78 289.55,478.78 290,477.69 288.93,475.08 289.37,475.08 290.23,477.21 "
   clip-path="url(#SVGID_40_)"
   id="polygon1529"
   transform="matrix(1.3782285,0,0,1.3782285,-95.302239,-179.32192)" />
		<path
   d="m 292.27,475.08 h 0.371 v 2.738 h -0.371 z m 0.586,1.352 1.07,-1.353 h 0.436 l -1.051,1.322 1.121,1.417 h -0.474 z"
   clip-path="url(#SVGID_40_)"
   id="path1531"
   transform="matrix(1.3782285,0,0,1.3782285,-95.302239,-179.32192)" />
		<path
   d="m 297.92,476.45 c 0,0.814 -0.627,1.431 -1.432,1.431 -0.806,0 -1.431,-0.616 -1.431,-1.431 0,-0.816 0.621,-1.438 1.431,-1.438 0.812,0 1.432,0.621 1.432,1.438 m -2.494,0 c 0,0.62 0.447,1.096 1.062,1.096 0.616,0 1.062,-0.476 1.062,-1.096 0,-0.621 -0.445,-1.103 -1.062,-1.103 -0.615,0 -1.062,0.482 -1.062,1.103"
   clip-path="url(#SVGID_40_)"
   id="path1533"
   transform="matrix(1.3782285,0,0,1.3782285,-95.302239,-179.32192)" />
		<path
   d="m 299.81,475.08 c 0.642,0 0.812,0.4 0.812,0.731 0,0.26 -0.146,0.47 -0.365,0.565 0.279,0.075 0.464,0.33 0.464,0.65 0,0.426 -0.298,0.791 -0.88,0.791 h -1.01 v -2.738 h 0.979 z m -0.61,1.167 h 0.586 c 0.291,0 0.465,-0.171 0.465,-0.436 0,-0.4 -0.379,-0.396 -0.465,-0.396 H 299.2 Z m 0,1.235 h 0.602 c 0.435,0 0.55,-0.26 0.55,-0.45 0,-0.115 -0.035,-0.45 -0.55,-0.45 H 299.2 Z"
   clip-path="url(#SVGID_40_)"
   id="path1535"
   transform="matrix(1.3782285,0,0,1.3782285,-95.302239,-179.32192)" />
		<path
   d="m 304.39,476.45 c 0,0.814 -0.627,1.431 -1.432,1.431 -0.806,0 -1.431,-0.616 -1.431,-1.431 0,-0.816 0.621,-1.438 1.431,-1.438 0.812,0 1.432,0.621 1.432,1.438 m -2.493,0 c 0,0.62 0.446,1.096 1.062,1.096 0.616,0 1.062,-0.476 1.062,-1.096 0,-0.621 -0.445,-1.103 -1.062,-1.103 -0.616,0 -1.062,0.482 -1.062,1.103"
   clip-path="url(#SVGID_40_)"
   id="path1537"
   transform="matrix(1.3782285,0,0,1.3782285,-95.302239,-179.32192)" />
		<path
   d="m 307.85,477.48 h 0.286 v 1.036 h -0.372 v -0.7 h -2.363 v 0.7 h -0.368 v -1.036 h 0.284 l 1.067,-2.402 h 0.4 z m -0.4,0 -0.867,-1.986 -0.865,1.986 z"
   clip-path="url(#SVGID_40_)"
   id="path1539"
   transform="matrix(1.3782285,0,0,1.3782285,-95.302239,-179.32192)" />
		<polygon
   points="309.26,477.82 308.89,477.82 308.89,475.08 309.26,475.08 309.26,477.29 310.9,475.08 311.27,475.08 311.27,477.82 310.9,477.82 310.9,475.6 "
   clip-path="url(#SVGID_40_)"
   id="polygon1541"
   transform="matrix(1.3782285,0,0,1.3782285,-95.302239,-179.32192)" />
		<polygon
   points="312.03,475.08 313.82,475.08 313.82,475.41 313.11,475.41 313.11,477.82 312.74,477.82 312.74,475.41 312.03,475.41 "
   clip-path="url(#SVGID_40_)"
   id="polygon1543"
   transform="matrix(1.3782285,0,0,1.3782285,-95.302239,-179.32192)" />
		<path
   d="m 314.86,476.58 c 0.045,0.546 0.466,0.966 1.041,0.966 0.433,0 0.785,-0.245 0.957,-0.62 h 0.386 c -0.222,0.59 -0.722,0.955 -1.343,0.955 -0.805,0 -1.426,-0.61 -1.426,-1.431 0,-0.676 0.496,-1.437 1.426,-1.437 1.037,0 1.412,0.86 1.406,1.566 h -2.447 z m 2.048,-0.335 c -0.105,-0.556 -0.529,-0.896 -1.007,-0.896 -0.524,0 -0.95,0.375 -1.041,0.896 z"
   clip-path="url(#SVGID_40_)"
   id="path1545"
   transform="matrix(1.3782285,0,0,1.3782285,-95.302239,-179.32192)" />
		<polygon
   points="320.68,477.82 320.28,477.82 319.32,475.55 318.35,477.82 317.95,477.82 319.12,475.08 319.51,475.08 "
   clip-path="url(#SVGID_40_)"
   id="polygon1547"
   transform="matrix(1.3782285,0,0,1.3782285,-95.302239,-179.32192)" />
		<path
   d="m 321.7,476.58 c 0.046,0.546 0.466,0.966 1.041,0.966 0.433,0 0.785,-0.245 0.957,-0.62 h 0.386 c -0.222,0.59 -0.722,0.955 -1.343,0.955 -0.805,0 -1.426,-0.61 -1.426,-1.431 0,-0.676 0.496,-1.437 1.426,-1.437 1.037,0 1.412,0.86 1.406,1.566 H 321.7 Z m 2.048,-0.335 c -0.105,-0.556 -0.529,-0.896 -1.007,-0.896 -0.524,0 -0.95,0.375 -1.041,0.896 z"
   clip-path="url(#SVGID_40_)"
   id="path1549"
   transform="matrix(1.3782285,0,0,1.3782285,-95.302239,-179.32192)" />
		<path
   d="m 325.44,475.08 v 2.213 l 1.633,-2.213 h 0.369 v 2.738 h -0.369 v -2.212 l -1.633,2.212 h -0.369 v -2.738 z m 0.372,-0.966 c 0.039,0.235 0.239,0.346 0.444,0.346 0.205,0 0.407,-0.11 0.446,-0.346 h 0.314 c -0.05,0.28 -0.261,0.631 -0.761,0.631 -0.5,0 -0.711,-0.351 -0.761,-0.631 z"
   clip-path="url(#SVGID_40_)"
   id="path1551"
   transform="matrix(1.3782285,0,0,1.3782285,-95.302239,-179.32192)" />
		<path
   d="m 330,475.75 c 0.049,-0.545 0.51,-0.735 0.881,-0.735 0.399,0 0.86,0.195 0.86,0.715 0,0.276 -0.137,0.546 -0.416,0.656 0.32,0.085 0.485,0.351 0.485,0.68 0,0.477 -0.379,0.816 -0.936,0.816 -0.687,0 -0.972,-0.401 -0.966,-0.851 h 0.369 c 0,0.296 0.211,0.516 0.597,0.516 0.485,0 0.565,-0.325 0.565,-0.471 0,-0.221 -0.099,-0.495 -0.565,-0.495 h -0.244 v -0.335 h 0.244 c 0.336,0 0.495,-0.221 0.495,-0.466 0,-0.226 -0.144,-0.431 -0.471,-0.431 -0.32,0 -0.496,0.17 -0.531,0.4 H 330 Z"
   clip-path="url(#SVGID_40_)"
   id="path1553"
   transform="matrix(1.3782285,0,0,1.3782285,-95.302239,-179.32192)" />
		<path
   d="m 335.27,477.48 h 0.286 v 1.036 h -0.372 v -0.7 h -2.363 v 0.7 h -0.368 v -1.036 h 0.284 l 1.067,-2.402 h 0.4 z m -0.399,0 -0.867,-1.986 -0.865,1.986 z"
   clip-path="url(#SVGID_40_)"
   id="path1555"
   transform="matrix(1.3782285,0,0,1.3782285,-95.302239,-179.32192)" />
		<path
   d="m 336.31,475.08 h 0.353 v 0.471 h 0.01 c 0.34,-0.477 0.819,-0.535 1.069,-0.535 0.962,0 1.457,0.751 1.457,1.446 0,0.815 -0.627,1.421 -1.467,1.421 -0.666,0 -0.944,-0.415 -1.041,-0.575 h -0.009 v 1.472 h -0.372 z m 0.352,1.386 c 0,0.604 0.444,1.081 1.069,1.081 0.606,0 1.097,-0.471 1.097,-1.091 0,-0.621 -0.476,-1.106 -1.087,-1.106 -0.635,0 -1.079,0.501 -1.079,1.116"
   clip-path="url(#SVGID_40_)"
   id="path1557"
   transform="matrix(1.3782285,0,0,1.3782285,-95.302239,-179.32192)" />
		<path
   d="m 342.9,477.81 h -0.349 v -0.51 h -0.011 c -0.153,0.235 -0.471,0.575 -1.065,0.575 -0.821,0 -1.467,-0.601 -1.467,-1.451 0,-0.651 0.476,-1.416 1.457,-1.416 0.233,0 0.746,0.035 1.075,0.54 h 0.011 v -0.476 h 0.349 z m -2.52,-1.356 c 0,0.626 0.51,1.086 1.096,1.086 0.601,0 1.076,-0.481 1.076,-1.081 0,-0.62 -0.465,-1.116 -1.086,-1.116 -0.597,0 -1.086,0.476 -1.086,1.111"
   clip-path="url(#SVGID_40_)"
   id="path1559"
   transform="matrix(1.3782285,0,0,1.3782285,-95.302239,-179.32192)" />
		<path
   d="m 344.91,475.08 c 0.642,0 0.812,0.4 0.812,0.731 0,0.26 -0.146,0.47 -0.365,0.565 0.279,0.075 0.464,0.33 0.464,0.65 0,0.426 -0.298,0.791 -0.88,0.791 h -1.01 v -2.738 h 0.979 z m -0.61,1.167 h 0.586 c 0.291,0 0.465,-0.171 0.465,-0.436 0,-0.4 -0.379,-0.396 -0.465,-0.396 H 344.3 Z m 0,1.235 h 0.602 c 0.435,0 0.55,-0.26 0.55,-0.45 0,-0.115 -0.035,-0.45 -0.55,-0.45 H 344.3 Z"
   clip-path="url(#SVGID_40_)"
   id="path1561"
   transform="matrix(1.3782285,0,0,1.3782285,-95.302239,-179.32192)" />
		<path
   d="m 349.48,476.45 c 0,0.814 -0.625,1.431 -1.431,1.431 -0.805,0 -1.432,-0.616 -1.432,-1.431 0,-0.816 0.621,-1.438 1.432,-1.438 0.81,0 1.431,0.621 1.431,1.438 m -2.491,0 c 0,0.62 0.444,1.096 1.061,1.096 0.615,0 1.06,-0.476 1.06,-1.096 0,-0.621 -0.444,-1.103 -1.06,-1.103 -0.616,0 -1.061,0.482 -1.061,1.103"
   clip-path="url(#SVGID_40_)"
   id="path1563"
   transform="matrix(1.3782285,0,0,1.3782285,-95.302239,-179.32192)" />
		<path
   d="m 353.15,476.45 c 0,0.814 -0.625,1.431 -1.431,1.431 -0.805,0 -1.432,-0.616 -1.432,-1.431 0,-0.816 0.621,-1.438 1.432,-1.438 0.81,0 1.431,0.621 1.431,1.438 m -2.491,0 c 0,0.62 0.444,1.096 1.061,1.096 0.615,0 1.06,-0.476 1.06,-1.096 0,-0.621 -0.444,-1.103 -1.06,-1.103 -0.616,0 -1.061,0.482 -1.061,1.103"
   clip-path="url(#SVGID_40_)"
   id="path1565"
   transform="matrix(1.3782285,0,0,1.3782285,-95.302239,-179.32192)" />
		<polygon
   points="356.11,477.82 355.67,477.82 354.95,476.72 354.22,477.82 353.79,477.82 354.72,476.42 353.79,475.08 354.22,475.08 354.95,476.13 355.67,475.08 356.11,475.08 355.17,476.42 "
   clip-path="url(#SVGID_40_)"
   id="polygon1567"
   transform="matrix(1.3782285,0,0,1.3782285,-95.302239,-179.32192)" />
		<path
   d="m 356.86,475.08 h 0.353 v 0.471 h 0.01 c 0.34,-0.477 0.82,-0.535 1.07,-0.535 0.961,0 1.456,0.751 1.456,1.446 0,0.815 -0.627,1.421 -1.467,1.421 -0.666,0 -0.944,-0.415 -1.041,-0.575 h -0.009 v 1.472 h -0.372 z m 0.353,1.386 c 0,0.604 0.444,1.081 1.069,1.081 0.606,0 1.097,-0.471 1.097,-1.091 0,-0.621 -0.476,-1.106 -1.086,-1.106 -0.636,0 -1.08,0.501 -1.08,1.116"
   clip-path="url(#SVGID_40_)"
   id="path1569"
   transform="matrix(1.3782285,0,0,1.3782285,-95.302239,-179.32192)" />
		<path
   d="m 363.45,477.81 h -0.349 v -0.51 h -0.011 c -0.153,0.235 -0.471,0.575 -1.065,0.575 -0.821,0 -1.467,-0.601 -1.467,-1.451 0,-0.651 0.476,-1.416 1.457,-1.416 0.233,0 0.746,0.035 1.075,0.54 h 0.011 v -0.476 h 0.349 z m -2.52,-1.356 c 0,0.626 0.51,1.086 1.096,1.086 0.601,0 1.076,-0.481 1.076,-1.081 0,-0.62 -0.465,-1.116 -1.086,-1.116 -0.597,0 -1.086,0.476 -1.086,1.111"
   clip-path="url(#SVGID_40_)"
   id="path1571"
   transform="matrix(1.3782285,0,0,1.3782285,-95.302239,-179.32192)" />
		<polygon
   points="366.37,476.58 364.84,476.58 364.84,477.82 364.47,477.82 364.47,475.08 364.84,475.08 364.84,476.24 366.37,476.24 366.37,475.08 366.74,475.08 366.74,477.82 366.37,477.82 "
   clip-path="url(#SVGID_40_)"
   id="polygon1573"
   transform="matrix(1.3782285,0,0,1.3782285,-95.302239,-179.32192)" />
		<path
   d="m 368.05,476.58 c 0.045,0.546 0.466,0.966 1.041,0.966 0.433,0 0.785,-0.245 0.957,-0.62 h 0.386 c -0.222,0.59 -0.722,0.955 -1.343,0.955 -0.805,0 -1.426,-0.61 -1.426,-1.431 0,-0.676 0.496,-1.437 1.426,-1.437 1.037,0 1.412,0.86 1.406,1.566 h -2.447 z m 2.048,-0.335 c -0.105,-0.556 -0.529,-0.896 -1.007,-0.896 -0.524,0 -0.95,0.375 -1.041,0.896 z"
   clip-path="url(#SVGID_40_)"
   id="path1575"
   transform="matrix(1.3782285,0,0,1.3782285,-95.302239,-179.32192)" />
		<polygon
   points="373.31,476.58 371.78,476.58 371.78,477.82 371.41,477.82 371.41,475.08 371.78,475.08 371.78,476.24 373.31,476.24 373.31,475.08 373.69,475.08 373.69,477.82 373.31,477.82 "
   clip-path="url(#SVGID_40_)"
   id="polygon1577"
   transform="matrix(1.3782285,0,0,1.3782285,-95.302239,-179.32192)" />
		<polygon
   points="375.08,477.82 374.71,477.82 374.71,475.08 375.08,475.08 375.08,477.29 376.71,475.08 377.08,475.08 377.08,477.82 376.71,477.82 376.71,475.6 "
   clip-path="url(#SVGID_40_)"
   id="polygon1579"
   transform="matrix(1.3782285,0,0,1.3782285,-95.302239,-179.32192)" />
		<path
   d="m 380.08,477.82 h -0.371 v -2.402 h -0.736 c -0.08,0 -0.641,0.005 -0.641,0.585 0,0.306 0.182,0.551 0.641,0.551 h 0.377 l -0.913,1.267 h -0.425 l 0.746,-0.978 c -0.471,-0.033 -0.795,-0.384 -0.795,-0.859 0,-0.466 0.354,-0.901 1.01,-0.901 h 1.107 z"
   clip-path="url(#SVGID_40_)"
   id="path1581"
   transform="matrix(1.3782285,0,0,1.3782285,-95.302239,-179.32192)" />
		<path
   d="m 252.5,451.92 h 1.443 v 1.938 h 0.041 c 1.4,-1.959 3.381,-2.206 4.41,-2.206 3.959,0 6,3.093 6,5.957 0,3.36 -2.578,5.855 -6.041,5.855 -2.742,0 -3.896,-1.711 -4.287,-2.37 h -0.041 v 6.06 H 252.5 Z m 1.443,5.709 c 0,2.494 1.834,4.452 4.41,4.452 2.494,0 4.516,-1.938 4.516,-4.494 0,-2.556 -1.959,-4.555 -4.475,-4.555 -2.617,0.001 -4.451,2.061 -4.451,4.597"
   clip-path="url(#SVGID_40_)"
   id="path1583" />
		<polygon
   points="272.94,451.92 272.94,453.3 268.59,453.3 268.59,463.19 267.07,463.19 267.07,451.92 "
   clip-path="url(#SVGID_40_)"
   id="polygon1585" />
		<path
   d="m 279.42,447.67 c 3.154,0 4.393,2.103 4.393,4.103 0,1.855 -1.114,2.906 -2.311,3.442 1.773,0.454 2.723,2.02 2.723,3.835 0,2.226 -1.547,4.411 -4.928,4.411 -3.463,0 -5.133,-2.434 -4.969,-4.927 h 1.526 c -0.061,1.772 0.97,3.545 3.443,3.545 2.268,0 3.402,-1.318 3.402,-2.988 0,-1.629 -1.011,-3.092 -3.547,-3.092 h -0.906 v -1.382 h 0.906 c 2.557,0 3.133,-1.67 3.133,-2.865 0,-1.113 -0.658,-2.7 -2.844,-2.7 -2,0 -2.927,1.401 -2.886,2.865 h -1.526 c -0.061,-2.123 1.28,-4.247 4.391,-4.247"
   clip-path="url(#SVGID_40_)"
   id="path1587" />
		<path
   d="m 297.16,461.81 h 1.176 v 4.268 h -1.524 v -2.887 h -9.731 v 2.887 h -1.525 v -4.268 h 1.174 l 4.392,-9.896 h 1.649 z m -1.648,0 -3.566,-8.185 -3.567,8.185 z"
   clip-path="url(#SVGID_40_)"
   id="path1589" />
		<path
   d="m 300.36,451.92 h 1.443 v 1.938 h 0.041 c 1.401,-1.959 3.381,-2.206 4.411,-2.206 3.957,0 5.998,3.093 5.998,5.957 0,3.36 -2.575,5.855 -6.039,5.855 -2.741,0 -3.896,-1.711 -4.288,-2.37 h -0.041 v 6.06 h -1.525 z m 1.444,5.709 c 0,2.494 1.834,4.452 4.411,4.452 2.494,0 4.515,-1.938 4.515,-4.494 0,-2.556 -1.957,-4.555 -4.474,-4.555 -2.618,0.001 -4.452,2.061 -4.452,4.597"
   clip-path="url(#SVGID_40_)"
   id="path1591" />
		<path
   d="m 326.41,463.19 h -1.444 v -2.103 h -0.041 c -0.638,0.97 -1.937,2.37 -4.39,2.37 -3.381,0 -6.039,-2.473 -6.039,-5.978 0,-2.68 1.957,-5.833 5.998,-5.833 0.968,0 3.072,0.144 4.431,2.226 h 0.041 v -1.958 h 1.444 z m -10.389,-5.586 c 0,2.576 2.102,4.473 4.514,4.473 2.474,0 4.431,-1.979 4.431,-4.452 0,-2.556 -1.916,-4.597 -4.472,-4.597 -2.453,0 -4.473,1.958 -4.473,4.576"
   clip-path="url(#SVGID_40_)"
   id="path1593" />
		<path
   d="m 333.56,451.92 c 2.638,0 3.34,1.649 3.34,3.011 0,1.072 -0.598,1.938 -1.504,2.329 1.154,0.31 1.916,1.36 1.916,2.68 0,1.753 -1.237,3.257 -3.627,3.257 h -4.164 v -11.276 h 4.039 z m -2.514,4.803 h 2.411 c 1.195,0 1.916,-0.701 1.916,-1.793 0,-1.649 -1.565,-1.629 -1.916,-1.629 h -2.411 z m 0,5.092 h 2.473 c 1.795,0 2.267,-1.072 2.267,-1.855 0,-0.474 -0.144,-1.855 -2.267,-1.855 h -2.473 z"
   clip-path="url(#SVGID_40_)"
   id="path1595" />
		
		
		
		
		
		
		
		
		
		
		
		
		
		
		
		
		
	</g></g>
	
	
	
	
	
	
</g>
</svg>
