<?xml version="1.0" encoding="UTF-8"?>
<svg width="500" height="150.08" enable-background="new 0 0 595.276 841.89" version="1.1" viewBox="0 0 500 150.08" xml:space="preserve" xmlns="http://www.w3.org/2000/svg" xmlns:xlink="http://www.w3.org/1999/xlink">
<g transform="translate(-24.529 -518.51)">
	<defs>
		<rect id="SVGID_1_" width="595.28" height="841.89"/>
	</defs>
	<g clip-path="url(#SVGID_2_)">
		<defs>
			<rect id="SVGID_51_" width="595.28" height="841.89"/>
		</defs>
		<clipPath id="SVGID_52_">
			<use width="100%" height="100%" overflow="visible" xlink:href="#SVGID_51_"/>
		</clipPath>
		<g transform="matrix(2.4609 0 0 2.4609 -537.52 -908.07)"><g clip-path="url(#SVGID_2_)">
		<defs>
			<path id="SVGID_41_" d="m228.39 640.69c5.806-5.884 11.088-11.326 16.504-16.63 0.84-0.823 2.283-1.419 3.461-1.442 6.796-0.135 21.904-0.177 22.555-0.224-14.202-14.258-28.311-28.423-42.52-42.689z"/>
		</defs>
		<clipPath id="SVGID_42_">
			<use width="100%" height="100%" overflow="visible" xlink:href="#SVGID_41_"/>
		</clipPath>
		<defs>
			<filter id="Adobe_OpacityMaskFilter_6_" x="228.39" y="579.7" width="42.52" height="60.985" filterUnits="userSpaceOnUse">
				<feColorMatrix values="1 0 0 0 0  0 1 0 0 0  0 0 1 0 0  0 0 0 1 0"/>
			</filter>
		</defs>
		<mask id="SVGID_43_" x="228.393" y="579.703" width="42.52" height="60.985" maskUnits="userSpaceOnUse">
			<g filter="url(#Adobe_OpacityMaskFilter_6_)">
				
					<linearGradient id="SVGID_44_" x2="1" y1="841.89" y2="841.89" gradientTransform="matrix(0 -60.985 -60.985 0 51592 640.69)" gradientUnits="userSpaceOnUse">
					<stop stop-color="#fff" offset="0"/>
					<stop stop-color="#fff" offset=".006"/>
					<stop stop-color="#fff" offset=".4345"/>
					<stop stop-color="#FBFBFB" offset=".6725"/>
					<stop stop-color="#F0F0F0" offset=".8999"/>
					<stop stop-color="#E8E8E8" offset="1"/>
				</linearGradient>
				<rect x="228.39" y="579.7" width="42.52" height="60.986" clip-path="url(#SVGID_42_)" fill="url(#SVGID_44_)"/>
			</g>
		</mask>
		
			<linearGradient id="SVGID_45_" x2="1" y1="841.89" y2="841.89" gradientTransform="matrix(0 -60.985 -60.985 0 51592 640.69)" gradientUnits="userSpaceOnUse">
			<stop stop-color="#73B8E5" offset="0"/>
			<stop stop-color="#73B8E5" offset=".006"/>
			<stop stop-color="#222A44" offset=".4345"/>
			<stop stop-color="#232B45" offset=".5156"/>
			<stop stop-color="#28304B" offset=".5929"/>
			<stop stop-color="#313A56" offset=".6686"/>
			<stop stop-color="#404B66" offset=".7435"/>
			<stop stop-color="#566480" offset=".8176"/>
			<stop stop-color="#788AA4" offset=".8914"/>
			<stop stop-color="#A7BED7" offset=".9633"/>
			<stop stop-color="#C6E1F7" offset="1"/>
		</linearGradient>
		
			<rect x="228.39" y="579.7" width="42.52" height="60.985" clip-path="url(#SVGID_42_)" fill="url(#SVGID_45_)" mask="url(#SVGID_43_)"/>
	</g><g clip-path="url(#SVGID_2_)">
		<defs>
			<path id="SVGID_46_" d="m262.76 601.42c-0.588 0.17-12.726 2.375-12.726 2.375s-0.436-0.676-0.634-0.632c-1.03 0.224-2.019 0.443-3.051 0.686-0.535 0.125-1.336 0.364-1.633 0.483-0.089 0.034-0.043 0.096 0.021 0.172 0.114 0.136 0.297 0.339 0.399 0.481-0.173 0.059-0.273 0.095-0.372 0.124-2.094 0.627-4.179 1.441-6.228 2.623-1.834 1.057-3.637 2.192-5.22 3.803-1.143 1.163-2.023 2.442-2.43 3.896-0.542 1.937-0.114 3.399 0.904 4.499 1.54 1.662 3.727 2.165 6.386 1.695 3.413-0.603 6.391-2.606 8.903-5.76 2.761-3.467 3.837-7.043 3.325-10.516-0.028-0.188-0.09-0.268-0.306-0.21-1.04 0.278-1.555 0.398-2.07 0.541-0.542 0.15-1.985 0.629-2.139 0.693 0.059 0.757 0.208 1.514 0.162 2.253-0.17 2.754-1.44 5.257-3.903 7.392-0.541 0.469-1.167 0.904-1.77 1.162-0.783 0.336-1.562 0.392-2.285 0.307-2.06-0.247-2.853-2.095-1.863-4.356 0.598-1.366 1.585-2.491 2.701-3.507 1.597-1.454 3.345-2.555 5.15-3.447 1.757-0.871 3.512-1.354 5.276-1.828l13.834-2.978c-0.144 0.016-0.285 9e-3 -0.431 0.049"/>
		</defs>
		<clipPath id="SVGID_47_">
			<use width="100%" height="100%" overflow="visible" xlink:href="#SVGID_46_"/>
		</clipPath>
		<defs>
			<filter id="Adobe_OpacityMaskFilter_7_" x="230.34" y="601.37" width="32.847" height="20.724" filterUnits="userSpaceOnUse">
				<feColorMatrix values="1 0 0 0 0  0 1 0 0 0  0 0 1 0 0  0 0 0 1 0"/>
			</filter>
		</defs>
		<mask id="SVGID_48_" x="230.344" y="601.371" width="32.847" height="20.724" maskUnits="userSpaceOnUse">
			<g filter="url(#Adobe_OpacityMaskFilter_7_)">
				
					<linearGradient id="SVGID_49_" x2="1" y1="841.89" y2="841.89" gradientTransform="matrix(32.541 0 0 -32.541 230.65 28008)" gradientUnits="userSpaceOnUse">
					<stop stop-color="#fff" offset="0"/>
					<stop stop-color="#FBFBFB" offset=".1194"/>
					<stop stop-color="#eee" offset=".2442"/>
					<stop stop-color="#D9D9D9" offset=".3716"/>
					<stop stop-color="#BCBCBC" offset=".5006"/>
					<stop stop-color="#969696" offset=".631"/>
					<stop stop-color="#686868" offset=".7626"/>
					<stop stop-color="#323232" offset=".8925"/>
					<stop offset="1"/>
				</linearGradient>
				<rect x="230.34" y="601.37" width="32.847" height="20.724" clip-path="url(#SVGID_47_)" fill="url(#SVGID_49_)"/>
			</g>
		</mask>
		
			<linearGradient id="SVGID_50_" x2="1" y1="841.89" y2="841.89" gradientTransform="matrix(32.541 0 0 -32.541 230.65 28008)" gradientUnits="userSpaceOnUse">
			<stop stop-color="#1C86C4" offset="0"/>
			<stop stop-color="#2686C4" offset=".2599"/>
			<stop stop-color="#3886C4" offset=".5312"/>
			<stop stop-color="#4F86C4" offset=".8068"/>
			<stop stop-color="#6186C3" offset="1"/>
		</linearGradient>
		
			<rect x="230.34" y="601.37" width="32.847" height="20.724" clip-path="url(#SVGID_47_)" fill="url(#SVGID_50_)" mask="url(#SVGID_48_)"/>
	</g><path d="m262.69 599.5c-2.275 0.409-16.352 3.395-18.599 4.218-2.431 0.892-4.841 1.997-7.183 3.486-1.074 0.683-2.151 1.4-3.174 2.188-0.616 0.474-0.761 0.677-1.126 1.034-0.372 0.363-0.743 0.731-1.091 1.119-0.806 0.903-1.485 1.874-1.928 2.945-0.466 1.131-0.552 2.045-0.415 3.173-0.117-0.221-0.267-0.42-0.343-0.665-0.264-0.839-0.498-1.695-0.383-2.718 0.091-0.809 0.262-1.612 0.662-2.449 0.526-1.101 1.234-2.077 2.127-2.955 0.495-0.486 1.044-0.975 1.594-1.372 0.395-0.285 0.749-0.572 1.149-0.839 0.967-0.646 1.953-1.217 2.971-1.681 1.93-0.881 3.854-1.526 5.778-1.976 0.016-4e-3 0.033-0.03 0.097-0.087-1.869-0.813-3.929-0.807-6.326 0.359-2.344 1.139-4.249 2.899-5.854 5.132 0.218-0.738 0.576-1.443 0.981-2.134 1.48-2.527 3.474-4.467 5.961-5.761 2.537-1.319 4.93-1.69 7.152-1.198 1.743 0.386 3.129 1.257 4.176 2.581 0.057 0.073 0.199 0.087 0.314 0.081 0.66-0.033 13.247-2.556 13.91-2.599" clip-path="url(#SVGID_52_)" fill="#fff"/><g fill="#2090c9"><path d="m342.03 605.61c1.278-2.639 3.834-4.164 7.028-4.164 5.362 0 7.916 4.308 7.916 7.853 0 4.66-3.545 7.938-8.039 7.938-2.987 0-5.545-1.587-6.967-4.246h1.813c1.217 1.958 3.319 2.865 5.153 2.865 3.278 0 6.185-2.35 6.515-5.875h-8.945v-1.381h8.945c-0.371-3.217-2.906-5.772-6.41-5.772-2.041 0-4.062 0.866-5.196 2.783h-1.813z" clip-path="url(#SVGID_52_)"/><path d="m359.66 605.69h1.524v11.276h-1.524zm2.412 5.566 4.412-5.566h1.793l-4.328 5.442 4.616 5.834h-1.959z" clip-path="url(#SVGID_52_)"/><path d="m381.55 613.67c-0.765 1.67-2.394 3.565-5.484 3.565-3.856 0-6.021-2.967-6.021-5.916 0-2.699 2.082-5.895 6.021-5.895 2.617 0 4.617 1.464 5.504 3.689h-1.711c-1.133-2.226-3.278-2.309-3.793-2.309-2.618 0-4.495 2-4.495 4.494 0 2.577 2.042 4.556 4.495 4.556 1.546 0 2.988-0.763 3.793-2.186h1.691z" clip-path="url(#SVGID_52_)"/><polygon points="385.85 607.07 385.85 616.97 384.33 616.97 384.33 605.69 393.69 605.69 393.69 616.97 392.16 616.97 392.16 607.07" clip-path="url(#SVGID_52_)"/><path d="m397.95 611.88c0.187 2.247 1.918 3.979 4.289 3.979 1.772 0 3.237-1.01 3.938-2.556h1.586c-0.906 2.432-2.969 3.937-5.524 3.937-3.319 0-5.875-2.515-5.875-5.896 0-2.783 2.039-5.916 5.875-5.916 4.267 0 5.813 3.546 5.791 6.452zm8.433-1.38c-0.435-2.288-2.187-3.69-4.144-3.69-2.166 0-3.918 1.545-4.289 3.69z" clip-path="url(#SVGID_52_)"/><path d="m410.71 605.69h1.443v1.938h0.041c1.401-1.958 3.381-2.206 4.411-2.206 3.957 0 5.998 3.093 5.998 5.957 0 3.361-2.575 5.855-6.039 5.855-2.741 0-3.896-1.711-4.288-2.37h-0.041v6.06h-1.525zm1.443 5.71c0 2.495 1.834 4.453 4.411 4.453 2.494 0 4.515-1.938 4.515-4.494s-1.957-4.556-4.474-4.556c-2.618 0-4.452 2.062-4.452 4.597" clip-path="url(#SVGID_52_)"/><polygon points="427.14 616.97 427.14 607.07 424.23 607.07 424.23 605.69 431.57 605.69 431.57 607.07 428.67 607.07 428.67 616.97" clip-path="url(#SVGID_52_)"/></g><g fill="#fff"><path d="m252.5 605.69h1.443v1.938h0.041c1.4-1.959 3.381-2.206 4.41-2.206 3.959 0 6 3.093 6 5.957 0 3.36-2.578 5.855-6.041 5.855-2.742 0-3.896-1.711-4.287-2.37h-0.041v6.06h-1.525zm1.443 5.71c0 2.494 1.834 4.452 4.41 4.452 2.494 0 4.516-1.938 4.516-4.494s-1.959-4.555-4.475-4.555c-2.617 0-4.451 2.061-4.451 4.597" clip-path="url(#SVGID_52_)"/><polygon points="267.07 616.96 267.07 605.69 272.94 605.69 272.94 607.07 268.59 607.07 268.59 616.96" clip-path="url(#SVGID_52_)"/><path d="m279.42 601.44c3.154 0 4.393 2.103 4.393 4.103 0 1.855-1.114 2.906-2.311 3.442 1.773 0.454 2.723 2.02 2.723 3.835 0 2.226-1.547 4.411-4.928 4.411-3.463 0-5.133-2.434-4.969-4.927h1.526c-0.061 1.772 0.97 3.545 3.443 3.545 2.268 0 3.402-1.318 3.402-2.988 0-1.629-1.011-3.092-3.547-3.092h-0.906v-1.382h0.906c2.557 0 3.133-1.67 3.133-2.865 0-1.113-0.658-2.7-2.844-2.7-2 0-2.927 1.401-2.886 2.865h-1.526c-0.061-2.123 1.28-4.247 4.391-4.247" clip-path="url(#SVGID_52_)"/><path d="m297.16 615.58h1.176v4.268h-1.524v-2.887h-9.731v2.887h-1.525v-4.268h1.174l4.392-9.896h1.649zm-1.648 0-3.566-8.185-3.567 8.185z" clip-path="url(#SVGID_52_)"/><path d="m300.36 605.69h1.443v1.938h0.041c1.401-1.959 3.381-2.206 4.411-2.206 3.957 0 5.998 3.093 5.998 5.957 0 3.36-2.575 5.855-6.039 5.855-2.741 0-3.896-1.711-4.288-2.37h-0.041v6.06h-1.525zm1.444 5.71c0 2.494 1.834 4.452 4.411 4.452 2.494 0 4.515-1.938 4.515-4.494s-1.957-4.555-4.474-4.555c-2.618 0-4.452 2.061-4.452 4.597" clip-path="url(#SVGID_52_)"/><path d="m326.41 616.96h-1.444v-2.103h-0.041c-0.638 0.97-1.937 2.37-4.39 2.37-3.381 0-6.039-2.473-6.039-5.978 0-2.68 1.957-5.833 5.998-5.833 0.968 0 3.072 0.144 4.431 2.226h0.041v-1.958h1.444zm-10.389-5.586c0 2.576 2.102 4.473 4.514 4.473 2.474 0 4.431-1.979 4.431-4.452 0-2.556-1.916-4.597-4.472-4.597-2.453 0-4.473 1.958-4.473 4.576" clip-path="url(#SVGID_52_)"/><path d="m333.56 605.68c2.638 0 3.34 1.649 3.34 3.011 0 1.072-0.598 1.938-1.504 2.329 1.154 0.31 1.916 1.36 1.916 2.68 0 1.753-1.237 3.257-3.627 3.257h-4.164v-11.276h4.039zm-2.514 4.804h2.411c1.195 0 1.916-0.701 1.916-1.793 0-1.649-1.565-1.629-1.916-1.629h-2.411zm0 5.092h2.473c1.795 0 2.267-1.072 2.267-1.855 0-0.474-0.144-1.855-2.267-1.855h-2.473z" clip-path="url(#SVGID_52_)"/></g></g>
	</g>
</g>
</svg>
