<svg width="143" height="62" viewBox="0 0 143 62" fill="none" xmlns="http://www.w3.org/2000/svg">
<g clip-path="url(#clip0_691_7273)">
<path d="M45.0818 11.0718C41.2853 12.0666 37.4787 13.1808 33.6973 15.051C29.6811 16.9728 25.9573 19.4423 22.6347 22.3875C20.2311 24.5561 18.109 26.9486 16.8217 29.8484C14.6897 34.6632 16.3943 38.5975 20.8445 39.1198C22.5132 39.3408 24.2113 39.1158 25.7624 38.4682C27.1502 37.8301 28.4347 36.992 29.574 35.9813C34.869 31.4401 37.6195 26.113 37.9715 20.2487C38.0671 18.677 37.7654 17.2146 37.6346 15.6081C38.0265 15.4185 38.4295 15.2524 38.8415 15.1107C41.4613 14.3845 44.0761 13.6881 46.6909 12.9719C47.1535 12.8426 47.2893 13.0216 47.3497 13.4195C48.4559 20.8108 46.1227 28.2667 40.1841 35.648C34.7785 42.3578 28.3671 46.6255 21.0255 47.9087C15.3031 48.9035 10.5965 47.8391 7.28271 44.2977C5.09029 41.9599 4.17008 38.8263 5.33668 34.7229C6.21164 31.6241 8.10738 28.9034 10.5613 26.4263C13.9706 22.9993 17.8526 20.582 21.7949 18.3338C26.0278 15.9605 30.5271 14.0859 35.2008 12.748C35.412 12.6834 35.6283 12.6088 36.0004 12.4844L34.9997 11.1415C36.2719 10.7585 37.4385 10.3407 38.5951 10.0721C40.8126 9.57468 43.0201 9.13698 45.2377 8.65948C45.6651 8.56995 45.9216 8.65948 45.9819 9.0574C46.178 10.2561 72.6329 5.26726 73.9101 4.90416C74.2146 4.84185 74.5244 4.80854 74.8353 4.80469" fill="url(#paint0_linear_691_7273)" fill-opacity="0.5"/>
<path d="M73.7535 0.831238C68.8608 1.6967 38.5541 8.05338 33.7318 9.80918C28.3208 11.7209 23.1361 14.2093 18.2692 17.2303C15.9611 18.6827 13.6933 20.2743 11.4405 21.8859C10.5811 22.563 9.77122 23.2993 9.01676 24.0893C8.21724 24.8603 7.41772 25.6462 6.66847 26.4718C4.93854 28.3148 3.53596 30.4337 2.51997 32.739C1.58903 34.8635 1.28061 37.204 1.62993 39.4936C1.33743 39.0452 1.08826 38.5706 0.885717 38.076C0.322527 36.2904 -0.185353 34.4649 0.0660714 32.2913C0.23488 30.4859 0.716246 28.7227 1.48913 27.0787C2.62924 24.7319 4.1782 22.602 6.06506 20.7866C7.13351 19.7878 8.27654 18.87 9.48443 18.041C10.3342 17.4342 11.1086 16.6483 11.9685 16.0813C13.9985 14.7188 16.1377 13.5228 18.3647 12.505C22.3584 10.6976 26.5241 9.288 30.8002 8.2971C30.8303 8.2971 30.8706 8.23742 31.0063 8.11307C26.9835 6.38214 22.5534 6.39707 17.3942 8.87906C12.3657 11.3014 8.24741 15.0517 4.79284 19.8217C5.31027 18.2297 6.01936 16.705 6.90481 15.2805C9.90654 10.0619 14.3608 5.80621 19.7375 3.01977C25.1934 0.209502 30.3476 -0.58136 35.1247 0.463165C38.6839 1.18728 41.869 3.13436 44.1156 5.95936C44.2097 6.03272 44.3182 6.08605 44.4341 6.11601C44.5501 6.14596 44.671 6.1519 44.7894 6.13345C46.2125 6.06381 73.3009 0.691972 74.724 0.602442" fill="#4E84FF"/>
<path d="M33.6265 31.5343C33.6265 36.7221 29.5635 40.5769 24.364 40.5769C19.1646 40.5769 15.1016 36.8614 15.1016 31.6736C15.1016 26.4858 19.1646 22.6758 24.364 22.6758C29.5635 22.6758 33.6265 26.3913 33.6265 31.5343ZM31.8766 31.5343C31.8766 27.2319 28.593 24.2426 24.3892 24.2426C23.3933 24.2139 22.402 24.3862 21.4758 24.7491C20.5495 25.112 19.7078 25.6579 19.0019 26.3533C18.296 27.0487 17.7408 27.8791 17.3702 28.7939C16.9997 29.7086 16.8214 30.6885 16.8464 31.6736C16.8464 36.0208 20.1753 39.0102 24.3892 39.0102C25.3843 39.0316 26.3735 38.8523 27.2964 38.4833C28.2192 38.1143 29.0564 37.5632 29.757 36.8638C30.4575 36.1643 31.0068 35.331 31.3712 34.4148C31.7356 33.4985 31.9075 32.5185 31.8766 31.5343Z" fill="white"/>
<path d="M36.125 27.4907H37.7794V29.6841H37.8297C38.4032 28.8935 39.1636 28.2536 40.0444 27.8201C40.9252 27.3867 41.8998 27.1728 42.8833 27.1972C47.4089 27.1972 49.7572 30.6789 49.7572 33.9468C49.7572 37.7568 46.8055 40.587 42.838 40.587C41.8475 40.6287 40.8645 40.3996 39.9969 39.9249C39.1294 39.4502 38.4108 38.7483 37.9202 37.8961H37.8749V44.7701H36.125V27.4907ZM37.7794 33.9567C37.7587 34.6215 37.8751 35.2834 38.1215 35.9022C38.3678 36.521 38.7389 37.0837 39.2122 37.556C39.6855 38.0284 40.251 38.4004 40.8744 38.6496C41.4977 38.8988 42.1659 39.0198 42.838 39.0053C44.1862 38.97 45.4675 38.417 46.4105 37.4633C47.3535 36.5097 47.8842 35.2304 47.8901 33.8964C47.896 32.5624 47.3766 31.2786 46.442 30.3168C45.5075 29.3551 44.2311 28.791 42.8833 28.7441C39.8813 28.7491 37.7794 31.0868 37.7794 33.9617V33.9567Z" fill="white"/>
<path d="M58.9714 27.4902V29.057H53.9882V40.2732H52.2383V27.4902H58.9714Z" fill="white"/>
<path d="M60.6454 30.6195C60.8817 28.0729 63.054 27.1875 64.8039 27.1875C66.6947 27.1875 68.867 28.0977 68.867 30.525C68.8964 31.1728 68.7241 31.814 68.3734 32.3619C68.0227 32.9099 67.5105 33.3381 66.9059 33.5889C68.4144 33.9869 69.1989 35.2254 69.1989 36.7673C69.1989 38.9857 67.4037 40.5773 64.7788 40.5773C61.5455 40.5773 60.1979 38.7071 60.223 36.5982H61.9679C61.9679 37.9759 62.9736 39.0056 64.7788 39.0056C67.0718 39.0056 67.4489 37.4885 67.4489 36.8071C67.4489 35.7824 66.9763 34.4942 64.7788 34.4942H63.6223V32.9274H64.7788C66.3628 32.9274 67.1221 31.9028 67.1221 30.7538C67.1221 29.7043 66.4332 28.7642 64.8995 28.7642C63.3658 28.7642 62.5612 29.5601 62.3852 30.6344L60.6454 30.6195Z" fill="white"/>
<path d="M83.6597 38.7064H85.0073V43.5411H83.2725V40.2732H72.1043V43.5411H70.3594V38.7064H71.707L76.7355 27.4902H78.6262L83.6597 38.7064ZM81.769 38.7064L77.6808 29.4301L73.5927 38.7064H81.769Z" fill="white"/>
<path d="M86.7305 27.4907H88.3798V29.6841H88.4301C89.0037 28.8935 89.764 28.2536 90.6448 27.8201C91.5256 27.3867 92.5002 27.1728 93.4837 27.1972C98.0094 27.1972 100.358 30.6789 100.358 33.9468C100.358 37.7568 97.4059 40.587 93.4385 40.587C92.4485 40.6295 91.4659 40.4007 90.599 39.9258C89.7321 39.451 89.0146 38.7486 88.5256 37.8961H88.4754V44.7701H86.7305V27.4907ZM88.3798 33.9567C88.3599 34.6213 88.4768 35.2829 88.7234 35.9014C88.97 36.5198 89.3411 37.0822 89.8143 37.5544C90.2874 38.0266 90.8526 38.3987 91.4757 38.6481C92.0987 38.8976 92.7665 39.0191 93.4385 39.0053C94.7866 38.97 96.0679 38.417 97.0109 37.4633C97.954 36.5097 98.4846 35.2304 98.4905 33.8964C98.4964 32.5624 97.977 31.2786 97.0425 30.3168C96.1079 29.3551 94.8315 28.791 93.4837 28.7441C90.4867 28.7491 88.3798 31.0868 88.3798 33.9617V33.9567Z" fill="white"/>
<path d="M115.997 40.2729H114.342V37.8854H114.297C113.766 38.7265 113.024 39.4168 112.142 39.8885C111.261 40.3603 110.27 40.5973 109.268 40.5763C108.358 40.6042 107.451 40.4484 106.603 40.1184C105.755 39.7884 104.984 39.2911 104.336 38.6569C103.689 38.0226 103.179 37.2646 102.837 36.429C102.496 35.5935 102.33 34.6979 102.349 33.7968C102.341 32.9105 102.515 32.0316 102.86 31.2136C103.205 30.3955 103.714 29.6551 104.357 29.0372C104.999 28.4193 105.762 27.9367 106.598 27.6186C107.435 27.3005 108.328 27.1535 109.223 27.1865C110.218 27.1383 111.208 27.3463 112.098 27.79C112.987 28.2338 113.745 28.8982 114.297 29.7182H114.342V27.4998H115.997V40.2729ZM104.089 33.9361C104.09 34.606 104.224 35.2691 104.485 35.8872C104.746 36.5054 105.128 37.0664 105.609 37.538C106.09 38.0096 106.66 38.3824 107.287 38.6349C107.915 38.8875 108.586 39.0148 109.263 39.0095C109.933 39.0122 110.597 38.8832 111.216 38.6302C111.835 38.3771 112.397 38.0049 112.87 37.5352C113.342 37.0656 113.715 36.5078 113.968 35.8942C114.221 35.2806 114.348 34.6235 114.342 33.961C114.364 33.2817 114.247 32.6051 113.999 31.9712C113.751 31.3374 113.377 30.7593 112.899 30.2713C112.421 29.7833 111.848 29.3953 111.215 29.1303C110.583 28.8653 109.903 28.7287 109.216 28.7287C108.529 28.7287 107.848 28.8653 107.216 29.1303C106.583 29.3953 106.011 29.7833 105.532 30.2713C105.054 30.7593 104.68 31.3374 104.432 31.9712C104.184 32.6051 104.068 33.2817 104.089 33.961V33.9361Z" fill="white"/>
<path d="M123.608 27.4902C126.625 27.4902 127.434 29.3604 127.434 30.9023C127.445 31.4624 127.287 32.0128 126.98 32.4833C126.672 32.9538 126.23 33.3229 125.71 33.5435C126.37 33.7268 126.948 34.1273 127.347 34.6788C127.747 35.2304 127.944 35.9001 127.907 36.5776C127.907 38.5672 126.489 40.2732 123.749 40.2732H118.977V27.4902H123.608ZM120.726 32.9317H123.502C124.87 32.9317 125.7 32.1409 125.7 30.9023C125.7 29.0322 123.899 29.057 123.502 29.057H120.737L120.726 32.9317ZM120.726 38.7064H123.563C125.614 38.7064 126.157 37.4928 126.157 36.6025C126.157 36.0653 125.996 34.4985 123.563 34.4985H120.726V38.7064Z" fill="white"/>
<path d="M24.3617 39.4584C28.669 39.4584 32.1609 36.0045 32.1609 31.7439C32.1609 27.4832 28.669 24.0293 24.3617 24.0293C20.0543 24.0293 16.5625 27.4832 16.5625 31.7439C16.5625 36.0045 20.0543 39.4584 24.3617 39.4584Z" fill="white" fill-opacity="0.2"/>
<path d="M25.4385 36.6981C29.1432 36.6981 32.1465 33.8232 32.1465 30.2768C32.1465 26.7304 29.1432 23.8555 25.4385 23.8555C21.7337 23.8555 18.7305 26.7304 18.7305 30.2768C18.7305 33.8232 21.7337 36.6981 25.4385 36.6981Z" fill="#182543"/>
<path d="M59.3008 48.7039C60.4222 46.411 62.6649 45.0879 65.4708 45.0879C70.1724 45.0879 72.4201 48.8283 72.4201 51.9071C72.4201 55.9509 69.3075 58.796 65.3803 58.796C64.116 58.8018 62.875 58.4603 61.7954 57.8095C60.7158 57.1588 59.84 56.2244 59.2656 55.1103H60.8596C61.3407 55.8688 62.0079 56.4947 62.7992 56.9295C63.5904 57.3643 64.4801 57.5941 65.3853 57.5973C66.8084 57.6149 68.1855 57.099 69.2397 56.1531C70.2938 55.2073 70.9469 53.9018 71.0675 52.499H63.2281V51.3003H71.0423C70.9162 49.9231 70.2712 48.6431 69.2354 47.7144C68.1996 46.7856 66.8486 46.276 65.4506 46.2866C64.5431 46.2554 63.6433 46.4627 62.8431 46.8874C62.0428 47.312 61.3706 47.9388 60.8948 48.7039H59.3008Z" fill="white" fill-opacity="0.5"/>
<path d="M75.625 58.5664V48.7727H76.9626V58.5664H75.625ZM77.742 53.5925L81.6139 48.7578H83.1878L79.3863 53.483L83.4393 58.5664H81.7195L77.742 53.5925Z" fill="white" fill-opacity="0.5"/>
<path d="M95.6871 55.7022C95.1962 56.7855 94.3469 57.6712 93.279 58.2131C92.2112 58.755 90.9885 58.9209 89.8126 58.6834C88.6367 58.4459 87.5776 57.8192 86.81 56.9065C86.0424 55.9939 85.612 54.8498 85.5898 53.6629C85.591 52.9818 85.7294 52.3078 85.9968 51.6802C86.2642 51.0527 86.6553 50.484 87.1473 50.0076C87.6393 49.5311 88.2223 49.1564 88.8623 48.9052C89.5022 48.654 90.1864 48.5315 90.8748 48.5447C91.9165 48.5175 92.9411 48.8111 93.8068 49.385C94.6725 49.9588 95.3365 50.7845 95.7072 51.7479H94.1986C93.8897 51.1397 93.4133 50.6301 92.8244 50.2781C92.2354 49.9261 91.5578 49.7459 90.8698 49.7583C90.3488 49.7475 89.831 49.8409 89.3475 50.033C88.864 50.2251 88.4247 50.5119 88.056 50.8761C87.6873 51.2403 87.3968 51.6745 87.202 52.1525C87.0072 52.6305 86.9121 53.1426 86.9224 53.6579C86.9171 54.1745 87.0152 54.6869 87.2111 55.1658C87.4069 55.6447 87.6967 56.0805 88.0636 56.4481C88.4306 56.8157 88.8675 57.1078 89.3491 57.3076C89.8307 57.5074 90.3475 57.6109 90.8698 57.6122C91.5457 57.6218 92.2117 57.4508 92.7976 57.1173C93.3835 56.7838 93.8675 56.3 94.1986 55.7171L95.6871 55.7022Z" fill="white" fill-opacity="0.5"/>
<path d="M107.191 48.7734V58.5671H105.853V49.9722H100.322V58.5671H98.9844V48.7734H107.191Z" fill="white" fill-opacity="0.5"/>
<path d="M111.789 54.1456C111.856 54.9739 112.199 55.7569 112.765 56.3709C113.331 56.9849 114.088 57.395 114.916 57.5364C115.743 57.6778 116.595 57.5425 117.337 57.1519C118.078 56.7613 118.667 56.1375 119.01 55.3791H120.403C120.083 56.2582 119.524 57.0334 118.789 57.6201C118.054 58.2069 117.17 58.5826 116.233 58.7064C115.297 58.8302 114.344 58.6973 113.479 58.3222C112.614 57.9471 111.869 57.3442 111.326 56.5792C110.784 55.8142 110.464 54.9165 110.402 53.984C110.34 53.0516 110.538 52.1201 110.974 51.2913C111.41 50.4624 112.068 49.768 112.876 49.2837C113.684 48.7994 114.611 48.5439 115.556 48.5449C119.302 48.5449 120.655 51.6238 120.64 54.1456H111.789ZM119.191 52.9469C119.071 52.0721 118.638 51.2687 117.971 50.6814C117.305 50.0941 116.448 49.7616 115.556 49.7436C114.645 49.7441 113.764 50.0674 113.073 50.6551C112.382 51.2427 111.926 52.0558 111.789 52.9469H119.191Z" fill="white" fill-opacity="0.5"/>
<path d="M123.84 48.774H125.107V50.4602H125.142C125.58 49.8516 126.161 49.3586 126.837 49.0247C127.512 48.6908 128.26 48.5261 129.014 48.5452C129.708 48.5248 130.398 48.6442 131.044 48.8962C131.689 49.1482 132.276 49.5274 132.769 50.0109C133.261 50.4943 133.649 51.0719 133.909 51.7084C134.168 52.3448 134.294 53.0269 134.279 53.7131C134.279 56.6328 132.016 58.7965 128.979 58.7965C128.221 58.8283 127.469 58.6536 126.805 58.2913C126.141 57.9291 125.59 57.3932 125.213 56.7422H125.177V61.9997H123.84V48.774ZM125.107 53.7479C125.092 54.2566 125.181 54.7629 125.37 55.2363C125.559 55.7096 125.843 56.1401 126.205 56.5015C126.567 56.8629 127 57.1478 127.477 57.3388C127.954 57.5298 128.465 57.623 128.979 57.6127C129.771 57.6324 130.552 57.4172 131.219 56.9948C131.887 56.5723 132.412 55.9619 132.726 55.242C133.04 54.5222 133.13 53.7258 132.983 52.9553C132.835 52.1849 132.459 51.4755 131.901 50.9186C131.343 50.3617 130.629 49.9826 129.852 49.8301C129.074 49.6777 128.268 49.7588 127.538 50.063C126.807 50.3673 126.185 50.8808 125.752 51.5374C125.319 52.1941 125.094 52.964 125.107 53.7479Z" fill="white" fill-opacity="0.5"/>
<path d="M143.001 48.7734V49.9722H140.451V58.5671H139.114V49.9722H136.574V48.7734H143.001Z" fill="white" fill-opacity="0.5"/>
</g>
<defs>
<linearGradient id="paint0_linear_691_7273" x1="4.79864" y1="26.5407" x2="74.8253" y2="26.5407" gradientUnits="userSpaceOnUse">
<stop stop-color="#3C73ED"/>
<stop offset="1" stop-color="white" stop-opacity="0"/>
</linearGradient>
<clipPath id="clip0_691_7273">
<rect width="143" height="62" fill="white"/>
</clipPath>
</defs>
</svg>
