<?xml version="1.0" encoding="UTF-8"?>
<svg width="500" height="150.08" enable-background="new 0 0 595.276 841.89" version="1.1" viewBox="0 0 500 150.08" xml:space="preserve" xmlns="http://www.w3.org/2000/svg" xmlns:xlink="http://www.w3.org/1999/xlink">
<g transform="translate(-24.529 -518.51)">
	<defs>
		<rect id="SVGID_1_" width="595.28" height="841.89"/>
	</defs>
	<clipPath id="SVGID_2_">
		<use width="100%" height="100%" overflow="visible" xlink:href="#SVGID_1_"/>
	</clipPath>
	<g clip-path="url(#SVGID_2_)">
		<defs>
			<path id="SVGID_3_" d="m228.39 136.45c5.806-5.883 11.088-11.324 16.504-16.63 0.84-0.822 2.283-1.418 3.461-1.442 6.796-0.135 21.904-0.176 22.555-0.224-14.202-14.257-28.311-28.423-42.52-42.689z"/>
		</defs>
		<clipPath id="SVGID_4_">
			<use width="100%" height="100%" overflow="visible" xlink:href="#SVGID_3_"/>
		</clipPath>
		<defs>
			<filter id="Adobe_OpacityMaskFilter" x="228.39" y="75.463" width="42.52" height="60.985" filterUnits="userSpaceOnUse">
				<feColorMatrix values="1 0 0 0 0  0 1 0 0 0  0 0 1 0 0  0 0 0 1 0"/>
			</filter>
		</defs>
		<mask id="SVGID_5_" x="228.393" y="75.463" width="42.52" height="60.985" maskUnits="userSpaceOnUse">
			<g filter="url(#Adobe_OpacityMaskFilter)">
				
					<linearGradient id="SVGID_6_" x2="1" y1="841.89" y2="841.89" gradientTransform="matrix(0 -60.985 -60.985 0 51592 136.44)" gradientUnits="userSpaceOnUse">
					<stop stop-color="#fff" offset="0"/>
					<stop stop-color="#fff" offset=".006"/>
					<stop stop-color="#fff" offset=".4345"/>
					<stop stop-color="#FBFBFB" offset=".6725"/>
					<stop stop-color="#F0F0F0" offset=".8999"/>
					<stop stop-color="#E8E8E8" offset="1"/>
				</linearGradient>
				<rect x="228.39" y="75.463" width="42.52" height="60.985" clip-path="url(#SVGID_4_)" fill="url(#SVGID_6_)"/>
			</g>
		</mask>
		
			<linearGradient id="SVGID_7_" x1="-.00048828" x2=".9995" y1="841.89" y2="841.89" gradientTransform="matrix(0 -60.985 -60.985 0 51592 136.44)" gradientUnits="userSpaceOnUse">
			<stop stop-color="#73B8E5" offset="0"/>
			<stop stop-color="#73B8E5" offset=".006"/>
			<stop stop-color="#222A44" offset=".4345"/>
			<stop stop-color="#232B45" offset=".5156"/>
			<stop stop-color="#28304B" offset=".5929"/>
			<stop stop-color="#313A56" offset=".6686"/>
			<stop stop-color="#404B66" offset=".7435"/>
			<stop stop-color="#566480" offset=".8176"/>
			<stop stop-color="#788AA4" offset=".8914"/>
			<stop stop-color="#A7BED7" offset=".9633"/>
			<stop stop-color="#C6E1F7" offset="1"/>
		</linearGradient>
		
			<rect x="228.39" y="75.463" width="42.52" height="60.985" clip-path="url(#SVGID_4_)" fill="url(#SVGID_7_)" mask="url(#SVGID_5_)"/>
	</g>
	<g clip-path="url(#SVGID_2_)">
		<defs>
			<rect id="SVGID_8_" width="595.28" height="841.89"/>
		</defs>
		<clipPath id="SVGID_9_">
			<use width="100%" height="100%" overflow="visible" xlink:href="#SVGID_8_"/>
		</clipPath><g fill="#fff">
		<polygon points="251.66 148.71 251.28 148.71 251.28 145.34 249.36 145.34 249.36 148.71 248.99 148.71 248.99 145.01 251.66 145.01" clip-path="url(#SVGID_9_)"/>
		<path d="m255.49 147.34c0 0.815-0.627 1.431-1.432 1.431-0.806 0-1.431-0.616-1.431-1.431 0-0.816 0.621-1.437 1.431-1.437 0.811 0 1.432 0.621 1.432 1.437m-2.494 0c0 0.62 0.447 1.096 1.062 1.096 0.616 0 1.061-0.476 1.061-1.096 0-0.621-0.445-1.102-1.061-1.102-0.615 0-1.062 0.481-1.062 1.102" clip-path="url(#SVGID_9_)"/>
		<path d="m256.4 145.97h0.35v0.471h0.01c0.34-0.476 0.82-0.535 1.072-0.535 0.961 0 1.455 0.751 1.455 1.446 0 0.816-0.625 1.421-1.467 1.421-0.664 0-0.945-0.415-1.041-0.575h-9e-3v1.472h-0.37zm0.35 1.387c0 0.605 0.445 1.081 1.07 1.081 0.606 0 1.098-0.471 1.098-1.091 0-0.621-0.477-1.106-1.086-1.106-0.637 0-1.082 0.501-1.082 1.116" clip-path="url(#SVGID_9_)"/>
		<polygon points="261.03 146.31 261.03 148.71 260.66 148.71 260.66 146.31 259.95 146.31 259.95 145.97 261.73 145.97 261.73 146.31" clip-path="url(#SVGID_9_)"/>
		<path d="m265.29 148.71h-0.349v-0.51h-0.012c-0.154 0.235-0.469 0.575-1.064 0.575-0.823 0-1.467-0.601-1.467-1.451 0-0.651 0.474-1.416 1.457-1.416 0.234 0 0.744 0.035 1.074 0.54h0.012v-0.476h0.349zm-2.523-1.356c0 0.626 0.512 1.086 1.098 1.086 0.599 0 1.076-0.481 1.076-1.081 0-0.62-0.467-1.116-1.086-1.116-0.596 0-1.088 0.475-1.088 1.111" clip-path="url(#SVGID_9_)"/>
		<polygon points="267.4 146.44 266.44 148.71 266.04 148.71 267.21 145.97 267.6 145.97 268.76 148.71 268.36 148.71" clip-path="url(#SVGID_9_)"/>
		<path d="m273.62 148.38h0.286v1.036h-0.372v-0.7h-2.361v0.7h-0.371v-1.036h0.285l1.067-2.402h0.4zm-0.4 0-0.865-1.986-0.867 1.986z" clip-path="url(#SVGID_9_)"/>
		<polygon points="275.75 146.44 274.79 148.71 274.39 148.71 275.56 145.97 275.94 145.97 277.11 148.71 276.71 148.71" clip-path="url(#SVGID_9_)"/>
		<path d="m279.83 148.71h-0.369v-2.402h-0.736c-0.081 0-0.641 5e-3 -0.641 0.585 0 0.305 0.18 0.55 0.641 0.55h0.375l-0.911 1.267h-0.425l0.746-0.977c-0.471-0.034-0.797-0.384-0.797-0.86 0-0.466 0.355-0.901 1.012-0.901h1.105z" clip-path="url(#SVGID_9_)"/>
		<path d="m282.41 145.97h0.35v0.471h0.01c0.34-0.476 0.82-0.535 1.072-0.535 0.961 0 1.455 0.751 1.455 1.446 0 0.816-0.625 1.421-1.467 1.421-0.664 0-0.945-0.415-1.041-0.575h-9e-3v1.472h-0.37zm0.35 1.387c0 0.605 0.445 1.081 1.07 1.081 0.606 0 1.098-0.471 1.098-1.091 0-0.621-0.477-1.106-1.086-1.106-0.637 0-1.082 0.501-1.082 1.116" clip-path="url(#SVGID_9_)"/>
		<polygon points="286.57 149.67 287.03 148.59 285.95 145.97 286.39 145.97 287.25 148.11 288.15 145.97 288.55 145.97 286.97 149.67" clip-path="url(#SVGID_9_)"/>
		<path d="m289.29 145.97h0.371v2.738h-0.371zm0.586 1.352 1.07-1.352h0.436l-1.051 1.322 1.121 1.417h-0.474z" clip-path="url(#SVGID_9_)"/>
		<path d="m294.95 147.34c0 0.815-0.627 1.431-1.432 1.431-0.806 0-1.431-0.616-1.431-1.431 0-0.816 0.621-1.437 1.431-1.437 0.811 0 1.432 0.621 1.432 1.437m-2.494 0c0 0.62 0.447 1.096 1.062 1.096 0.616 0 1.061-0.476 1.061-1.096 0-0.621-0.445-1.102-1.061-1.102-0.615 0-1.062 0.481-1.062 1.102" clip-path="url(#SVGID_9_)"/>
		<path d="m296.84 145.97c0.642 0 0.812 0.4 0.812 0.731 0 0.26-0.146 0.47-0.365 0.566 0.279 0.075 0.464 0.33 0.464 0.65 0 0.426-0.298 0.791-0.88 0.791h-1.01v-2.738zm-0.611 1.167h0.586c0.292 0 0.465-0.171 0.465-0.436 0-0.4-0.379-0.395-0.465-0.395h-0.586zm0 1.235h0.602c0.435 0 0.55-0.26 0.55-0.45 0-0.115-0.035-0.45-0.55-0.45h-0.602z" clip-path="url(#SVGID_9_)"/>
		<path d="m301.41 147.34c0 0.815-0.627 1.431-1.432 1.431-0.806 0-1.431-0.616-1.431-1.431 0-0.816 0.621-1.437 1.431-1.437 0.812 0 1.432 0.621 1.432 1.437m-2.493 0c0 0.62 0.446 1.096 1.062 1.096s1.062-0.476 1.062-1.096c0-0.621-0.445-1.102-1.062-1.102-0.616 0-1.062 0.481-1.062 1.102" clip-path="url(#SVGID_9_)"/>
		<path d="m304.88 148.38h0.286v1.036h-0.372v-0.7h-2.363v0.7h-0.368v-1.036h0.284l1.067-2.402h0.4zm-0.399 0-0.867-1.986-0.865 1.986z" clip-path="url(#SVGID_9_)"/>
		<polygon points="307.92 145.97 308.29 145.97 308.29 148.71 307.92 148.71 307.92 146.5 306.29 148.71 305.92 148.71 305.92 145.97 306.29 145.97 306.29 148.19" clip-path="url(#SVGID_9_)"/>
		<polygon points="310.13 146.31 310.13 148.71 309.76 148.71 309.76 146.31 309.06 146.31 309.06 145.97 310.84 145.97 310.84 146.31" clip-path="url(#SVGID_9_)"/>
		<path d="m311.89 147.48c0.045 0.546 0.465 0.966 1.041 0.966 0.432 0 0.784-0.245 0.956-0.62h0.386c-0.222 0.59-0.722 0.955-1.342 0.955-0.806 0-1.427-0.611-1.427-1.431 0-0.676 0.496-1.436 1.427-1.436 1.036 0 1.411 0.86 1.405 1.566zm2.047-0.335c-0.105-0.556-0.529-0.896-1.006-0.896-0.525 0-0.951 0.375-1.041 0.896z" clip-path="url(#SVGID_9_)"/>
		<polygon points="316.34 146.44 315.38 148.71 314.98 148.71 316.15 145.97 316.54 145.97 317.7 148.71 317.3 148.71" clip-path="url(#SVGID_9_)"/>
		<path d="m318.73 147.48c0.046 0.546 0.466 0.966 1.041 0.966 0.433 0 0.785-0.245 0.957-0.62h0.386c-0.222 0.59-0.722 0.955-1.343 0.955-0.805 0-1.426-0.611-1.426-1.431 0-0.676 0.496-1.436 1.426-1.436 1.037 0 1.412 0.86 1.406 1.566zm2.047-0.335c-0.105-0.556-0.529-0.896-1.007-0.896-0.524 0-0.95 0.375-1.041 0.896z" clip-path="url(#SVGID_9_)"/>
		<path d="m322.46 145.97v2.213l1.633-2.213h0.369v2.738h-0.369v-2.211l-1.633 2.212h-0.369v-2.738h0.369zm0.371-0.966c0.039 0.235 0.239 0.346 0.444 0.346s0.407-0.111 0.446-0.346h0.314c-0.05 0.28-0.261 0.631-0.761 0.631s-0.711-0.351-0.761-0.631z" clip-path="url(#SVGID_9_)"/>
		<path d="m327.02 146.64c0.049-0.545 0.51-0.735 0.881-0.735 0.399 0 0.86 0.195 0.86 0.715 0 0.276-0.137 0.545-0.416 0.656 0.32 0.085 0.485 0.35 0.485 0.68 0 0.476-0.379 0.816-0.936 0.816-0.687 0-0.972-0.401-0.966-0.851h0.369c0 0.296 0.211 0.516 0.597 0.516 0.485 0 0.565-0.325 0.565-0.471 0-0.22-0.099-0.495-0.565-0.495h-0.244v-0.335h0.244c0.336 0 0.495-0.221 0.495-0.466 0-0.225-0.144-0.43-0.471-0.43-0.32 0-0.496 0.17-0.531 0.4z" clip-path="url(#SVGID_9_)"/>
		<path d="m332.3 148.38h0.286v1.036h-0.372v-0.7h-2.363v0.7h-0.368v-1.036h0.284l1.067-2.402h0.4zm-0.4 0-0.867-1.986-0.865 1.986z" clip-path="url(#SVGID_9_)"/>
		<path d="m333.34 145.97h0.353v0.471h0.01c0.34-0.476 0.82-0.535 1.07-0.535 0.961 0 1.457 0.751 1.457 1.446 0 0.816-0.628 1.421-1.468 1.421-0.666 0-0.944-0.415-1.041-0.575h-9e-3v1.472h-0.372zm0.352 1.387c0 0.605 0.444 1.081 1.069 1.081 0.606 0 1.097-0.471 1.097-1.091 0-0.621-0.476-1.106-1.086-1.106-0.635 0-1.08 0.501-1.08 1.116" clip-path="url(#SVGID_9_)"/>
		<path d="m339.93 148.71h-0.349v-0.51h-0.011c-0.153 0.235-0.471 0.575-1.065 0.575-0.821 0-1.467-0.601-1.467-1.451 0-0.651 0.476-1.416 1.457-1.416 0.233 0 0.746 0.035 1.075 0.54h0.011v-0.476h0.349zm-2.521-1.356c0 0.626 0.51 1.086 1.096 1.086 0.601 0 1.076-0.481 1.076-1.081 0-0.62-0.465-1.116-1.086-1.116-0.597 0-1.086 0.475-1.086 1.111" clip-path="url(#SVGID_9_)"/>
		<path d="m341.93 145.97c0.642 0 0.812 0.4 0.812 0.731 0 0.26-0.146 0.47-0.365 0.566 0.279 0.075 0.464 0.33 0.464 0.65 0 0.426-0.298 0.791-0.88 0.791h-1.01v-2.738zm-0.611 1.167h0.586c0.291 0 0.465-0.171 0.465-0.436 0-0.4-0.379-0.395-0.465-0.395h-0.586zm0 1.235h0.602c0.436 0 0.55-0.26 0.55-0.45 0-0.115-0.035-0.45-0.55-0.45h-0.602z" clip-path="url(#SVGID_9_)"/>
		<path d="m346.5 147.34c0 0.815-0.625 1.431-1.431 1.431-0.805 0-1.432-0.616-1.432-1.431 0-0.816 0.621-1.437 1.432-1.437s1.431 0.621 1.431 1.437m-2.491 0c0 0.62 0.444 1.096 1.061 1.096 0.615 0 1.061-0.476 1.061-1.096 0-0.621-0.445-1.102-1.061-1.102-0.617 0-1.061 0.481-1.061 1.102" clip-path="url(#SVGID_9_)"/>
		<path d="m350.18 147.34c0 0.815-0.625 1.431-1.431 1.431-0.805 0-1.432-0.616-1.432-1.431 0-0.816 0.621-1.437 1.432-1.437 0.81 0 1.431 0.621 1.431 1.437m-2.491 0c0 0.62 0.444 1.096 1.061 1.096 0.615 0 1.06-0.476 1.06-1.096 0-0.621-0.444-1.102-1.06-1.102-0.617 0-1.061 0.481-1.061 1.102" clip-path="url(#SVGID_9_)"/>
		<polygon points="351.25 145.97 351.98 147.03 352.7 145.97 353.14 145.97 352.19 147.32 353.14 148.71 352.7 148.71 351.98 147.62 351.25 148.71 350.81 148.71 351.75 147.32 350.81 145.97" clip-path="url(#SVGID_9_)"/>
		<path d="m353.88 145.97h0.353v0.471h0.01c0.34-0.476 0.82-0.535 1.07-0.535 0.961 0 1.457 0.751 1.457 1.446 0 0.816-0.628 1.421-1.468 1.421-0.666 0-0.944-0.415-1.041-0.575h-9e-3v1.472h-0.372zm0.352 1.387c0 0.605 0.444 1.081 1.069 1.081 0.606 0 1.097-0.471 1.097-1.091 0-0.621-0.476-1.106-1.086-1.106-0.635 0-1.08 0.501-1.08 1.116" clip-path="url(#SVGID_9_)"/>
		<path d="m360.47 148.71h-0.349v-0.51h-0.011c-0.153 0.235-0.471 0.575-1.065 0.575-0.821 0-1.467-0.601-1.467-1.451 0-0.651 0.476-1.416 1.457-1.416 0.233 0 0.746 0.035 1.075 0.54h0.011v-0.476h0.349zm-2.521-1.356c0 0.626 0.51 1.086 1.096 1.086 0.601 0 1.076-0.481 1.076-1.081 0-0.62-0.465-1.116-1.086-1.116-0.597 0-1.086 0.475-1.086 1.111" clip-path="url(#SVGID_9_)"/>
		<polygon points="363.4 147.14 363.4 145.97 363.77 145.97 363.77 148.71 363.4 148.71 363.4 147.48 361.87 147.48 361.87 148.71 361.5 148.71 361.5 145.97 361.87 145.97 361.87 147.14" clip-path="url(#SVGID_9_)"/>
		<path d="m365.07 147.48c0.046 0.546 0.466 0.966 1.041 0.966 0.433 0 0.785-0.245 0.957-0.62h0.386c-0.222 0.59-0.722 0.955-1.343 0.955-0.805 0-1.426-0.611-1.426-1.431 0-0.676 0.496-1.436 1.426-1.436 1.037 0 1.412 0.86 1.406 1.566zm2.048-0.335c-0.105-0.556-0.529-0.896-1.007-0.896-0.524 0-0.95 0.375-1.041 0.896z" clip-path="url(#SVGID_9_)"/>
		<polygon points="370.34 147.14 370.34 145.97 370.71 145.97 370.71 148.71 370.34 148.71 370.34 147.48 368.81 147.48 368.81 148.71 368.44 148.71 368.44 145.97 368.81 145.97 368.81 147.14" clip-path="url(#SVGID_9_)"/>
		<polygon points="373.73 145.97 374.1 145.97 374.1 148.71 373.73 148.71 373.73 146.5 372.1 148.71 371.73 148.71 371.73 145.97 372.1 145.97 372.1 148.19" clip-path="url(#SVGID_9_)"/>
		<path d="m377.1 148.71h-0.371v-2.402h-0.736c-0.08 0-0.641 5e-3 -0.641 0.585 0 0.305 0.182 0.55 0.641 0.55h0.377l-0.913 1.267h-0.425l0.746-0.977c-0.471-0.034-0.795-0.384-0.795-0.86 0-0.466 0.354-0.901 1.01-0.901h1.107z" clip-path="url(#SVGID_9_)"/>
	</g></g>
	<g clip-path="url(#SVGID_2_)">
		<defs>
			<path id="SVGID_10_" d="m262.76 97.18c-0.588 0.169-12.726 2.374-12.726 2.374s-0.436-0.675-0.634-0.632c-1.03 0.224-2.019 0.444-3.051 0.686-0.535 0.125-1.336 0.363-1.633 0.481-0.089 0.035-0.043 0.098 0.021 0.173 0.114 0.136 0.297 0.339 0.399 0.482-0.173 0.058-0.273 0.095-0.372 0.125-2.094 0.627-4.179 1.441-6.228 2.622-1.834 1.057-3.637 2.193-5.22 3.804-1.143 1.163-2.023 2.441-2.43 3.896-0.542 1.937-0.114 3.399 0.904 4.498 1.54 1.663 3.727 2.165 6.386 1.696 3.413-0.602 6.391-2.607 8.903-5.759 2.761-3.467 3.837-7.044 3.325-10.517-0.028-0.187-0.09-0.267-0.306-0.21-1.04 0.279-1.555 0.399-2.07 0.542-0.542 0.15-1.985 0.628-2.139 0.692 0.059 0.756 0.208 1.515 0.162 2.254-0.17 2.754-1.44 5.257-3.903 7.391-0.541 0.469-1.167 0.903-1.77 1.162-0.783 0.337-1.562 0.394-2.285 0.306-2.06-0.245-2.853-2.093-1.863-4.355 0.598-1.366 1.585-2.49 2.701-3.508 1.597-1.453 3.345-2.553 5.15-3.447 1.757-0.87 3.512-1.354 5.276-1.827l13.834-2.978c-0.144 0.014-0.285 6e-3 -0.431 0.049"/>
		</defs>
		<clipPath id="SVGID_11_">
			<use width="100%" height="100%" overflow="visible" xlink:href="#SVGID_10_"/>
		</clipPath>
		<defs>
			<filter id="Adobe_OpacityMaskFilter_1_" x="230.34" y="97.131" width="32.847" height="20.723" filterUnits="userSpaceOnUse">
				<feColorMatrix values="1 0 0 0 0  0 1 0 0 0  0 0 1 0 0  0 0 0 1 0"/>
			</filter>
		</defs>
		<mask id="SVGID_12_" x="230.344" y="97.131" width="32.847" height="20.723" maskUnits="userSpaceOnUse">
			<g filter="url(#Adobe_OpacityMaskFilter_1_)">
				
					<linearGradient id="SVGID_13_" x2="1" y1="841.89" y2="841.89" gradientTransform="matrix(32.541 0 0 -32.541 230.65 27503)" gradientUnits="userSpaceOnUse">
					<stop stop-color="#fff" offset="0"/>
					<stop stop-color="#FBFBFB" offset=".1194"/>
					<stop stop-color="#eee" offset=".2442"/>
					<stop stop-color="#D9D9D9" offset=".3716"/>
					<stop stop-color="#BCBCBC" offset=".5006"/>
					<stop stop-color="#969696" offset=".631"/>
					<stop stop-color="#686868" offset=".7626"/>
					<stop stop-color="#323232" offset=".8925"/>
					<stop offset="1"/>
				</linearGradient>
				<rect x="230.34" y="97.131" width="32.847" height="20.723" clip-path="url(#SVGID_11_)" fill="url(#SVGID_13_)"/>
			</g>
		</mask>
		
			<linearGradient id="SVGID_14_" x2="1" y1="841.89" y2="841.89" gradientTransform="matrix(32.541 0 0 -32.541 230.65 27503)" gradientUnits="userSpaceOnUse">
			<stop stop-color="#1C86C4" offset="0"/>
			<stop stop-color="#2686C4" offset=".2599"/>
			<stop stop-color="#3886C4" offset=".5312"/>
			<stop stop-color="#4F86C4" offset=".8068"/>
			<stop stop-color="#6186C3" offset="1"/>
		</linearGradient>
		
			<rect x="230.34" y="97.131" width="32.847" height="20.723" clip-path="url(#SVGID_11_)" fill="url(#SVGID_14_)" mask="url(#SVGID_12_)"/>
	</g>
	<g clip-path="url(#SVGID_2_)">
		<defs>
			<rect id="SVGID_15_" width="595.28" height="841.89"/>
		</defs>
		<clipPath id="SVGID_16_">
			<use width="100%" height="100%" overflow="visible" xlink:href="#SVGID_15_"/>
		</clipPath>
		<path d="m262.69 95.265c-2.275 0.408-16.352 3.394-18.599 4.218-2.431 0.89-4.841 1.997-7.183 3.486-1.074 0.682-2.151 1.401-3.174 2.187-0.616 0.473-0.761 0.677-1.126 1.034-0.372 0.364-0.743 0.732-1.091 1.12-0.806 0.902-1.485 1.873-1.928 2.945-0.466 1.131-0.552 2.045-0.415 3.173-0.117-0.221-0.267-0.42-0.343-0.665-0.264-0.84-0.498-1.696-0.383-2.718 0.091-0.809 0.262-1.613 0.662-2.45 0.526-1.099 1.234-2.077 2.127-2.955 0.495-0.486 1.044-0.974 1.594-1.372 0.395-0.285 0.749-0.572 1.149-0.839 0.967-0.645 1.953-1.216 2.971-1.68 1.93-0.88 3.854-1.526 5.778-1.976 0.016-4e-3 0.033-0.029 0.097-0.087-1.869-0.814-3.929-0.806-6.326 0.359-2.344 1.139-4.249 2.9-5.854 5.133 0.218-0.739 0.576-1.444 0.981-2.135 1.48-2.527 3.474-4.466 5.961-5.76 2.537-1.319 4.93-1.691 7.152-1.199 1.743 0.386 3.129 1.258 4.176 2.582 0.057 0.073 0.199 0.087 0.314 0.081 0.66-0.033 13.247-2.556 13.91-2.598" clip-path="url(#SVGID_16_)" fill="#fff"/><g fill="#2090c9">
		<path d="m249.32 123.41c1.279-2.639 3.834-4.164 7.029-4.164 5.362 0 7.916 4.308 7.916 7.853 0 4.66-3.545 7.937-8.039 7.937-2.988 0-5.545-1.587-6.967-4.246h1.813c1.217 1.958 3.32 2.865 5.154 2.865 3.278 0 6.184-2.349 6.514-5.875h-8.945v-1.381h8.945c-0.371-3.216-2.906-5.772-6.41-5.772-2.041 0-4.061 0.866-5.196 2.783z" clip-path="url(#SVGID_16_)"/>
		<path d="m266.95 123.49h1.525v11.276h-1.525zm2.412 5.566 4.412-5.566h1.793l-4.328 5.442 4.617 5.834h-1.959z" clip-path="url(#SVGID_16_)"/>
		<path d="m288.84 131.47c-0.764 1.67-2.393 3.566-5.484 3.566-3.856 0-6.02-2.967-6.02-5.916 0-2.7 2.082-5.895 6.02-5.895 2.617 0 4.617 1.464 5.504 3.689h-1.711c-1.133-2.225-3.278-2.308-3.793-2.308-2.618 0-4.495 2-4.495 4.494 0 2.577 2.042 4.556 4.495 4.556 1.546 0 2.988-0.763 3.793-2.186z" clip-path="url(#SVGID_16_)"/>
		<polygon points="299.45 134.77 299.45 124.88 293.14 124.88 293.14 134.77 291.62 134.77 291.62 123.49 300.98 123.49 300.98 134.77" clip-path="url(#SVGID_16_)"/>
		<path d="m305.24 129.68c0.187 2.247 1.918 3.978 4.289 3.978 1.772 0 3.237-1.009 3.938-2.555h1.586c-0.906 2.431-2.97 3.936-5.524 3.936-3.32 0-5.875-2.514-5.875-5.895 0-2.783 2.039-5.916 5.875-5.916 4.267 0 5.813 3.546 5.791 6.452zm8.433-1.381c-0.435-2.288-2.187-3.69-4.144-3.69-2.166 0-3.918 1.545-4.289 3.69z" clip-path="url(#SVGID_16_)"/>
		<path d="m318 123.49h1.443v1.938h0.041c1.401-1.958 3.381-2.206 4.411-2.206 3.957 0 5.998 3.092 5.998 5.957 0 3.361-2.575 5.855-6.039 5.855-2.741 0-3.896-1.711-4.289-2.37h-0.041v6.06h-1.524zm1.443 5.71c0 2.495 1.834 4.453 4.411 4.453 2.494 0 4.515-1.937 4.515-4.494 0-2.556-1.957-4.556-4.474-4.556-2.618-1e-3 -4.452 2.061-4.452 4.597" clip-path="url(#SVGID_16_)"/>
		<polygon points="335.96 124.88 335.96 134.77 334.43 134.77 334.43 124.88 331.52 124.88 331.52 123.49 338.86 123.49 338.86 124.88" clip-path="url(#SVGID_16_)"/></g><g fill="#fff">
		<path d="m252.5 101.45h1.443v1.938h0.041c1.4-1.959 3.381-2.206 4.41-2.206 3.959 0 6 3.092 6 5.957 0 3.36-2.578 5.855-6.041 5.855-2.742 0-3.896-1.711-4.287-2.37h-0.041v6.06h-1.525zm1.443 5.71c0 2.494 1.834 4.452 4.41 4.452 2.494 0 4.516-1.938 4.516-4.494s-1.959-4.555-4.475-4.555c-2.617 0-4.451 2.061-4.451 4.597" clip-path="url(#SVGID_16_)"/>
		<polygon points="268.6 102.83 268.6 112.72 267.07 112.72 267.07 101.45 272.94 101.45 272.94 102.83" clip-path="url(#SVGID_16_)"/>
		<path d="m279.42 97.2c3.154 0 4.393 2.103 4.393 4.103 0 1.855-1.114 2.906-2.311 3.442 1.773 0.454 2.723 2.02 2.723 3.835 0 2.226-1.547 4.411-4.928 4.411-3.463 0-5.133-2.433-4.969-4.927h1.526c-0.061 1.773 0.97 3.545 3.443 3.545 2.268 0 3.402-1.318 3.402-2.988 0-1.629-1.011-3.092-3.547-3.092h-0.906v-1.382h0.906c2.557 0 3.133-1.67 3.133-2.865 0-1.113-0.658-2.7-2.844-2.7-2 0-2.927 1.401-2.886 2.865h-1.526c-0.061-2.123 1.28-4.247 4.391-4.247" clip-path="url(#SVGID_16_)"/>
		<path d="m297.16 111.34h1.176v4.268h-1.525v-2.887h-9.731v2.887h-1.525v-4.268h1.174l4.392-9.895h1.649zm-1.648 0-3.566-8.184-3.567 8.184z" clip-path="url(#SVGID_16_)"/>
		<path d="m300.36 101.45h1.443v1.938h0.041c1.401-1.959 3.381-2.206 4.411-2.206 3.957 0 5.998 3.092 5.998 5.957 0 3.36-2.575 5.855-6.038 5.855-2.742 0-3.896-1.711-4.289-2.37h-0.041v6.06h-1.525zm1.444 5.71c0 2.494 1.834 4.452 4.412 4.452 2.493 0 4.514-1.938 4.514-4.494s-1.957-4.555-4.474-4.555c-2.618 0-4.452 2.061-4.452 4.597" clip-path="url(#SVGID_16_)"/>
		<path d="m326.41 112.72h-1.444v-2.102h-0.041c-0.638 0.969-1.937 2.37-4.39 2.37-3.381 0-6.039-2.473-6.039-5.978 0-2.68 1.957-5.833 5.998-5.833 0.968 0 3.072 0.144 4.431 2.226h0.041v-1.958h1.444zm-10.389-5.586c0 2.576 2.102 4.473 4.514 4.473 2.474 0 4.431-1.979 4.431-4.452 0-2.556-1.916-4.597-4.472-4.597-2.453 0-4.473 1.958-4.473 4.576" clip-path="url(#SVGID_16_)"/>
		<path d="m333.56 101.45c2.638 0 3.34 1.649 3.34 3.01 0 1.073-0.598 1.938-1.504 2.329 1.154 0.31 1.916 1.361 1.916 2.68 0 1.753-1.237 3.257-3.627 3.257h-4.164v-11.276zm-2.514 4.803h2.411c1.195 0 1.916-0.701 1.916-1.793 0-1.649-1.565-1.629-1.916-1.629h-2.411zm0 5.092h2.473c1.795 0 2.267-1.072 2.267-1.855 0-0.474-0.144-1.856-2.267-1.856h-2.473z" clip-path="url(#SVGID_16_)"/>
		<polygon points="251.84 317.98 251.47 317.98 251.47 314.61 249.55 314.61 249.55 317.98 249.18 317.98 249.18 314.28 251.84 314.28" clip-path="url(#SVGID_16_)"/>
		<path d="m252.92 315.24h0.351v0.47h0.01c0.34-0.475 0.82-0.535 1.071-0.535 0.961 0 1.456 0.751 1.456 1.446 0 0.816-0.626 1.422-1.467 1.422-0.665 0-0.945-0.416-1.041-0.576h-9e-3v1.472h-0.371zm0.351 1.386c0 0.606 0.445 1.081 1.07 1.081 0.606 0 1.097-0.47 1.097-1.091 0-0.62-0.476-1.106-1.086-1.106-0.636 0-1.081 0.501-1.081 1.116" clip-path="url(#SVGID_16_)"/>
		<path d="m259.48 316.61c0 0.815-0.626 1.431-1.431 1.431-0.806 0-1.432-0.616-1.432-1.431 0-0.816 0.621-1.437 1.432-1.437 0.81 0 1.431 0.621 1.431 1.437m-2.493 0c0 0.621 0.446 1.096 1.062 1.096 0.615 0 1.061-0.475 1.061-1.096s-0.446-1.101-1.061-1.101c-0.616 0-1.062 0.48-1.062 1.101" clip-path="url(#SVGID_16_)"/>
		<path d="m260.39 315.24h0.351v0.47h0.01c0.34-0.475 0.82-0.535 1.071-0.535 0.961 0 1.456 0.751 1.456 1.446 0 0.816-0.626 1.422-1.467 1.422-0.665 0-0.945-0.416-1.041-0.576h-9e-3v1.472h-0.371zm0.351 1.386c0 0.606 0.445 1.081 1.07 1.081 0.606 0 1.097-0.47 1.097-1.091 0-0.62-0.476-1.106-1.086-1.106-0.637 0-1.081 0.501-1.081 1.116" clip-path="url(#SVGID_16_)"/>
		<path d="m264.57 315.24v1.047h0.735c0.741 0 0.932 0.53 0.932 0.846 0 0.315-0.191 0.845-0.932 0.845h-1.105v-2.738zm0 2.403h0.73c0.391 0 0.566-0.245 0.566-0.51 0-0.266-0.175-0.511-0.566-0.511h-0.73zm2.032-2.403h0.37v2.738h-0.37z" clip-path="url(#SVGID_16_)"/>
		<path d="m268.98 315.24c0.641 0 0.812 0.4 0.812 0.731 0 0.26-0.146 0.47-0.366 0.565 0.281 0.075 0.465 0.33 0.465 0.65 0 0.426-0.299 0.791-0.88 0.791h-1.011v-2.737zm-0.61 1.166h0.586c0.29 0 0.465-0.17 0.465-0.435 0-0.401-0.38-0.396-0.465-0.396h-0.586zm0 1.236h0.601c0.435 0 0.55-0.26 0.55-0.45 0-0.115-0.035-0.451-0.55-0.451h-0.601z" clip-path="url(#SVGID_16_)"/>
		<path d="m273.33 315.24c0.641 0 0.812 0.4 0.812 0.731 0 0.26-0.146 0.47-0.365 0.565 0.279 0.075 0.464 0.33 0.464 0.65 0 0.426-0.299 0.791-0.88 0.791h-1.011v-2.737zm-0.61 1.166h0.586c0.29 0 0.465-0.17 0.465-0.435 0-0.401-0.38-0.396-0.465-0.396h-0.586zm0 1.236h0.601c0.435 0 0.55-0.26 0.55-0.45 0-0.115-0.035-0.451-0.55-0.451h-0.601z" clip-path="url(#SVGID_16_)"/>
		<polygon points="277.06 318.94 277.52 317.85 276.44 315.24 276.88 315.24 277.74 317.37 278.64 315.24 279.04 315.24 277.46 318.94" clip-path="url(#SVGID_16_)"/>
		<polygon points="281.68 317.98 281.68 315.58 280.15 315.58 280.15 317.98 279.78 317.98 279.78 315.24 282.05 315.24 282.05 317.98" clip-path="url(#SVGID_16_)"/>
		<path d="m283.07 315.24h0.351v0.47h0.01c0.34-0.475 0.82-0.535 1.071-0.535 0.961 0 1.456 0.751 1.456 1.446 0 0.816-0.626 1.422-1.467 1.422-0.665 0-0.945-0.416-1.041-0.576h-9e-3v1.472h-0.371zm0.351 1.386c0 0.606 0.445 1.081 1.07 1.081 0.606 0 1.097-0.47 1.097-1.091 0-0.62-0.476-1.106-1.086-1.106-0.636 0-1.081 0.501-1.081 1.116" clip-path="url(#SVGID_16_)"/>
		<path d="m289.67 317.98h-0.349v-0.51h-0.01c-0.155 0.235-0.471 0.575-1.066 0.575-0.822 0-1.467-0.6-1.467-1.451 0-0.651 0.475-1.416 1.457-1.416 0.234 0 0.745 0.035 1.076 0.54h0.01v-0.475h0.349zm-2.521-1.356c0 0.626 0.51 1.086 1.096 1.086 0.6 0 1.076-0.481 1.076-1.081 0-0.62-0.466-1.116-1.086-1.116-0.596 0-1.086 0.475-1.086 1.111" clip-path="url(#SVGID_16_)"/>
		<path d="m291.67 315.24c0.641 0 0.813 0.4 0.813 0.731 0 0.26-0.146 0.47-0.365 0.565 0.279 0.075 0.464 0.33 0.464 0.65 0 0.426-0.299 0.791-0.88 0.791h-1.011v-2.737zm-0.61 1.166h0.586c0.29 0 0.465-0.17 0.465-0.435 0-0.401-0.38-0.396-0.465-0.396h-0.586zm0 1.236h0.601c0.435 0 0.55-0.26 0.55-0.45 0-0.115-0.035-0.451-0.55-0.451h-0.601z" clip-path="url(#SVGID_16_)"/>
		<polygon points="294.57 315.71 293.61 317.98 293.21 317.98 294.38 315.24 294.76 315.24 295.93 317.98 295.53 317.98" clip-path="url(#SVGID_16_)"/>
		<path d="m296.96 316.74c0.044 0.546 0.465 0.966 1.041 0.966 0.432 0 0.785-0.245 0.956-0.62h0.386c-0.221 0.59-0.722 0.955-1.342 0.955-0.806 0-1.427-0.61-1.427-1.431 0-0.676 0.496-1.436 1.427-1.436 1.036 0 1.411 0.86 1.406 1.566zm2.048-0.335c-0.105-0.556-0.53-0.896-1.007-0.896-0.524 0-0.95 0.375-1.041 0.896z" clip-path="url(#SVGID_16_)"/>
		<polygon points="302.22 316.41 302.22 315.24 302.6 315.24 302.6 317.98 302.22 317.98 302.22 316.74 300.69 316.74 300.69 317.98 300.32 317.98 300.32 315.24 300.69 315.24 300.69 316.41" clip-path="url(#SVGID_16_)"/>
		<polygon points="305.62 315.24 305.99 315.24 305.99 317.98 305.62 317.98 305.62 315.77 303.99 317.98 303.62 317.98 303.62 315.24 303.99 315.24 303.99 317.45" clip-path="url(#SVGID_16_)"/>
		<polygon points="309.02 315.24 309.39 315.24 309.39 317.98 309.02 317.98 309.02 315.77 307.38 317.98 307.02 317.98 307.02 315.24 307.38 315.24 307.38 317.45" clip-path="url(#SVGID_16_)"/>
	</g></g>
	<g clip-path="url(#SVGID_2_)">
		<defs>
			<path id="SVGID_17_" d="m228.39 306.65c5.806-5.883 11.088-11.325 16.504-16.63 0.84-0.823 2.283-1.419 3.461-1.442 6.796-0.135 21.904-0.177 22.555-0.224-14.202-14.258-28.311-28.423-42.52-42.689z"/>
		</defs>
		<clipPath id="SVGID_18_">
			<use width="100%" height="100%" overflow="visible" xlink:href="#SVGID_17_"/>
		</clipPath>
		<defs>
			<filter id="Adobe_OpacityMaskFilter_2_" x="228.39" y="245.67" width="42.52" height="60.985" filterUnits="userSpaceOnUse">
				<feColorMatrix values="1 0 0 0 0  0 1 0 0 0  0 0 1 0 0  0 0 0 1 0"/>
			</filter>
		</defs>
		<mask id="SVGID_19_" x="228.393" y="245.667" width="42.52" height="60.985" maskUnits="userSpaceOnUse">
			<g filter="url(#Adobe_OpacityMaskFilter_2_)">
				
					<linearGradient id="SVGID_20_" x2="1" y1="841.89" y2="841.89" gradientTransform="matrix(0 -60.985 -60.985 0 51592 306.66)" gradientUnits="userSpaceOnUse">
					<stop stop-color="#fff" offset="0"/>
					<stop stop-color="#fff" offset=".006"/>
					<stop stop-color="#fff" offset=".4345"/>
					<stop stop-color="#FBFBFB" offset=".6725"/>
					<stop stop-color="#F0F0F0" offset=".8999"/>
					<stop stop-color="#E8E8E8" offset="1"/>
				</linearGradient>
				<rect x="228.39" y="245.67" width="42.52" height="60.985" clip-path="url(#SVGID_18_)" fill="url(#SVGID_20_)"/>
			</g>
		</mask>
		
			<linearGradient id="SVGID_21_" x2="1" y1="841.89" y2="841.89" gradientTransform="matrix(0 -60.985 -60.985 0 51592 306.66)" gradientUnits="userSpaceOnUse">
			<stop stop-color="#73B8E5" offset="0"/>
			<stop stop-color="#73B8E5" offset=".006"/>
			<stop stop-color="#222A44" offset=".4345"/>
			<stop stop-color="#232B45" offset=".5156"/>
			<stop stop-color="#28304B" offset=".5929"/>
			<stop stop-color="#313A56" offset=".6686"/>
			<stop stop-color="#404B66" offset=".7435"/>
			<stop stop-color="#566480" offset=".8176"/>
			<stop stop-color="#788AA4" offset=".8914"/>
			<stop stop-color="#A7BED7" offset=".9633"/>
			<stop stop-color="#C6E1F7" offset="1"/>
		</linearGradient>
		
			<rect x="228.39" y="245.67" width="42.52" height="60.985" clip-path="url(#SVGID_18_)" fill="url(#SVGID_21_)" mask="url(#SVGID_19_)"/>
	</g>
	<g clip-path="url(#SVGID_2_)">
		<defs>
			<path id="SVGID_22_" d="m262.76 267.38c-0.588 0.17-12.726 2.375-12.726 2.375s-0.436-0.675-0.634-0.631c-1.03 0.224-2.019 0.443-3.051 0.684-0.535 0.126-1.336 0.365-1.633 0.483-0.089 0.036-0.043 0.098 0.021 0.174 0.114 0.134 0.297 0.339 0.399 0.481-0.173 0.058-0.273 0.095-0.372 0.124-2.094 0.628-4.179 1.441-6.228 2.623-1.834 1.056-3.637 2.192-5.22 3.803-1.143 1.163-2.023 2.442-2.43 3.896-0.542 1.937-0.114 3.4 0.904 4.499 1.54 1.663 3.727 2.165 6.386 1.696 3.413-0.602 6.391-2.606 8.903-5.76 2.761-3.467 3.837-7.043 3.325-10.516-0.028-0.188-0.09-0.268-0.306-0.209-1.04 0.278-1.555 0.398-2.07 0.541-0.542 0.149-1.985 0.628-2.139 0.692 0.059 0.756 0.208 1.514 0.162 2.253-0.17 2.754-1.44 5.257-3.903 7.392-0.541 0.468-1.167 0.903-1.77 1.162-0.783 0.337-1.562 0.393-2.285 0.307-2.06-0.247-2.853-2.095-1.863-4.356 0.598-1.366 1.585-2.49 2.701-3.507 1.597-1.455 3.345-2.555 5.15-3.448 1.757-0.87 3.512-1.355 5.276-1.827l13.834-2.978c-0.144 0.015-0.285 6e-3 -0.431 0.047"/>
		</defs>
		<clipPath id="SVGID_23_">
			<use width="100%" height="100%" overflow="visible" xlink:href="#SVGID_22_"/>
		</clipPath>
		<defs>
			<filter id="Adobe_OpacityMaskFilter_3_" x="230.34" y="267.33" width="32.847" height="20.723" filterUnits="userSpaceOnUse">
				<feColorMatrix values="1 0 0 0 0  0 1 0 0 0  0 0 1 0 0  0 0 0 1 0"/>
			</filter>
		</defs>
		<mask id="SVGID_24_" x="230.344" y="267.335" width="32.847" height="20.723" maskUnits="userSpaceOnUse">
			<g filter="url(#Adobe_OpacityMaskFilter_3_)">
				
					<linearGradient id="SVGID_25_" x2="1" y1="841.89" y2="841.89" gradientTransform="matrix(32.541 0 0 -32.541 230.65 27674)" gradientUnits="userSpaceOnUse">
					<stop stop-color="#fff" offset="0"/>
					<stop stop-color="#FBFBFB" offset=".1194"/>
					<stop stop-color="#eee" offset=".2442"/>
					<stop stop-color="#D9D9D9" offset=".3716"/>
					<stop stop-color="#BCBCBC" offset=".5006"/>
					<stop stop-color="#969696" offset=".631"/>
					<stop stop-color="#686868" offset=".7626"/>
					<stop stop-color="#323232" offset=".8925"/>
					<stop offset="1"/>
				</linearGradient>
				<rect x="230.34" y="267.33" width="32.847" height="20.723" clip-path="url(#SVGID_23_)" fill="url(#SVGID_25_)"/>
			</g>
		</mask>
		
			<linearGradient id="SVGID_26_" x2="1" y1="841.89" y2="841.89" gradientTransform="matrix(32.541 0 0 -32.541 230.65 27674)" gradientUnits="userSpaceOnUse">
			<stop stop-color="#1C86C4" offset="0"/>
			<stop stop-color="#2686C4" offset=".2599"/>
			<stop stop-color="#3886C4" offset=".5312"/>
			<stop stop-color="#4F86C4" offset=".8068"/>
			<stop stop-color="#6186C3" offset="1"/>
		</linearGradient>
		
			<rect x="230.34" y="267.33" width="32.847" height="20.723" clip-path="url(#SVGID_23_)" fill="url(#SVGID_26_)" mask="url(#SVGID_24_)"/>
	</g>
	<g clip-path="url(#SVGID_2_)">
		<defs>
			<rect id="SVGID_27_" width="595.28" height="841.89"/>
		</defs>
		<clipPath id="SVGID_28_">
			<use width="100%" height="100%" overflow="visible" xlink:href="#SVGID_27_"/>
		</clipPath>
		<path d="m262.69 265.47c-2.275 0.408-16.352 3.394-18.599 4.218-2.431 0.89-4.841 1.996-7.183 3.485-1.074 0.683-2.151 1.401-3.174 2.188-0.616 0.473-0.761 0.677-1.126 1.034-0.372 0.364-0.743 0.732-1.091 1.119-0.806 0.903-1.485 1.874-1.928 2.946-0.466 1.131-0.552 2.045-0.415 3.173-0.117-0.221-0.267-0.42-0.343-0.665-0.264-0.84-0.498-1.696-0.383-2.718 0.091-0.809 0.262-1.613 0.662-2.45 0.526-1.099 1.234-2.077 2.127-2.955 0.495-0.486 1.044-0.974 1.594-1.372 0.395-0.285 0.749-0.572 1.149-0.839 0.967-0.645 1.953-1.216 2.971-1.681 1.93-0.879 3.854-1.525 5.778-1.975 0.016-4e-3 0.033-0.029 0.097-0.087-1.869-0.814-3.929-0.807-6.326 0.359-2.344 1.139-4.249 2.9-5.854 5.132 0.218-0.738 0.576-1.443 0.981-2.134 1.48-2.527 3.474-4.466 5.961-5.76 2.537-1.319 4.93-1.691 7.152-1.199 1.743 0.386 3.129 1.258 4.176 2.582 0.057 0.073 0.199 0.087 0.314 0.081 0.66-0.033 13.247-2.556 13.91-2.599" clip-path="url(#SVGID_28_)" fill="#fff"/><g fill="#2090c9">
		<path d="m249.32 293.61c1.279-2.639 3.834-4.164 7.029-4.164 5.362 0 7.916 4.308 7.916 7.853 0 4.66-3.545 7.937-8.039 7.937-2.988 0-5.545-1.587-6.967-4.246h1.813c1.217 1.958 3.32 2.865 5.154 2.865 3.278 0 6.184-2.349 6.514-5.875h-8.945v-1.381h8.945c-0.371-3.216-2.906-5.772-6.41-5.772-2.041 0-4.061 0.866-5.196 2.783z" clip-path="url(#SVGID_28_)"/>
		<path d="m266.95 293.7h1.525v11.276h-1.525zm2.412 5.566 4.412-5.566h1.793l-4.328 5.442 4.617 5.834h-1.959z" clip-path="url(#SVGID_28_)"/>
		<path d="m288.84 301.67c-0.764 1.67-2.393 3.566-5.484 3.566-3.856 0-6.02-2.967-6.02-5.916 0-2.7 2.082-5.895 6.02-5.895 2.617 0 4.617 1.464 5.504 3.689h-1.711c-1.133-2.225-3.278-2.308-3.793-2.308-2.618 0-4.495 2-4.495 4.494 0 2.577 2.042 4.556 4.495 4.556 1.546 0 2.988-0.763 3.793-2.186z" clip-path="url(#SVGID_28_)"/>
		<polygon points="299.45 304.97 299.45 295.08 293.14 295.08 293.14 304.97 291.62 304.97 291.62 293.7 300.98 293.7 300.98 304.97" clip-path="url(#SVGID_28_)"/>
		<path d="m305.24 299.88c0.187 2.247 1.918 3.978 4.289 3.978 1.772 0 3.237-1.009 3.938-2.555h1.586c-0.906 2.431-2.97 3.936-5.524 3.936-3.32 0-5.875-2.514-5.875-5.895 0-2.783 2.039-5.916 5.875-5.916 4.267 0 5.813 3.546 5.791 6.452zm8.433-1.381c-0.435-2.288-2.187-3.69-4.144-3.69-2.166 0-3.918 1.545-4.289 3.69z" clip-path="url(#SVGID_28_)"/>
		<path d="m318 293.7h1.443v1.938h0.041c1.401-1.958 3.381-2.206 4.411-2.206 3.957 0 5.998 3.092 5.998 5.957 0 3.361-2.575 5.855-6.039 5.855-2.741 0-3.896-1.711-4.289-2.37h-0.041v6.06h-1.524zm1.443 5.71c0 2.495 1.834 4.453 4.411 4.453 2.494 0 4.515-1.937 4.515-4.494 0-2.556-1.957-4.556-4.474-4.556-2.618 0-4.452 2.062-4.452 4.597" clip-path="url(#SVGID_28_)"/>
		<polygon points="335.96 295.08 335.96 304.97 334.43 304.97 334.43 295.08 331.52 295.08 331.52 293.7 338.86 293.7 338.86 295.08" clip-path="url(#SVGID_28_)"/></g><g fill="#fff">
		<path d="m252.5 271.65h1.443v1.938h0.041c1.4-1.959 3.381-2.206 4.41-2.206 3.959 0 6 3.092 6 5.957 0 3.36-2.578 5.855-6.041 5.855-2.742 0-3.896-1.711-4.287-2.37h-0.041v6.06h-1.525zm1.443 5.71c0 2.494 1.834 4.452 4.41 4.452 2.494 0 4.516-1.937 4.516-4.494 0-2.556-1.959-4.555-4.475-4.555-2.617 0-4.451 2.061-4.451 4.597" clip-path="url(#SVGID_28_)"/>
		<polygon points="268.6 273.03 268.6 282.92 267.07 282.92 267.07 271.65 272.94 271.65 272.94 273.03" clip-path="url(#SVGID_28_)"/>
		<path d="m279.42 267.4c3.154 0 4.393 2.103 4.393 4.103 0 1.855-1.114 2.906-2.311 3.442 1.773 0.454 2.723 2.02 2.723 3.835 0 2.226-1.547 4.411-4.928 4.411-3.463 0-5.133-2.433-4.969-4.927h1.526c-0.061 1.773 0.97 3.545 3.443 3.545 2.268 0 3.402-1.318 3.402-2.988 0-1.629-1.011-3.092-3.547-3.092h-0.906v-1.382h0.906c2.557 0 3.133-1.67 3.133-2.865 0-1.113-0.658-2.7-2.844-2.7-2 0-2.927 1.401-2.886 2.865h-1.526c-0.061-2.123 1.28-4.247 4.391-4.247" clip-path="url(#SVGID_28_)"/>
		<path d="m297.16 281.54h1.176v4.268h-1.525v-2.887h-9.731v2.887h-1.525v-4.268h1.174l4.392-9.895h1.649zm-1.648 0-3.566-8.184-3.567 8.184z" clip-path="url(#SVGID_28_)"/>
		<path d="m300.36 271.65h1.443v1.938h0.041c1.401-1.959 3.381-2.206 4.411-2.206 3.957 0 5.998 3.092 5.998 5.957 0 3.36-2.575 5.855-6.038 5.855-2.742 0-3.896-1.711-4.289-2.37h-0.041v6.06h-1.525zm1.444 5.71c0 2.494 1.834 4.452 4.412 4.452 2.493 0 4.514-1.937 4.514-4.494 0-2.556-1.957-4.555-4.474-4.555-2.618 0-4.452 2.061-4.452 4.597" clip-path="url(#SVGID_28_)"/>
		<path d="m326.41 282.93h-1.444v-2.102h-0.041c-0.638 0.969-1.937 2.37-4.39 2.37-3.381 0-6.039-2.473-6.039-5.978 0-2.68 1.957-5.833 5.998-5.833 0.968 0 3.072 0.144 4.431 2.226h0.041v-1.958h1.444zm-10.389-5.586c0 2.576 2.102 4.473 4.514 4.473 2.474 0 4.431-1.979 4.431-4.452 0-2.556-1.916-4.597-4.472-4.597-2.453 0-4.473 1.958-4.473 4.576" clip-path="url(#SVGID_28_)"/>
		<path d="m333.56 271.65c2.638 0 3.34 1.649 3.34 3.01 0 1.073-0.598 1.938-1.504 2.329 1.154 0.31 1.916 1.361 1.916 2.68 0 1.753-1.237 3.257-3.627 3.257h-4.164v-11.276zm-2.514 4.803h2.411c1.195 0 1.916-0.701 1.916-1.793 0-1.649-1.565-1.629-1.916-1.629h-2.411zm0 5.092h2.473c1.795 0 2.267-1.072 2.267-1.855 0-0.474-0.144-1.856-2.267-1.856h-2.473z" clip-path="url(#SVGID_28_)"/>
	</g></g>
	<g clip-path="url(#SVGID_2_)">
		<defs>
			<path id="SVGID_29_" d="m228.39 486.92c5.806-5.884 11.088-11.325 16.504-16.63 0.84-0.822 2.283-1.417 3.461-1.441 6.796-0.136 21.904-0.177 22.555-0.224-14.202-14.26-28.311-28.425-42.52-42.69z"/>
		</defs>
		<clipPath id="SVGID_30_">
			<use width="100%" height="100%" overflow="visible" xlink:href="#SVGID_29_"/>
		</clipPath>
		<defs>
			<filter id="Adobe_OpacityMaskFilter_4_" x="228.39" y="425.93" width="42.52" height="60.985" filterUnits="userSpaceOnUse">
				<feColorMatrix values="1 0 0 0 0  0 1 0 0 0  0 0 1 0 0  0 0 0 1 0"/>
			</filter>
		</defs>
		<mask id="SVGID_31_" x="228.393" y="425.933" width="42.52" height="60.985" maskUnits="userSpaceOnUse">
			<g filter="url(#Adobe_OpacityMaskFilter_4_)">
				
					<linearGradient id="SVGID_32_" x2="1" y1="841.89" y2="841.89" gradientTransform="matrix(0 -60.985 -60.985 0 51592 486.91)" gradientUnits="userSpaceOnUse">
					<stop stop-color="#fff" offset="0"/>
					<stop stop-color="#fff" offset=".006"/>
					<stop stop-color="#fff" offset=".4345"/>
					<stop stop-color="#FBFBFB" offset=".6725"/>
					<stop stop-color="#F0F0F0" offset=".8999"/>
					<stop stop-color="#E8E8E8" offset="1"/>
				</linearGradient>
				<rect x="228.39" y="425.93" width="42.52" height="60.985" clip-path="url(#SVGID_30_)" fill="url(#SVGID_32_)"/>
			</g>
		</mask>
		
			<linearGradient id="SVGID_33_" x1="-.00048828" x2=".9995" y1="841.89" y2="841.89" gradientTransform="matrix(0 -60.985 -60.985 0 51592 486.91)" gradientUnits="userSpaceOnUse">
			<stop stop-color="#73B8E5" offset="0"/>
			<stop stop-color="#73B8E5" offset=".006"/>
			<stop stop-color="#222A44" offset=".4345"/>
			<stop stop-color="#232B45" offset=".5156"/>
			<stop stop-color="#28304B" offset=".5929"/>
			<stop stop-color="#313A56" offset=".6686"/>
			<stop stop-color="#404B66" offset=".7435"/>
			<stop stop-color="#566480" offset=".8176"/>
			<stop stop-color="#788AA4" offset=".8914"/>
			<stop stop-color="#A7BED7" offset=".9633"/>
			<stop stop-color="#C6E1F7" offset="1"/>
		</linearGradient>
		
			<rect x="228.39" y="425.93" width="42.52" height="60.985" clip-path="url(#SVGID_30_)" fill="url(#SVGID_33_)" mask="url(#SVGID_31_)"/>
	</g>
	<g clip-path="url(#SVGID_2_)">
		<defs>
			<path id="SVGID_34_" d="m262.76 447.65c-0.588 0.171-12.726 2.375-12.726 2.375s-0.436-0.675-0.634-0.632c-1.03 0.225-2.019 0.445-3.051 0.686-0.535 0.127-1.336 0.363-1.633 0.482-0.089 0.035-0.043 0.097 0.021 0.173 0.114 0.136 0.297 0.339 0.399 0.481-0.173 0.059-0.273 0.095-0.372 0.124-2.094 0.628-4.179 1.44-6.228 2.623-1.834 1.057-3.637 2.192-5.22 3.804-1.143 1.162-2.023 2.441-2.43 3.896-0.542 1.937-0.114 3.398 0.904 4.498 1.54 1.661 3.727 2.164 6.386 1.695 3.413-0.602 6.391-2.606 8.903-5.759 2.761-3.467 3.837-7.044 3.325-10.517-0.028-0.187-0.09-0.268-0.306-0.211-1.04 0.28-1.555 0.399-2.07 0.541-0.542 0.15-1.985 0.631-2.139 0.694 0.059 0.756 0.208 1.514 0.162 2.254-0.17 2.754-1.44 5.256-3.903 7.391-0.541 0.469-1.167 0.903-1.77 1.161-0.783 0.338-1.562 0.394-2.285 0.308-2.06-0.246-2.853-2.094-1.863-4.357 0.598-1.364 1.585-2.489 2.701-3.506 1.597-1.455 3.345-2.554 5.15-3.447 1.757-0.869 3.512-1.354 5.276-1.827l13.834-2.979c-0.144 0.015-0.285 8e-3 -0.431 0.049"/>
		</defs>
		<clipPath id="SVGID_35_">
			<use width="100%" height="100%" overflow="visible" xlink:href="#SVGID_34_"/>
		</clipPath>
		<defs>
			<filter id="Adobe_OpacityMaskFilter_5_" x="230.34" y="447.6" width="32.847" height="20.723" filterUnits="userSpaceOnUse">
				<feColorMatrix values="1 0 0 0 0  0 1 0 0 0  0 0 1 0 0  0 0 0 1 0"/>
			</filter>
		</defs>
		<mask id="SVGID_36_" x="230.344" y="447.601" width="32.847" height="20.723" maskUnits="userSpaceOnUse">
			<g filter="url(#Adobe_OpacityMaskFilter_5_)">
				
					<linearGradient id="SVGID_37_" x2="1" y1="841.89" y2="841.89" gradientTransform="matrix(32.541 0 0 -32.541 230.65 27854)" gradientUnits="userSpaceOnUse">
					<stop stop-color="#fff" offset="0"/>
					<stop stop-color="#FBFBFB" offset=".1194"/>
					<stop stop-color="#eee" offset=".2442"/>
					<stop stop-color="#D9D9D9" offset=".3716"/>
					<stop stop-color="#BCBCBC" offset=".5006"/>
					<stop stop-color="#969696" offset=".631"/>
					<stop stop-color="#686868" offset=".7626"/>
					<stop stop-color="#323232" offset=".8925"/>
					<stop offset="1"/>
				</linearGradient>
				<rect x="230.34" y="447.6" width="32.847" height="20.723" clip-path="url(#SVGID_35_)" fill="url(#SVGID_37_)"/>
			</g>
		</mask>
		
			<linearGradient id="SVGID_38_" x2="1" y1="841.89" y2="841.89" gradientTransform="matrix(32.541 0 0 -32.541 230.65 27854)" gradientUnits="userSpaceOnUse">
			<stop stop-color="#1C86C4" offset="0"/>
			<stop stop-color="#2686C4" offset=".2599"/>
			<stop stop-color="#3886C4" offset=".5312"/>
			<stop stop-color="#4F86C4" offset=".8068"/>
			<stop stop-color="#6186C3" offset="1"/>
		</linearGradient>
		
			<rect x="230.34" y="447.6" width="32.847" height="20.723" clip-path="url(#SVGID_35_)" fill="url(#SVGID_38_)" mask="url(#SVGID_36_)"/>
	</g>
	<g clip-path="url(#SVGID_2_)">
		<defs>
			<rect id="SVGID_39_" width="595.28" height="841.89"/>
		</defs>
		<clipPath id="SVGID_40_">
			<use width="100%" height="100%" overflow="visible" xlink:href="#SVGID_39_"/>
		</clipPath>
		<path d="m262.69 445.74c-2.275 0.408-16.352 3.395-18.599 4.218-2.431 0.89-4.841 1.997-7.183 3.485-1.074 0.683-2.151 1.4-3.174 2.188-0.616 0.473-0.761 0.677-1.126 1.033-0.372 0.363-0.743 0.731-1.091 1.12-0.806 0.902-1.485 1.873-1.928 2.945-0.466 1.13-0.552 2.044-0.415 3.172-0.117-0.22-0.267-0.42-0.343-0.665-0.264-0.839-0.498-1.695-0.383-2.718 0.091-0.808 0.262-1.612 0.662-2.449 0.526-1.101 1.234-2.077 2.127-2.955 0.495-0.486 1.044-0.974 1.594-1.372 0.395-0.285 0.749-0.572 1.149-0.839 0.967-0.646 1.953-1.217 2.971-1.682 1.93-0.879 3.854-1.524 5.778-1.975 0.016-4e-3 0.033-0.029 0.097-0.087-1.869-0.814-3.929-0.807-6.326 0.359-2.344 1.14-4.249 2.899-5.854 5.132 0.218-0.738 0.576-1.442 0.981-2.134 1.48-2.527 3.474-4.467 5.961-5.76 2.537-1.319 4.93-1.691 7.152-1.199 1.743 0.386 3.129 1.258 4.176 2.58 0.057 0.074 0.199 0.088 0.314 0.081 0.66-0.031 13.247-2.555 13.91-2.597" clip-path="url(#SVGID_40_)" fill="#fff"/><g fill="#2090c9">
		<path d="m342.03 451.84c1.278-2.639 3.834-4.164 7.028-4.164 5.362 0 7.916 4.308 7.916 7.853 0 4.66-3.545 7.938-8.039 7.938-2.987 0-5.545-1.587-6.967-4.246h1.813c1.217 1.958 3.319 2.865 5.153 2.865 3.278 0 6.185-2.35 6.515-5.875h-8.945v-1.381h8.945c-0.371-3.217-2.906-5.772-6.41-5.772-2.041 0-4.062 0.866-5.196 2.783h-1.813z" clip-path="url(#SVGID_40_)"/>
		<path d="m359.66 451.92h1.524v11.276h-1.524zm2.412 5.567 4.412-5.566h1.793l-4.328 5.442 4.616 5.834h-1.959z" clip-path="url(#SVGID_40_)"/>
		<path d="m381.55 459.9c-0.765 1.67-2.394 3.565-5.484 3.565-3.856 0-6.021-2.967-6.021-5.915 0-2.7 2.082-5.896 6.021-5.896 2.617 0 4.617 1.464 5.504 3.689h-1.711c-1.133-2.226-3.278-2.309-3.793-2.309-2.618 0-4.495 2-4.495 4.494 0 2.577 2.042 4.556 4.495 4.556 1.546 0 2.988-0.763 3.793-2.186h1.691z" clip-path="url(#SVGID_40_)"/>
		<polygon points="392.16 463.2 392.16 453.3 385.85 453.3 385.85 463.2 384.33 463.2 384.33 451.92 393.69 451.92 393.69 463.2" clip-path="url(#SVGID_40_)"/>
		<path d="m397.95 458.11c0.187 2.247 1.918 3.978 4.289 3.978 1.772 0 3.237-1.009 3.938-2.555h1.586c-0.906 2.432-2.969 3.937-5.524 3.937-3.319 0-5.875-2.515-5.875-5.896 0-2.783 2.039-5.916 5.875-5.916 4.267 0 5.813 3.546 5.791 6.452zm8.433-1.381c-0.435-2.288-2.187-3.69-4.144-3.69-2.166 0-3.918 1.545-4.289 3.69z" clip-path="url(#SVGID_40_)"/>
		<path d="m410.71 451.92h1.443v1.938h0.041c1.401-1.958 3.381-2.206 4.411-2.206 3.957 0 5.998 3.093 5.998 5.957 0 3.361-2.575 5.855-6.039 5.855-2.741 0-3.896-1.711-4.288-2.37h-0.041v6.06h-1.525zm1.443 5.71c0 2.495 1.834 4.453 4.411 4.453 2.494 0 4.515-1.938 4.515-4.494s-1.957-4.556-4.474-4.556c-2.618 1e-3 -4.452 2.062-4.452 4.597" clip-path="url(#SVGID_40_)"/>
		<polygon points="428.67 453.3 428.67 463.2 427.14 463.2 427.14 453.3 424.23 453.3 424.23 451.92 431.57 451.92 431.57 453.3" clip-path="url(#SVGID_40_)"/></g><g fill="#fff">
		<polygon points="254.63 477.82 254.26 477.82 254.26 474.45 252.34 474.45 252.34 477.82 251.97 477.82 251.97 474.11 254.63 474.11" clip-path="url(#SVGID_40_)"/>
		<path d="m258.47 476.45c0 0.814-0.627 1.431-1.432 1.431-0.806 0-1.431-0.616-1.431-1.431 0-0.816 0.621-1.438 1.431-1.438 0.811 0 1.432 0.621 1.432 1.438m-2.494 0c0 0.62 0.447 1.096 1.062 1.096 0.616 0 1.061-0.476 1.061-1.096 0-0.621-0.445-1.103-1.061-1.103-0.615 0-1.062 0.482-1.062 1.103" clip-path="url(#SVGID_40_)"/>
		<path d="m259.38 475.08h0.35v0.471h0.01c0.34-0.477 0.82-0.535 1.072-0.535 0.961 0 1.455 0.751 1.455 1.446 0 0.815-0.625 1.421-1.467 1.421-0.664 0-0.945-0.415-1.041-0.575h-9e-3v1.472h-0.37zm0.35 1.386c0 0.604 0.445 1.081 1.07 1.081 0.606 0 1.098-0.471 1.098-1.091 0-0.621-0.477-1.106-1.086-1.106-0.637 0-1.082 0.501-1.082 1.116" clip-path="url(#SVGID_40_)"/>
		<polygon points="264 475.41 264 477.82 263.63 477.82 263.63 475.41 262.93 475.41 262.93 475.08 264.71 475.08 264.71 475.41" clip-path="url(#SVGID_40_)"/>
		<path d="m268.27 477.81h-0.349v-0.51h-0.012c-0.154 0.235-0.469 0.575-1.064 0.575-0.823 0-1.467-0.601-1.467-1.451 0-0.651 0.474-1.416 1.457-1.416 0.234 0 0.744 0.035 1.074 0.54h0.012v-0.476h0.349zm-2.523-1.356c0 0.626 0.512 1.086 1.098 1.086 0.599 0 1.076-0.481 1.076-1.081 0-0.62-0.467-1.116-1.086-1.116-0.596 0-1.088 0.476-1.088 1.111" clip-path="url(#SVGID_40_)"/>
		<polygon points="270.38 475.55 269.42 477.82 269.01 477.82 270.18 475.08 270.57 475.08 271.74 477.82 271.34 477.82" clip-path="url(#SVGID_40_)"/>
		<path d="m276.6 477.48h0.286v1.036h-0.372v-0.7h-2.361v0.7h-0.371v-1.036h0.285l1.067-2.402h0.4zm-0.4 0-0.865-1.986-0.867 1.986z" clip-path="url(#SVGID_40_)"/>
		<polygon points="278.73 475.55 277.76 477.82 277.36 477.82 278.53 475.08 278.92 475.08 280.09 477.82 279.69 477.82" clip-path="url(#SVGID_40_)"/>
		<path d="m282.8 477.82h-0.369v-2.402h-0.736c-0.081 0-0.641 5e-3 -0.641 0.585 0 0.306 0.18 0.551 0.641 0.551h0.375l-0.911 1.267h-0.425l0.746-0.978c-0.471-0.033-0.797-0.384-0.797-0.859 0-0.466 0.355-0.901 1.012-0.901h1.105z" clip-path="url(#SVGID_40_)"/>
		<path d="m285.39 475.08h0.35v0.471h0.01c0.34-0.477 0.82-0.535 1.072-0.535 0.961 0 1.455 0.751 1.455 1.446 0 0.815-0.625 1.421-1.467 1.421-0.664 0-0.945-0.415-1.041-0.575h-9e-3v1.472h-0.37zm0.35 1.386c0 0.604 0.445 1.081 1.07 1.081 0.606 0 1.098-0.471 1.098-1.091 0-0.621-0.477-1.106-1.086-1.106-0.637 0-1.082 0.501-1.082 1.116" clip-path="url(#SVGID_40_)"/>
		<polygon points="289.55 478.78 290 477.69 288.93 475.08 289.37 475.08 290.23 477.21 291.13 475.08 291.53 475.08 289.94 478.78" clip-path="url(#SVGID_40_)"/>
		<path d="m292.27 475.08h0.371v2.738h-0.371zm0.586 1.352 1.07-1.353h0.436l-1.051 1.322 1.121 1.417h-0.474z" clip-path="url(#SVGID_40_)"/>
		<path d="m297.92 476.45c0 0.814-0.627 1.431-1.432 1.431-0.806 0-1.431-0.616-1.431-1.431 0-0.816 0.621-1.438 1.431-1.438 0.812 0 1.432 0.621 1.432 1.438m-2.494 0c0 0.62 0.447 1.096 1.062 1.096 0.616 0 1.062-0.476 1.062-1.096 0-0.621-0.445-1.103-1.062-1.103-0.615 0-1.062 0.482-1.062 1.103" clip-path="url(#SVGID_40_)"/>
		<path d="m299.81 475.08c0.642 0 0.812 0.4 0.812 0.731 0 0.26-0.146 0.47-0.365 0.565 0.279 0.075 0.464 0.33 0.464 0.65 0 0.426-0.298 0.791-0.88 0.791h-1.01v-2.738h0.979zm-0.61 1.167h0.586c0.291 0 0.465-0.171 0.465-0.436 0-0.4-0.379-0.396-0.465-0.396h-0.586zm0 1.235h0.602c0.435 0 0.55-0.26 0.55-0.45 0-0.115-0.035-0.45-0.55-0.45h-0.602z" clip-path="url(#SVGID_40_)"/>
		<path d="m304.39 476.45c0 0.814-0.627 1.431-1.432 1.431-0.806 0-1.431-0.616-1.431-1.431 0-0.816 0.621-1.438 1.431-1.438 0.812 0 1.432 0.621 1.432 1.438m-2.493 0c0 0.62 0.446 1.096 1.062 1.096s1.062-0.476 1.062-1.096c0-0.621-0.445-1.103-1.062-1.103-0.616 0-1.062 0.482-1.062 1.103" clip-path="url(#SVGID_40_)"/>
		<path d="m307.85 477.48h0.286v1.036h-0.372v-0.7h-2.363v0.7h-0.368v-1.036h0.284l1.067-2.402h0.4zm-0.4 0-0.867-1.986-0.865 1.986z" clip-path="url(#SVGID_40_)"/>
		<polygon points="310.9 475.08 311.27 475.08 311.27 477.82 310.9 477.82 310.9 475.6 309.26 477.82 308.89 477.82 308.89 475.08 309.26 475.08 309.26 477.29" clip-path="url(#SVGID_40_)"/>
		<polygon points="313.11 475.41 313.11 477.82 312.74 477.82 312.74 475.41 312.03 475.41 312.03 475.08 313.82 475.08 313.82 475.41" clip-path="url(#SVGID_40_)"/>
		<path d="m314.86 476.58c0.045 0.546 0.466 0.966 1.041 0.966 0.433 0 0.785-0.245 0.957-0.62h0.386c-0.222 0.59-0.722 0.955-1.343 0.955-0.805 0-1.426-0.61-1.426-1.431 0-0.676 0.496-1.437 1.426-1.437 1.037 0 1.412 0.86 1.406 1.566h-2.447zm2.048-0.335c-0.105-0.556-0.529-0.896-1.007-0.896-0.524 0-0.95 0.375-1.041 0.896z" clip-path="url(#SVGID_40_)"/>
		<polygon points="319.32 475.55 318.35 477.82 317.95 477.82 319.12 475.08 319.51 475.08 320.68 477.82 320.28 477.82" clip-path="url(#SVGID_40_)"/>
		<path d="m321.7 476.58c0.046 0.546 0.466 0.966 1.041 0.966 0.433 0 0.785-0.245 0.957-0.62h0.386c-0.222 0.59-0.722 0.955-1.343 0.955-0.805 0-1.426-0.61-1.426-1.431 0-0.676 0.496-1.437 1.426-1.437 1.037 0 1.412 0.86 1.406 1.566h-2.447zm2.048-0.335c-0.105-0.556-0.529-0.896-1.007-0.896-0.524 0-0.95 0.375-1.041 0.896z" clip-path="url(#SVGID_40_)"/>
		<path d="m325.44 475.08v2.213l1.633-2.213h0.369v2.738h-0.369v-2.212l-1.633 2.212h-0.369v-2.738zm0.372-0.966c0.039 0.235 0.239 0.346 0.444 0.346s0.407-0.11 0.446-0.346h0.314c-0.05 0.28-0.261 0.631-0.761 0.631s-0.711-0.351-0.761-0.631z" clip-path="url(#SVGID_40_)"/>
		<path d="m330 475.75c0.049-0.545 0.51-0.735 0.881-0.735 0.399 0 0.86 0.195 0.86 0.715 0 0.276-0.137 0.546-0.416 0.656 0.32 0.085 0.485 0.351 0.485 0.68 0 0.477-0.379 0.816-0.936 0.816-0.687 0-0.972-0.401-0.966-0.851h0.369c0 0.296 0.211 0.516 0.597 0.516 0.485 0 0.565-0.325 0.565-0.471 0-0.221-0.099-0.495-0.565-0.495h-0.244v-0.335h0.244c0.336 0 0.495-0.221 0.495-0.466 0-0.226-0.144-0.431-0.471-0.431-0.32 0-0.496 0.17-0.531 0.4h-0.367z" clip-path="url(#SVGID_40_)"/>
		<path d="m335.27 477.48h0.286v1.036h-0.372v-0.7h-2.363v0.7h-0.368v-1.036h0.284l1.067-2.402h0.4zm-0.399 0-0.867-1.986-0.865 1.986z" clip-path="url(#SVGID_40_)"/>
		<path d="m336.31 475.08h0.353v0.471h0.01c0.34-0.477 0.819-0.535 1.069-0.535 0.962 0 1.457 0.751 1.457 1.446 0 0.815-0.627 1.421-1.467 1.421-0.666 0-0.944-0.415-1.041-0.575h-9e-3v1.472h-0.372zm0.352 1.386c0 0.604 0.444 1.081 1.069 1.081 0.606 0 1.097-0.471 1.097-1.091 0-0.621-0.476-1.106-1.087-1.106-0.635 0-1.079 0.501-1.079 1.116" clip-path="url(#SVGID_40_)"/>
		<path d="m342.9 477.81h-0.349v-0.51h-0.011c-0.153 0.235-0.471 0.575-1.065 0.575-0.821 0-1.467-0.601-1.467-1.451 0-0.651 0.476-1.416 1.457-1.416 0.233 0 0.746 0.035 1.075 0.54h0.011v-0.476h0.349zm-2.52-1.356c0 0.626 0.51 1.086 1.096 1.086 0.601 0 1.076-0.481 1.076-1.081 0-0.62-0.465-1.116-1.086-1.116-0.597 0-1.086 0.476-1.086 1.111" clip-path="url(#SVGID_40_)"/>
		<path d="m344.91 475.08c0.642 0 0.812 0.4 0.812 0.731 0 0.26-0.146 0.47-0.365 0.565 0.279 0.075 0.464 0.33 0.464 0.65 0 0.426-0.298 0.791-0.88 0.791h-1.01v-2.738h0.979zm-0.61 1.167h0.586c0.291 0 0.465-0.171 0.465-0.436 0-0.4-0.379-0.396-0.465-0.396h-0.586zm0 1.235h0.602c0.435 0 0.55-0.26 0.55-0.45 0-0.115-0.035-0.45-0.55-0.45h-0.602z" clip-path="url(#SVGID_40_)"/>
		<path d="m349.48 476.45c0 0.814-0.625 1.431-1.431 1.431-0.805 0-1.432-0.616-1.432-1.431 0-0.816 0.621-1.438 1.432-1.438 0.81 0 1.431 0.621 1.431 1.438m-2.491 0c0 0.62 0.444 1.096 1.061 1.096 0.615 0 1.06-0.476 1.06-1.096 0-0.621-0.444-1.103-1.06-1.103s-1.061 0.482-1.061 1.103" clip-path="url(#SVGID_40_)"/>
		<path d="m353.15 476.45c0 0.814-0.625 1.431-1.431 1.431-0.805 0-1.432-0.616-1.432-1.431 0-0.816 0.621-1.438 1.432-1.438 0.81 0 1.431 0.621 1.431 1.438m-2.491 0c0 0.62 0.444 1.096 1.061 1.096 0.615 0 1.06-0.476 1.06-1.096 0-0.621-0.444-1.103-1.06-1.103s-1.061 0.482-1.061 1.103" clip-path="url(#SVGID_40_)"/>
		<polygon points="354.22 475.08 354.95 476.13 355.67 475.08 356.11 475.08 355.17 476.42 356.11 477.82 355.67 477.82 354.95 476.72 354.22 477.82 353.79 477.82 354.72 476.42 353.79 475.08" clip-path="url(#SVGID_40_)"/>
		<path d="m356.86 475.08h0.353v0.471h0.01c0.34-0.477 0.82-0.535 1.07-0.535 0.961 0 1.456 0.751 1.456 1.446 0 0.815-0.627 1.421-1.467 1.421-0.666 0-0.944-0.415-1.041-0.575h-9e-3v1.472h-0.372zm0.353 1.386c0 0.604 0.444 1.081 1.069 1.081 0.606 0 1.097-0.471 1.097-1.091 0-0.621-0.476-1.106-1.086-1.106-0.636 0-1.08 0.501-1.08 1.116" clip-path="url(#SVGID_40_)"/>
		<path d="m363.45 477.81h-0.349v-0.51h-0.011c-0.153 0.235-0.471 0.575-1.065 0.575-0.821 0-1.467-0.601-1.467-1.451 0-0.651 0.476-1.416 1.457-1.416 0.233 0 0.746 0.035 1.075 0.54h0.011v-0.476h0.349zm-2.52-1.356c0 0.626 0.51 1.086 1.096 1.086 0.601 0 1.076-0.481 1.076-1.081 0-0.62-0.465-1.116-1.086-1.116-0.597 0-1.086 0.476-1.086 1.111" clip-path="url(#SVGID_40_)"/>
		<polygon points="366.37 476.24 366.37 475.08 366.74 475.08 366.74 477.82 366.37 477.82 366.37 476.58 364.84 476.58 364.84 477.82 364.47 477.82 364.47 475.08 364.84 475.08 364.84 476.24" clip-path="url(#SVGID_40_)"/>
		<path d="m368.05 476.58c0.045 0.546 0.466 0.966 1.041 0.966 0.433 0 0.785-0.245 0.957-0.62h0.386c-0.222 0.59-0.722 0.955-1.343 0.955-0.805 0-1.426-0.61-1.426-1.431 0-0.676 0.496-1.437 1.426-1.437 1.037 0 1.412 0.86 1.406 1.566h-2.447zm2.048-0.335c-0.105-0.556-0.529-0.896-1.007-0.896-0.524 0-0.95 0.375-1.041 0.896z" clip-path="url(#SVGID_40_)"/>
		<polygon points="373.31 476.24 373.31 475.08 373.69 475.08 373.69 477.82 373.31 477.82 373.31 476.58 371.78 476.58 371.78 477.82 371.41 477.82 371.41 475.08 371.78 475.08 371.78 476.24" clip-path="url(#SVGID_40_)"/>
		<polygon points="376.71 475.08 377.08 475.08 377.08 477.82 376.71 477.82 376.71 475.6 375.08 477.82 374.71 477.82 374.71 475.08 375.08 475.08 375.08 477.29" clip-path="url(#SVGID_40_)"/>
		<path d="m380.08 477.82h-0.371v-2.402h-0.736c-0.08 0-0.641 5e-3 -0.641 0.585 0 0.306 0.182 0.551 0.641 0.551h0.377l-0.913 1.267h-0.425l0.746-0.978c-0.471-0.033-0.795-0.384-0.795-0.859 0-0.466 0.354-0.901 1.01-0.901h1.107z" clip-path="url(#SVGID_40_)"/>
		<path d="m252.5 451.92h1.443v1.938h0.041c1.4-1.959 3.381-2.206 4.41-2.206 3.959 0 6 3.093 6 5.957 0 3.36-2.578 5.855-6.041 5.855-2.742 0-3.896-1.711-4.287-2.37h-0.041v6.06h-1.525zm1.443 5.709c0 2.494 1.834 4.452 4.41 4.452 2.494 0 4.516-1.938 4.516-4.494s-1.959-4.555-4.475-4.555c-2.617 1e-3 -4.451 2.061-4.451 4.597" clip-path="url(#SVGID_40_)"/>
		<polygon points="268.59 453.3 268.59 463.19 267.07 463.19 267.07 451.92 272.94 451.92 272.94 453.3" clip-path="url(#SVGID_40_)"/>
		<path d="m279.42 447.67c3.154 0 4.393 2.103 4.393 4.103 0 1.855-1.114 2.906-2.311 3.442 1.773 0.454 2.723 2.02 2.723 3.835 0 2.226-1.547 4.411-4.928 4.411-3.463 0-5.133-2.434-4.969-4.927h1.526c-0.061 1.772 0.97 3.545 3.443 3.545 2.268 0 3.402-1.318 3.402-2.988 0-1.629-1.011-3.092-3.547-3.092h-0.906v-1.382h0.906c2.557 0 3.133-1.67 3.133-2.865 0-1.113-0.658-2.7-2.844-2.7-2 0-2.927 1.401-2.886 2.865h-1.526c-0.061-2.123 1.28-4.247 4.391-4.247" clip-path="url(#SVGID_40_)"/>
		<path d="m297.16 461.81h1.176v4.268h-1.524v-2.887h-9.731v2.887h-1.525v-4.268h1.174l4.392-9.896h1.649zm-1.648 0-3.566-8.185-3.567 8.185z" clip-path="url(#SVGID_40_)"/>
		<path d="m300.36 451.92h1.443v1.938h0.041c1.401-1.959 3.381-2.206 4.411-2.206 3.957 0 5.998 3.093 5.998 5.957 0 3.36-2.575 5.855-6.039 5.855-2.741 0-3.896-1.711-4.288-2.37h-0.041v6.06h-1.525zm1.444 5.709c0 2.494 1.834 4.452 4.411 4.452 2.494 0 4.515-1.938 4.515-4.494s-1.957-4.555-4.474-4.555c-2.618 1e-3 -4.452 2.061-4.452 4.597" clip-path="url(#SVGID_40_)"/>
		<path d="m326.41 463.19h-1.444v-2.103h-0.041c-0.638 0.97-1.937 2.37-4.39 2.37-3.381 0-6.039-2.473-6.039-5.978 0-2.68 1.957-5.833 5.998-5.833 0.968 0 3.072 0.144 4.431 2.226h0.041v-1.958h1.444zm-10.389-5.586c0 2.576 2.102 4.473 4.514 4.473 2.474 0 4.431-1.979 4.431-4.452 0-2.556-1.916-4.597-4.472-4.597-2.453 0-4.473 1.958-4.473 4.576" clip-path="url(#SVGID_40_)"/>
		<path d="m333.56 451.92c2.638 0 3.34 1.649 3.34 3.011 0 1.072-0.598 1.938-1.504 2.329 1.154 0.31 1.916 1.36 1.916 2.68 0 1.753-1.237 3.257-3.627 3.257h-4.164v-11.276h4.039zm-2.514 4.803h2.411c1.195 0 1.916-0.701 1.916-1.793 0-1.649-1.565-1.629-1.916-1.629h-2.411zm0 5.092h2.473c1.795 0 2.267-1.072 2.267-1.855 0-0.474-0.144-1.855-2.267-1.855h-2.473z" clip-path="url(#SVGID_40_)"/>
		<polygon points="255.17 631.58 254.8 631.58 254.8 628.22 252.88 628.22 252.88 631.58 252.51 631.58 252.51 627.88 255.17 627.88" clip-path="url(#SVGID_40_)"/>
		<path d="m256.25 628.85h0.352v0.471h0.01c0.34-0.477 0.82-0.536 1.07-0.536 0.961 0 1.457 0.751 1.457 1.446 0 0.816-0.627 1.422-1.467 1.422-0.666 0-0.945-0.415-1.041-0.575h-9e-3v1.471h-0.372zm0.352 1.387c0 0.604 0.445 1.081 1.07 1.081 0.606 0 1.096-0.472 1.096-1.092s-0.475-1.105-1.086-1.105c-0.635 0-1.08 0.5-1.08 1.116" clip-path="url(#SVGID_40_)"/>
		<path d="m262.81 630.22c0 0.815-0.625 1.432-1.431 1.432-0.805 0-1.432-0.616-1.432-1.432s0.621-1.438 1.432-1.438c0.81 1e-3 1.431 0.623 1.431 1.438m-2.492 0c0 0.621 0.445 1.097 1.061 1.097 0.615 0 1.06-0.476 1.06-1.097 0-0.62-0.445-1.102-1.06-1.102-0.616 1e-3 -1.061 0.482-1.061 1.102" clip-path="url(#SVGID_40_)"/>
		<path d="m263.72 628.85h0.352v0.471h0.01c0.34-0.477 0.82-0.536 1.07-0.536 0.961 0 1.457 0.751 1.457 1.446 0 0.816-0.627 1.422-1.467 1.422-0.666 0-0.945-0.415-1.041-0.575h-9e-3v1.471h-0.372zm0.352 1.387c0 0.604 0.445 1.081 1.07 1.081 0.606 0 1.096-0.472 1.096-1.092s-0.475-1.105-1.086-1.105c-0.635 0-1.08 0.5-1.08 1.116" clip-path="url(#SVGID_40_)"/>
		<path d="m267.9 628.85v1.046h0.736c0.741 0 0.932 0.53 0.932 0.846s-0.191 0.846-0.932 0.846h-1.105v-2.737h0.369zm0 2.403h0.731c0.39 0 0.566-0.245 0.566-0.511 0-0.265-0.176-0.511-0.566-0.511h-0.731zm2.033-2.403h0.369v2.737h-0.369z" clip-path="url(#SVGID_40_)"/>
		<path d="m272.3 628.85c0.641 0 0.811 0.4 0.811 0.73 0 0.261-0.146 0.471-0.365 0.565 0.279 0.075 0.464 0.331 0.464 0.651 0 0.425-0.298 0.79-0.88 0.79h-1.01v-2.737h0.98zm-0.611 1.166h0.586c0.291 0 0.465-0.17 0.465-0.436 0-0.4-0.379-0.396-0.465-0.396h-0.586zm0 1.237h0.602c0.435 0 0.55-0.261 0.55-0.45 0-0.115-0.035-0.451-0.55-0.451h-0.602z" clip-path="url(#SVGID_40_)"/>
		<path d="m276.66 628.85c0.641 0 0.813 0.4 0.813 0.73 0 0.261-0.147 0.471-0.367 0.565 0.281 0.075 0.466 0.331 0.466 0.651 0 0.425-0.3 0.79-0.88 0.79h-1.012v-2.737h0.98zm-0.609 1.166h0.586c0.289 0 0.465-0.17 0.465-0.436 0-0.4-0.381-0.396-0.465-0.396h-0.586zm0 1.237h0.6c0.435 0 0.55-0.261 0.55-0.45 0-0.115-0.035-0.451-0.55-0.451h-0.6z" clip-path="url(#SVGID_40_)"/>
		<polygon points="280.39 632.54 280.84 631.46 279.77 628.85 280.21 628.85 281.07 630.98 281.97 628.85 282.36 628.85 280.78 632.54" clip-path="url(#SVGID_40_)"/>
		<polygon points="285.01 631.58 285.01 629.18 283.48 629.18 283.48 631.58 283.11 631.58 283.11 628.85 285.38 628.85 285.38 631.58" clip-path="url(#SVGID_40_)"/>
		<path d="m286.4 628.85h0.352v0.471h0.01c0.34-0.477 0.82-0.536 1.07-0.536 0.961 0 1.457 0.751 1.457 1.446 0 0.816-0.627 1.422-1.467 1.422-0.666 0-0.945-0.415-1.041-0.575h-9e-3v1.471h-0.372zm0.352 1.387c0 0.604 0.445 1.081 1.07 1.081 0.606 0 1.096-0.472 1.096-1.092s-0.475-1.105-1.086-1.105c-0.635 0-1.08 0.5-1.08 1.116" clip-path="url(#SVGID_40_)"/>
		<path d="m293 631.58h-0.349v-0.509h-0.012c-0.154 0.234-0.469 0.575-1.064 0.575-0.823 0-1.467-0.601-1.467-1.451 0-0.651 0.474-1.417 1.457-1.417 0.234 0 0.744 0.035 1.074 0.541h0.012v-0.476h0.349zm-2.523-1.355c0 0.626 0.512 1.087 1.098 1.087 0.599 0 1.076-0.481 1.076-1.081 0-0.621-0.467-1.116-1.086-1.116-0.596 0-1.088 0.475-1.088 1.11" clip-path="url(#SVGID_40_)"/>
		<path d="m295 628.85c0.641 0 0.813 0.4 0.813 0.73 0 0.261-0.147 0.471-0.367 0.565 0.281 0.075 0.466 0.331 0.466 0.651 0 0.425-0.3 0.79-0.88 0.79h-1.012v-2.737h0.98zm-0.609 1.166h0.586c0.289 0 0.465-0.17 0.465-0.436 0-0.4-0.381-0.396-0.465-0.396h-0.586zm0 1.237h0.6c0.435 0 0.55-0.261 0.55-0.45 0-0.115-0.035-0.451-0.55-0.451h-0.6z" clip-path="url(#SVGID_40_)"/>
		<polygon points="297.9 629.32 296.94 631.58 296.54 631.58 297.71 628.85 298.09 628.85 299.26 631.58 298.86 631.58" clip-path="url(#SVGID_40_)"/>
		<path d="m300.29 630.35c0.046 0.546 0.466 0.967 1.041 0.967 0.431 0 0.785-0.246 0.955-0.621h0.386c-0.22 0.59-0.722 0.956-1.341 0.956-0.806 0-1.428-0.611-1.428-1.432 0-0.676 0.497-1.437 1.428-1.437 1.035 0 1.41 0.861 1.406 1.566h-2.447zm2.048-0.335c-0.105-0.557-0.531-0.896-1.007-0.896-0.524 0-0.95 0.375-1.041 0.896z" clip-path="url(#SVGID_40_)"/>
		<polygon points="305.55 630.01 305.55 628.85 305.92 628.85 305.92 631.58 305.55 631.58 305.55 630.35 304.02 630.35 304.02 631.58 303.65 631.58 303.65 628.85 304.02 628.85 304.02 630.01" clip-path="url(#SVGID_40_)"/>
		<polygon points="308.95 628.85 309.32 628.85 309.32 631.58 308.95 631.58 308.95 629.37 307.32 631.58 306.95 631.58 306.95 628.85 307.32 628.85 307.32 631.06" clip-path="url(#SVGID_40_)"/>
		<polygon points="312.35 628.85 312.72 628.85 312.72 631.58 312.35 631.58 312.35 629.37 310.71 631.58 310.34 631.58 310.34 628.85 310.71 628.85 310.71 631.06" clip-path="url(#SVGID_40_)"/>
	</g></g>
	
	
	<g clip-path="url(#SVGID_2_)">
		<defs>
			<rect id="SVGID_51_" width="595.28" height="841.89"/>
		</defs>
		<clipPath id="SVGID_52_">
			<use width="100%" height="100%" overflow="visible" xlink:href="#SVGID_51_"/>
		</clipPath>
		
		
		
		
		
		
		
		
		
		
		
		
		
		
		<g transform="matrix(2.4609 0 0 2.4609 -537.52 -908.07)"><g clip-path="url(#SVGID_2_)">
		<defs>
			<path id="SVGID_41_" d="m228.39 640.69c5.806-5.884 11.088-11.326 16.504-16.63 0.84-0.823 2.283-1.419 3.461-1.442 6.796-0.135 21.904-0.177 22.555-0.224-14.202-14.258-28.311-28.423-42.52-42.689z"/>
		</defs>
		<clipPath id="SVGID_42_">
			<use width="100%" height="100%" overflow="visible" xlink:href="#SVGID_41_"/>
		</clipPath>
		<defs>
			<filter id="Adobe_OpacityMaskFilter_6_" x="228.39" y="579.7" width="42.52" height="60.985" filterUnits="userSpaceOnUse">
				<feColorMatrix values="1 0 0 0 0  0 1 0 0 0  0 0 1 0 0  0 0 0 1 0"/>
			</filter>
		</defs>
		<mask id="SVGID_43_" x="228.393" y="579.703" width="42.52" height="60.985" maskUnits="userSpaceOnUse">
			<g filter="url(#Adobe_OpacityMaskFilter_6_)">
				
					<linearGradient id="SVGID_44_" x2="1" y1="841.89" y2="841.89" gradientTransform="matrix(0 -60.985 -60.985 0 51592 640.69)" gradientUnits="userSpaceOnUse">
					<stop stop-color="#fff" offset="0"/>
					<stop stop-color="#fff" offset=".006"/>
					<stop stop-color="#fff" offset=".4345"/>
					<stop stop-color="#FBFBFB" offset=".6725"/>
					<stop stop-color="#F0F0F0" offset=".8999"/>
					<stop stop-color="#E8E8E8" offset="1"/>
				</linearGradient>
				<rect x="228.39" y="579.7" width="42.52" height="60.986" clip-path="url(#SVGID_42_)" fill="url(#SVGID_44_)"/>
			</g>
		</mask>
		
			<linearGradient id="SVGID_45_" x2="1" y1="841.89" y2="841.89" gradientTransform="matrix(0 -60.985 -60.985 0 51592 640.69)" gradientUnits="userSpaceOnUse">
			<stop stop-color="#73B8E5" offset="0"/>
			<stop stop-color="#73B8E5" offset=".006"/>
			<stop stop-color="#222A44" offset=".4345"/>
			<stop stop-color="#232B45" offset=".5156"/>
			<stop stop-color="#28304B" offset=".5929"/>
			<stop stop-color="#313A56" offset=".6686"/>
			<stop stop-color="#404B66" offset=".7435"/>
			<stop stop-color="#566480" offset=".8176"/>
			<stop stop-color="#788AA4" offset=".8914"/>
			<stop stop-color="#A7BED7" offset=".9633"/>
			<stop stop-color="#C6E1F7" offset="1"/>
		</linearGradient>
		
			<rect x="228.39" y="579.7" width="42.52" height="60.985" clip-path="url(#SVGID_42_)" fill="url(#SVGID_45_)" mask="url(#SVGID_43_)"/>
	</g><g clip-path="url(#SVGID_2_)">
		<defs>
			<path id="SVGID_46_" d="m262.76 601.42c-0.588 0.17-12.726 2.375-12.726 2.375s-0.436-0.676-0.634-0.632c-1.03 0.224-2.019 0.443-3.051 0.686-0.535 0.125-1.336 0.364-1.633 0.483-0.089 0.034-0.043 0.096 0.021 0.172 0.114 0.136 0.297 0.339 0.399 0.481-0.173 0.059-0.273 0.095-0.372 0.124-2.094 0.627-4.179 1.441-6.228 2.623-1.834 1.057-3.637 2.192-5.22 3.803-1.143 1.163-2.023 2.442-2.43 3.896-0.542 1.937-0.114 3.399 0.904 4.499 1.54 1.662 3.727 2.165 6.386 1.695 3.413-0.603 6.391-2.606 8.903-5.76 2.761-3.467 3.837-7.043 3.325-10.516-0.028-0.188-0.09-0.268-0.306-0.21-1.04 0.278-1.555 0.398-2.07 0.541-0.542 0.15-1.985 0.629-2.139 0.693 0.059 0.757 0.208 1.514 0.162 2.253-0.17 2.754-1.44 5.257-3.903 7.392-0.541 0.469-1.167 0.904-1.77 1.162-0.783 0.336-1.562 0.392-2.285 0.307-2.06-0.247-2.853-2.095-1.863-4.356 0.598-1.366 1.585-2.491 2.701-3.507 1.597-1.454 3.345-2.555 5.15-3.447 1.757-0.871 3.512-1.354 5.276-1.828l13.834-2.978c-0.144 0.016-0.285 9e-3 -0.431 0.049"/>
		</defs>
		<clipPath id="SVGID_47_">
			<use width="100%" height="100%" overflow="visible" xlink:href="#SVGID_46_"/>
		</clipPath>
		<defs>
			<filter id="Adobe_OpacityMaskFilter_7_" x="230.34" y="601.37" width="32.847" height="20.724" filterUnits="userSpaceOnUse">
				<feColorMatrix values="1 0 0 0 0  0 1 0 0 0  0 0 1 0 0  0 0 0 1 0"/>
			</filter>
		</defs>
		<mask id="SVGID_48_" x="230.344" y="601.371" width="32.847" height="20.724" maskUnits="userSpaceOnUse">
			<g filter="url(#Adobe_OpacityMaskFilter_7_)">
				
					<linearGradient id="SVGID_49_" x2="1" y1="841.89" y2="841.89" gradientTransform="matrix(32.541 0 0 -32.541 230.65 28008)" gradientUnits="userSpaceOnUse">
					<stop stop-color="#fff" offset="0"/>
					<stop stop-color="#FBFBFB" offset=".1194"/>
					<stop stop-color="#eee" offset=".2442"/>
					<stop stop-color="#D9D9D9" offset=".3716"/>
					<stop stop-color="#BCBCBC" offset=".5006"/>
					<stop stop-color="#969696" offset=".631"/>
					<stop stop-color="#686868" offset=".7626"/>
					<stop stop-color="#323232" offset=".8925"/>
					<stop offset="1"/>
				</linearGradient>
				<rect x="230.34" y="601.37" width="32.847" height="20.724" clip-path="url(#SVGID_47_)" fill="url(#SVGID_49_)"/>
			</g>
		</mask>
		
			<linearGradient id="SVGID_50_" x2="1" y1="841.89" y2="841.89" gradientTransform="matrix(32.541 0 0 -32.541 230.65 28008)" gradientUnits="userSpaceOnUse">
			<stop stop-color="#1C86C4" offset="0"/>
			<stop stop-color="#2686C4" offset=".2599"/>
			<stop stop-color="#3886C4" offset=".5312"/>
			<stop stop-color="#4F86C4" offset=".8068"/>
			<stop stop-color="#6186C3" offset="1"/>
		</linearGradient>
		
			<rect x="230.34" y="601.37" width="32.847" height="20.724" clip-path="url(#SVGID_47_)" fill="url(#SVGID_50_)" mask="url(#SVGID_48_)"/>
	</g><path d="m262.69 599.5c-2.275 0.409-16.352 3.395-18.599 4.218-2.431 0.892-4.841 1.997-7.183 3.486-1.074 0.683-2.151 1.4-3.174 2.188-0.616 0.474-0.761 0.677-1.126 1.034-0.372 0.363-0.743 0.731-1.091 1.119-0.806 0.903-1.485 1.874-1.928 2.945-0.466 1.131-0.552 2.045-0.415 3.173-0.117-0.221-0.267-0.42-0.343-0.665-0.264-0.839-0.498-1.695-0.383-2.718 0.091-0.809 0.262-1.612 0.662-2.449 0.526-1.101 1.234-2.077 2.127-2.955 0.495-0.486 1.044-0.975 1.594-1.372 0.395-0.285 0.749-0.572 1.149-0.839 0.967-0.646 1.953-1.217 2.971-1.681 1.93-0.881 3.854-1.526 5.778-1.976 0.016-4e-3 0.033-0.03 0.097-0.087-1.869-0.813-3.929-0.807-6.326 0.359-2.344 1.139-4.249 2.899-5.854 5.132 0.218-0.738 0.576-1.443 0.981-2.134 1.48-2.527 3.474-4.467 5.961-5.761 2.537-1.319 4.93-1.69 7.152-1.198 1.743 0.386 3.129 1.257 4.176 2.581 0.057 0.073 0.199 0.087 0.314 0.081 0.66-0.033 13.247-2.556 13.91-2.599" clip-path="url(#SVGID_52_)" fill="#fff"/><g fill="#2090c9"><path d="m342.03 605.61c1.278-2.639 3.834-4.164 7.028-4.164 5.362 0 7.916 4.308 7.916 7.853 0 4.66-3.545 7.938-8.039 7.938-2.987 0-5.545-1.587-6.967-4.246h1.813c1.217 1.958 3.319 2.865 5.153 2.865 3.278 0 6.185-2.35 6.515-5.875h-8.945v-1.381h8.945c-0.371-3.217-2.906-5.772-6.41-5.772-2.041 0-4.062 0.866-5.196 2.783h-1.813z" clip-path="url(#SVGID_52_)"/><path d="m359.66 605.69h1.524v11.276h-1.524zm2.412 5.566 4.412-5.566h1.793l-4.328 5.442 4.616 5.834h-1.959z" clip-path="url(#SVGID_52_)"/><path d="m381.55 613.67c-0.765 1.67-2.394 3.565-5.484 3.565-3.856 0-6.021-2.967-6.021-5.916 0-2.699 2.082-5.895 6.021-5.895 2.617 0 4.617 1.464 5.504 3.689h-1.711c-1.133-2.226-3.278-2.309-3.793-2.309-2.618 0-4.495 2-4.495 4.494 0 2.577 2.042 4.556 4.495 4.556 1.546 0 2.988-0.763 3.793-2.186h1.691z" clip-path="url(#SVGID_52_)"/><polygon points="385.85 607.07 385.85 616.97 384.33 616.97 384.33 605.69 393.69 605.69 393.69 616.97 392.16 616.97 392.16 607.07" clip-path="url(#SVGID_52_)"/><path d="m397.95 611.88c0.187 2.247 1.918 3.979 4.289 3.979 1.772 0 3.237-1.01 3.938-2.556h1.586c-0.906 2.432-2.969 3.937-5.524 3.937-3.319 0-5.875-2.515-5.875-5.896 0-2.783 2.039-5.916 5.875-5.916 4.267 0 5.813 3.546 5.791 6.452zm8.433-1.38c-0.435-2.288-2.187-3.69-4.144-3.69-2.166 0-3.918 1.545-4.289 3.69z" clip-path="url(#SVGID_52_)"/><path d="m410.71 605.69h1.443v1.938h0.041c1.401-1.958 3.381-2.206 4.411-2.206 3.957 0 5.998 3.093 5.998 5.957 0 3.361-2.575 5.855-6.039 5.855-2.741 0-3.896-1.711-4.288-2.37h-0.041v6.06h-1.525zm1.443 5.71c0 2.495 1.834 4.453 4.411 4.453 2.494 0 4.515-1.938 4.515-4.494s-1.957-4.556-4.474-4.556c-2.618 0-4.452 2.062-4.452 4.597" clip-path="url(#SVGID_52_)"/><polygon points="427.14 616.97 427.14 607.07 424.23 607.07 424.23 605.69 431.57 605.69 431.57 607.07 428.67 607.07 428.67 616.97" clip-path="url(#SVGID_52_)"/></g><g fill="#fff"><path d="m252.5 605.69h1.443v1.938h0.041c1.4-1.959 3.381-2.206 4.41-2.206 3.959 0 6 3.093 6 5.957 0 3.36-2.578 5.855-6.041 5.855-2.742 0-3.896-1.711-4.287-2.37h-0.041v6.06h-1.525zm1.443 5.71c0 2.494 1.834 4.452 4.41 4.452 2.494 0 4.516-1.938 4.516-4.494s-1.959-4.555-4.475-4.555c-2.617 0-4.451 2.061-4.451 4.597" clip-path="url(#SVGID_52_)"/><polygon points="267.07 616.96 267.07 605.69 272.94 605.69 272.94 607.07 268.59 607.07 268.59 616.96" clip-path="url(#SVGID_52_)"/><path d="m279.42 601.44c3.154 0 4.393 2.103 4.393 4.103 0 1.855-1.114 2.906-2.311 3.442 1.773 0.454 2.723 2.02 2.723 3.835 0 2.226-1.547 4.411-4.928 4.411-3.463 0-5.133-2.434-4.969-4.927h1.526c-0.061 1.772 0.97 3.545 3.443 3.545 2.268 0 3.402-1.318 3.402-2.988 0-1.629-1.011-3.092-3.547-3.092h-0.906v-1.382h0.906c2.557 0 3.133-1.67 3.133-2.865 0-1.113-0.658-2.7-2.844-2.7-2 0-2.927 1.401-2.886 2.865h-1.526c-0.061-2.123 1.28-4.247 4.391-4.247" clip-path="url(#SVGID_52_)"/><path d="m297.16 615.58h1.176v4.268h-1.524v-2.887h-9.731v2.887h-1.525v-4.268h1.174l4.392-9.896h1.649zm-1.648 0-3.566-8.185-3.567 8.185z" clip-path="url(#SVGID_52_)"/><path d="m300.36 605.69h1.443v1.938h0.041c1.401-1.959 3.381-2.206 4.411-2.206 3.957 0 5.998 3.093 5.998 5.957 0 3.36-2.575 5.855-6.039 5.855-2.741 0-3.896-1.711-4.288-2.37h-0.041v6.06h-1.525zm1.444 5.71c0 2.494 1.834 4.452 4.411 4.452 2.494 0 4.515-1.938 4.515-4.494s-1.957-4.555-4.474-4.555c-2.618 0-4.452 2.061-4.452 4.597" clip-path="url(#SVGID_52_)"/><path d="m326.41 616.96h-1.444v-2.103h-0.041c-0.638 0.97-1.937 2.37-4.39 2.37-3.381 0-6.039-2.473-6.039-5.978 0-2.68 1.957-5.833 5.998-5.833 0.968 0 3.072 0.144 4.431 2.226h0.041v-1.958h1.444zm-10.389-5.586c0 2.576 2.102 4.473 4.514 4.473 2.474 0 4.431-1.979 4.431-4.452 0-2.556-1.916-4.597-4.472-4.597-2.453 0-4.473 1.958-4.473 4.576" clip-path="url(#SVGID_52_)"/><path d="m333.56 605.68c2.638 0 3.34 1.649 3.34 3.011 0 1.072-0.598 1.938-1.504 2.329 1.154 0.31 1.916 1.36 1.916 2.68 0 1.753-1.237 3.257-3.627 3.257h-4.164v-11.276h4.039zm-2.514 4.804h2.411c1.195 0 1.916-0.701 1.916-1.793 0-1.649-1.565-1.629-1.916-1.629h-2.411zm0 5.092h2.473c1.795 0 2.267-1.072 2.267-1.855 0-0.474-0.144-1.855-2.267-1.855h-2.473z" clip-path="url(#SVGID_52_)"/></g></g>
	</g>
	<g clip-path="url(#SVGID_2_)">
		<defs>
			<path id="SVGID_53_" d="m228.39 786.54c5.806-5.883 11.088-11.324 16.504-16.63 0.84-0.822 2.283-1.417 3.461-1.441 6.796-0.135 21.904-0.177 22.555-0.224-14.202-14.259-28.311-28.425-42.52-42.689z"/>
		</defs>
		<clipPath id="SVGID_54_">
			<use width="100%" height="100%" overflow="visible" xlink:href="#SVGID_53_"/>
		</clipPath>
		<defs>
			<filter id="Adobe_OpacityMaskFilter_8_" x="228.39" y="725.56" width="42.52" height="60.984" filterUnits="userSpaceOnUse">
				<feColorMatrix values="1 0 0 0 0  0 1 0 0 0  0 0 1 0 0  0 0 0 1 0"/>
			</filter>
		</defs>
		<mask id="SVGID_55_" x="228.393" y="725.561" width="42.52" height="60.984" maskUnits="userSpaceOnUse">
			<g filter="url(#Adobe_OpacityMaskFilter_8_)">
				
					<linearGradient id="SVGID_56_" x2="1" y1="841.89" y2="841.89" gradientTransform="matrix(0 -60.985 -60.985 0 51592 786.54)" gradientUnits="userSpaceOnUse">
					<stop stop-color="#fff" offset="0"/>
					<stop stop-color="#fff" offset=".006"/>
					<stop stop-color="#fff" offset=".4345"/>
					<stop stop-color="#FBFBFB" offset=".6725"/>
					<stop stop-color="#F0F0F0" offset=".8999"/>
					<stop stop-color="#E8E8E8" offset="1"/>
				</linearGradient>
				<rect x="228.39" y="725.56" width="42.52" height="60.984" clip-path="url(#SVGID_54_)" fill="url(#SVGID_56_)"/>
			</g>
		</mask>
		
			<linearGradient id="SVGID_57_" x1="-.00048828" x2=".9995" y1="841.89" y2="841.89" gradientTransform="matrix(0 -60.985 -60.985 0 51592 786.53)" gradientUnits="userSpaceOnUse">
			<stop stop-color="#73B8E5" offset="0"/>
			<stop stop-color="#73B8E5" offset=".006"/>
			<stop stop-color="#222A44" offset=".4345"/>
			<stop stop-color="#232B45" offset=".5156"/>
			<stop stop-color="#28304B" offset=".5929"/>
			<stop stop-color="#313A56" offset=".6686"/>
			<stop stop-color="#404B66" offset=".7435"/>
			<stop stop-color="#566480" offset=".8176"/>
			<stop stop-color="#788AA4" offset=".8914"/>
			<stop stop-color="#A7BED7" offset=".9633"/>
			<stop stop-color="#C6E1F7" offset="1"/>
		</linearGradient>
		
			<rect x="228.39" y="725.56" width="42.52" height="60.984" clip-path="url(#SVGID_54_)" fill="url(#SVGID_57_)" mask="url(#SVGID_55_)"/>
	</g>
	<g clip-path="url(#SVGID_2_)">
		<defs>
			<path id="SVGID_58_" d="m262.76 747.28c-0.588 0.17-12.726 2.374-12.726 2.374s-0.436-0.675-0.634-0.631c-1.03 0.223-2.019 0.443-3.051 0.687-0.535 0.124-1.336 0.361-1.633 0.48-0.089 0.035-0.043 0.097 0.021 0.173 0.114 0.136 0.297 0.339 0.399 0.482-0.173 0.058-0.273 0.094-0.372 0.124-2.094 0.628-4.179 1.44-6.228 2.623-1.834 1.057-3.637 2.191-5.22 3.803-1.143 1.163-2.023 2.441-2.43 3.897-0.542 1.936-0.114 3.398 0.904 4.497 1.54 1.662 3.727 2.164 6.386 1.695 3.413-0.602 6.391-2.605 8.903-5.759 2.761-3.467 3.837-7.043 3.325-10.517-0.028-0.187-0.09-0.268-0.306-0.209-1.04 0.277-1.555 0.398-2.07 0.541-0.542 0.149-1.985 0.629-2.139 0.692 0.059 0.755 0.208 1.515 0.162 2.254-0.17 2.754-1.44 5.257-3.903 7.392-0.541 0.468-1.167 0.901-1.77 1.162-0.783 0.336-1.562 0.393-2.285 0.306-2.06-0.246-2.853-2.094-1.863-4.356 0.598-1.365 1.585-2.489 2.701-3.507 1.597-1.454 3.345-2.554 5.15-3.448 1.757-0.868 3.512-1.354 5.276-1.826l13.834-2.978c-0.144 0.015-0.285 6e-3 -0.431 0.049"/>
		</defs>
		<clipPath id="SVGID_59_">
			<use width="100%" height="100%" overflow="visible" xlink:href="#SVGID_58_"/>
		</clipPath>
		<defs>
			<filter id="Adobe_OpacityMaskFilter_9_" x="230.34" y="747.23" width="32.847" height="20.722" filterUnits="userSpaceOnUse">
				<feColorMatrix values="1 0 0 0 0  0 1 0 0 0  0 0 1 0 0  0 0 0 1 0"/>
			</filter>
		</defs>
		<mask id="SVGID_60_" x="230.344" y="747.229" width="32.847" height="20.722" maskUnits="userSpaceOnUse">
			<g filter="url(#Adobe_OpacityMaskFilter_9_)">
				
					<linearGradient id="SVGID_61_" x2="1" y1="841.89" y2="841.89" gradientTransform="matrix(32.541 0 0 -32.541 230.65 28153)" gradientUnits="userSpaceOnUse">
					<stop stop-color="#fff" offset="0"/>
					<stop stop-color="#FBFBFB" offset=".1194"/>
					<stop stop-color="#eee" offset=".2442"/>
					<stop stop-color="#D9D9D9" offset=".3716"/>
					<stop stop-color="#BCBCBC" offset=".5006"/>
					<stop stop-color="#969696" offset=".631"/>
					<stop stop-color="#686868" offset=".7626"/>
					<stop stop-color="#323232" offset=".8925"/>
					<stop offset="1"/>
				</linearGradient>
				<rect x="230.34" y="747.23" width="32.847" height="20.722" clip-path="url(#SVGID_59_)" fill="url(#SVGID_61_)"/>
			</g>
		</mask>
		
			<linearGradient id="SVGID_62_" x2="1" y1="841.89" y2="841.89" gradientTransform="matrix(32.541 0 0 -32.541 230.65 28153)" gradientUnits="userSpaceOnUse">
			<stop stop-color="#1C86C4" offset="0"/>
			<stop stop-color="#2686C4" offset=".2599"/>
			<stop stop-color="#3886C4" offset=".5312"/>
			<stop stop-color="#4F86C4" offset=".8068"/>
			<stop stop-color="#6186C3" offset="1"/>
		</linearGradient>
		
			<rect x="230.34" y="747.23" width="32.847" height="20.722" clip-path="url(#SVGID_59_)" fill="url(#SVGID_62_)" mask="url(#SVGID_60_)"/>
	</g>
	<g clip-path="url(#SVGID_2_)">
		<defs>
			<rect id="SVGID_63_" width="595.28" height="841.89"/>
		</defs>
		<clipPath id="SVGID_64_">
			<use width="100%" height="100%" overflow="visible" xlink:href="#SVGID_63_"/>
		</clipPath>
		<path d="m262.69 745.36c-2.275 0.408-16.352 3.395-18.599 4.218-2.431 0.891-4.841 1.997-7.183 3.486-1.074 0.683-2.151 1.4-3.174 2.188-0.616 0.473-0.761 0.677-1.126 1.034-0.372 0.363-0.743 0.731-1.091 1.119-0.806 0.902-1.485 1.873-1.928 2.945-0.466 1.131-0.552 2.045-0.415 3.173-0.117-0.221-0.267-0.42-0.343-0.665-0.264-0.84-0.498-1.696-0.383-2.718 0.091-0.809 0.262-1.612 0.662-2.45 0.526-1.1 1.234-2.077 2.127-2.954 0.495-0.486 1.044-0.975 1.594-1.372 0.395-0.286 0.749-0.573 1.149-0.84 0.967-0.646 1.953-1.216 2.971-1.68 1.93-0.881 3.854-1.526 5.778-1.977 0.016-3e-3 0.033-0.029 0.097-0.087-1.869-0.814-3.929-0.806-6.326 0.359-2.344 1.14-4.249 2.9-5.854 5.133 0.218-0.739 0.576-1.443 0.981-2.135 1.48-2.526 3.474-4.466 5.961-5.76 2.537-1.319 4.93-1.691 7.152-1.199 1.743 0.386 3.129 1.258 4.176 2.582 0.057 0.072 0.199 0.087 0.314 0.08 0.66-0.032 13.247-2.556 13.91-2.598" clip-path="url(#SVGID_64_)" fill="#fff"/>
	</g>
</g>
</svg>
