<svg width="222" height="61" viewBox="0 0 222 61" fill="none" xmlns="http://www.w3.org/2000/svg">
<path d="M42.8257 52.6045V60.1818H41.8278V53.4261H38.3807V60.1818H37.3828V52.6045H42.8257Z" fill="white" fill-opacity="0.7" stroke="#BABEC7" stroke-width="0.326" stroke-miterlimit="10"/>
<path d="M47.1728 52.6977C47.6263 52.6064 48.2613 52.5151 48.987 52.5151C49.9849 52.5151 50.6199 52.6977 51.0735 53.1542C51.527 53.5194 51.7085 54.0671 51.7085 54.7062C51.7085 55.3452 51.527 55.893 51.1642 56.3494C50.6199 56.8972 49.8035 57.1711 48.8963 57.1711C48.6242 57.1711 48.352 57.1711 48.0799 57.0798V60.0924H47.082V52.6977H47.1728ZM48.0799 56.3494C48.2613 56.4407 48.5335 56.4407 48.8963 56.4407C50.0756 56.4407 50.8013 55.893 50.8013 54.7975C50.8013 53.7932 50.0756 53.3368 48.987 53.3368C48.5335 53.3368 48.2613 53.3368 48.0799 53.4281V56.3494Z" fill="white" fill-opacity="0.7" stroke="#BABEC7" stroke-width="0.326" stroke-miterlimit="10"/>
<path d="M62.0575 56.3489C62.0575 58.9051 60.5153 60.3657 58.6103 60.3657C56.6146 60.3657 55.2539 58.8138 55.2539 56.5315C55.2539 54.1579 56.7053 52.6059 58.701 52.6059C60.6968 52.5146 62.0575 54.0666 62.0575 56.3489ZM56.2518 56.4402C56.2518 58.0834 57.1589 59.4528 58.6103 59.4528C60.1525 59.4528 60.9689 57.9921 60.9689 56.3489C60.9689 54.8882 60.1525 53.2449 58.6103 53.2449C56.9775 53.3362 56.2518 54.7969 56.2518 56.4402Z" fill="white" fill-opacity="0.7" stroke="#BABEC7" stroke-width="0.326" stroke-miterlimit="10"/>
<path d="M65.9609 52.6977C66.4145 52.6064 67.0495 52.5151 67.7752 52.5151C68.7731 52.5151 69.4081 52.6977 69.8616 53.1542C70.3152 53.5194 70.4966 54.0671 70.4966 54.7062C70.4966 55.3452 70.3152 55.893 69.9524 56.3494C69.4081 56.8972 68.5916 57.1711 67.6845 57.1711C67.4124 57.1711 67.1402 57.1711 66.8681 57.0798V60.0924H65.9609V52.6977ZM66.8681 56.3494C67.0495 56.4407 67.3216 56.4407 67.6845 56.4407C68.8638 56.4407 69.5895 55.893 69.5895 54.7975C69.5895 53.7932 68.8638 53.3368 67.7752 53.3368C67.3216 53.3368 67.0495 53.3368 66.8681 53.4281V56.3494Z" fill="white" fill-opacity="0.7" stroke="#BABEC7" stroke-width="0.326" stroke-miterlimit="10"/>
<path d="M75.4833 52.6045V55.4346C75.6647 55.4346 76.1183 55.3433 76.3905 55.3433C77.9326 55.3433 79.2933 55.9823 79.2933 57.7169C79.2933 58.4472 79.1119 58.9037 78.749 59.3601C78.114 59.9992 77.1162 60.2731 76.1183 60.2731C75.4833 60.2731 74.939 60.2731 74.5762 60.1818V52.6958H75.4833V52.6045ZM75.4833 59.4514C75.6647 59.4514 75.9369 59.5427 76.2997 59.5427C77.3883 59.5427 78.2955 58.995 78.2955 57.8082C78.2955 56.6214 77.2976 56.1649 76.2997 56.1649C75.9369 56.1649 75.6647 56.1649 75.574 56.2562V59.4514H75.4833ZM81.1076 52.6045V60.1818H80.1097V52.6045H81.1076Z" fill="white" fill-opacity="0.7" stroke="#BABEC7" stroke-width="0.326" stroke-miterlimit="10"/>
<path d="M85.4609 52.7871C85.9145 52.6958 86.5495 52.6045 87.2752 52.6045C88.2731 52.6045 88.9081 52.7871 89.3617 53.1522C89.7245 53.4261 89.9967 53.8826 89.9967 54.5216C89.9967 55.252 89.5431 55.891 88.7267 56.1649C89.4524 56.3475 90.2688 56.8952 90.2688 58.0821C90.2688 58.7211 89.9967 59.2689 89.6338 59.634C89.0895 60.0905 88.2731 60.3644 87.0031 60.3644C86.3681 60.3644 85.8238 60.3644 85.4609 60.2731V52.7871ZM86.4588 55.7997H87.3659C88.3638 55.7997 88.9988 55.252 88.9988 54.5216C88.9988 53.6087 88.3638 53.3348 87.3659 53.3348C86.9124 53.3348 86.6402 53.3348 86.5495 53.4261V55.7997H86.4588ZM86.4588 59.4514C86.6402 59.4514 86.9124 59.4514 87.2752 59.4514C88.2731 59.4514 89.1802 59.0863 89.1802 57.9908C89.1802 56.9865 88.2731 56.5301 87.2752 56.5301H86.4588V59.4514Z" fill="white" fill-opacity="0.7" stroke="#BABEC7" stroke-width="0.326" stroke-miterlimit="10"/>
<path d="M99.1602 52.7871C99.6137 52.6958 100.249 52.6045 100.974 52.6045C101.972 52.6045 102.607 52.7871 103.061 53.1522C103.424 53.4261 103.696 53.8826 103.696 54.5216C103.696 55.252 103.242 55.891 102.426 56.1649C103.152 56.3475 103.968 56.8952 103.968 58.0821C103.968 58.7211 103.696 59.2689 103.333 59.634C102.789 60.0905 101.972 60.3644 100.702 60.3644C100.067 60.3644 99.523 60.3644 99.1602 60.2731V52.7871ZM100.067 55.7997H100.974C101.972 55.7997 102.607 55.252 102.607 54.5216C102.607 53.6087 101.972 53.3348 100.974 53.3348C100.521 53.3348 100.249 53.3348 100.158 53.4261V55.7997H100.067ZM100.067 59.4514C100.249 59.4514 100.521 59.4514 100.884 59.4514C101.882 59.4514 102.789 59.0863 102.789 57.9908C102.789 56.9865 101.882 56.5301 100.884 56.5301H100.067V59.4514Z" fill="white" fill-opacity="0.7" stroke="#BABEC7" stroke-width="0.326" stroke-miterlimit="10"/>
<path d="M113.133 52.6064L114.585 55.8017C114.766 56.2581 114.948 56.7146 115.129 57.171C115.22 56.8059 115.401 56.3494 115.583 55.8017L116.762 52.6064H117.76L116.218 56.4407C115.764 57.4449 115.311 58.6317 114.857 59.2708C114.403 59.9098 113.859 60.1837 113.133 60.1837C112.861 60.1837 112.68 60.1837 112.589 60.0924L112.68 59.2708C112.771 59.2708 112.861 59.2708 113.043 59.2708C113.859 59.2708 114.313 58.5404 114.494 57.9927C114.585 57.8101 114.585 57.7188 114.494 57.5362L112.045 52.4238H113.133V52.6064Z" fill="white" fill-opacity="0.7" stroke="#BABEC7" stroke-width="0.326" stroke-miterlimit="10"/>
<path d="M126.645 52.6045V60.1818H125.647V53.4261H122.2V60.1818H121.293V52.6045H126.645Z" fill="white" fill-opacity="0.7" stroke="#BABEC7" stroke-width="0.326" stroke-miterlimit="10"/>
<path d="M130.995 52.6977C131.449 52.6064 132.084 52.5151 132.809 52.5151C133.807 52.5151 134.442 52.6977 134.896 53.1542C135.349 53.5194 135.531 54.0671 135.531 54.7062C135.531 55.3452 135.349 55.893 134.986 56.3494C134.442 56.8972 133.626 57.1711 132.719 57.1711C132.446 57.1711 132.174 57.1711 131.902 57.0798V60.0924H130.904V52.6977H130.995ZM131.993 56.3494C132.174 56.4407 132.446 56.4407 132.809 56.4407C133.989 56.4407 134.714 55.893 134.714 54.7975C134.714 53.7932 133.989 53.3368 132.9 53.3368C132.446 53.3368 132.174 53.3368 131.993 53.4281V56.3494Z" fill="white" fill-opacity="0.7" stroke="#BABEC7" stroke-width="0.326" stroke-miterlimit="10"/>
<path d="M139.894 57.8082L139.078 60.1818H138.08L140.62 52.6045H141.799L144.339 60.1818H143.341L142.525 57.8082H139.894ZM142.344 57.0778L141.618 54.8868C141.436 54.4303 141.346 53.9739 141.255 53.5174C141.164 53.9739 140.983 54.4303 140.892 54.8868L140.166 57.0778H142.344Z" fill="white" fill-opacity="0.7" stroke="#BABEC7" stroke-width="0.326" stroke-miterlimit="10"/>
<path d="M148.146 52.7871C148.6 52.6958 149.235 52.6045 149.961 52.6045C150.959 52.6045 151.594 52.7871 152.047 53.1522C152.41 53.4261 152.682 53.8826 152.682 54.5216C152.682 55.252 152.229 55.891 151.412 56.1649C152.138 56.3475 152.954 56.8952 152.954 58.0821C152.954 58.7211 152.682 59.2689 152.319 59.634C151.775 60.0905 150.959 60.3644 149.689 60.3644C149.054 60.3644 148.509 60.3644 148.146 60.2731V52.7871ZM149.054 55.7997H149.961C150.959 55.7997 151.594 55.252 151.594 54.5216C151.594 53.6087 150.959 53.3348 149.961 53.3348C149.507 53.3348 149.235 53.3348 149.144 53.4261V55.7997H149.054ZM149.054 59.4514C149.235 59.4514 149.507 59.4514 149.87 59.4514C150.868 59.4514 151.775 59.0863 151.775 57.9908C151.775 56.9865 150.868 56.5301 149.87 56.5301H149.054V59.4514Z" fill="white" fill-opacity="0.7" stroke="#BABEC7" stroke-width="0.326" stroke-miterlimit="10"/>
<path d="M161.753 52.6045V60.1818H160.755V53.4261H158.306V55.7084C158.306 57.3517 158.215 59.1776 157.217 59.9079C156.945 60.0905 156.492 60.2731 156.038 60.2731L155.947 59.4514C156.219 59.3601 156.582 59.1776 156.764 59.0863C157.399 58.4472 157.399 56.9865 157.399 55.7997V52.6045H161.753Z" fill="white" fill-opacity="0.7" stroke="#BABEC7" stroke-width="0.326" stroke-miterlimit="10"/>
<path d="M169.914 56.6214H167.011V59.3602H170.276V60.1818H166.104V52.6045H170.186V53.4261H167.101V55.7997H170.004V56.6214H169.914Z" fill="white" fill-opacity="0.7" stroke="#BABEC7" stroke-width="0.326" stroke-miterlimit="10"/>
<path d="M175.178 52.6045V55.7997H178.806V52.6045H179.804V60.1818H178.806V56.6214H175.178V60.1818H174.18V52.6045H175.178Z" fill="white" fill-opacity="0.7" stroke="#BABEC7" stroke-width="0.326" stroke-miterlimit="10"/>
<path d="M184.975 52.6045V55.7997C184.975 56.9865 184.975 57.9908 184.884 58.995C185.247 58.1733 185.7 57.3517 186.245 56.5301L188.694 52.6045H189.692V60.1818H188.785V56.9865C188.785 55.7997 188.785 54.8868 188.875 53.8826C188.513 54.7042 187.968 55.6171 187.515 56.4388L185.156 60.1818H184.158V52.6045H184.975Z" fill="white" fill-opacity="0.7" stroke="#BABEC7" stroke-width="0.326" stroke-miterlimit="10"/>
<path d="M194.959 52.6045V55.7997C194.959 56.9865 194.959 57.9908 194.868 58.995C195.231 58.1733 195.685 57.3517 196.229 56.5301L198.678 52.6045H199.676V60.1818H198.769V56.9865C198.769 55.7997 198.769 54.8868 198.86 53.8826C198.497 54.7042 197.953 55.6171 197.499 56.4388L195.14 60.1818H194.143V52.6045H194.959Z" fill="white" fill-opacity="0.7" stroke="#BABEC7" stroke-width="0.326" stroke-miterlimit="10"/>
<path d="M43.7421 10.8835C40.0476 11.9092 36.3531 12.9348 32.6586 14.7939C28.9003 16.6529 25.2058 18.9607 21.8935 22.0377C19.5366 24.1532 17.4983 26.5251 16.2243 29.4098C14.1859 34.1535 15.8421 38.0639 20.1099 38.5768C21.6387 38.7691 23.2312 38.6409 24.8873 37.9357C26.1613 37.3588 27.4353 36.4613 28.5818 35.4997C33.7414 31.0124 36.3531 25.7558 36.7353 19.9223C36.8627 18.3837 36.5442 16.9093 36.4168 15.3067C36.7353 15.1785 37.1812 14.9221 37.5634 14.7939C40.1113 14.0887 42.6593 13.3836 45.2072 12.6784C45.6531 12.5502 45.7805 12.7425 45.8442 13.1272C46.9271 20.4351 44.6339 27.8072 38.901 35.1151C33.6777 41.7179 27.4353 45.9488 20.301 47.2309C14.7592 48.1925 10.1729 47.1668 6.92428 43.641C4.82223 41.3333 3.93044 38.2562 5.01332 34.1535C5.84141 31.0765 7.68867 28.3841 10.1092 25.9481C13.4215 22.5506 17.1798 20.1787 21.0017 17.935C25.2695 15.4349 29.6647 13.7682 33.9962 12.422C34.1873 12.3579 34.4421 12.2938 34.7606 12.1656C34.4421 11.7168 34.1236 11.3322 33.8051 10.8194C35.0154 10.4348 36.162 10.0501 37.3086 9.7937C39.4743 9.28086 41.6401 8.89624 43.7421 8.3834C44.188 8.31929 44.3791 8.3834 44.4428 8.76803C44.6339 9.98602 70.3045 5.04995 71.5785 4.66532C71.897 4.60121 72.1518 4.60121 72.4702 4.53711" fill="url(#paint0_linear_1118_92666)" fill-opacity="0.5"/>
<path d="M71.6422 0.755714C66.8648 1.58908 37.436 7.87135 32.786 9.60218C27.6901 11.4612 22.6579 13.8331 17.7531 16.9101C15.5237 18.3204 13.2942 19.9231 11.1285 21.5257C10.3004 22.1667 9.536 22.936 8.77162 23.7052C8.00723 24.4745 7.24285 25.2438 6.47846 26.0771C4.8223 28.0003 3.35723 29.9875 2.46544 32.2953C1.50996 34.6672 1.31887 36.5903 1.57366 38.9622C1.31887 38.5134 1.00037 38.0647 0.872977 37.5519C0.299688 35.7569 -0.146203 33.962 0.0448929 31.8465C0.235989 30.1157 0.618182 28.449 1.44626 26.7182C2.52914 24.4104 3.99421 22.359 5.90517 20.5C6.92435 19.4743 8.07093 18.641 9.21751 17.8076C10.0456 17.2306 10.81 16.4614 11.6381 15.8844C13.6764 14.5382 15.7148 13.3203 17.8168 12.3587C21.8298 10.4996 25.8429 9.15344 29.9196 8.19187C29.9833 8.19187 29.9833 8.12777 30.1107 7.99956C26.2251 6.26873 21.8935 6.33283 16.8614 8.76882C11.9566 11.1407 8.00723 14.8588 4.6312 19.5384C5.07709 17.9999 5.84148 16.5255 6.66956 15.0511C9.7908 9.73039 13.9312 5.62768 19.1545 2.93528C24.4415 0.178772 29.4737 -0.590487 34.1237 0.43519C37.7545 1.26855 40.6847 3.06349 42.8504 5.8841C42.9778 6.01231 43.2963 6.07641 43.4874 6.07641C44.8888 6.01231 71.1964 0.691609 72.534 0.627504" fill="#4E84FF"/>
<path d="M32.6622 31.1417C32.6622 36.2701 28.7129 40.0523 23.6807 40.0523C18.6485 40.0523 14.6992 36.3983 14.6992 31.2699C14.6992 26.1416 18.6485 22.3594 23.6807 22.3594C28.7129 22.3594 32.6622 26.0134 32.6622 31.1417ZM30.9424 31.1417C30.9424 26.9108 27.7575 23.962 23.6807 23.962C19.5403 23.962 16.3554 27.039 16.3554 31.3341C16.3554 35.6291 19.604 38.5779 23.6807 38.5779C27.8211 38.5138 30.9424 35.3727 30.9424 31.1417Z" fill="white"/>
<path d="M35.0832 27.1037H36.6757V29.2833H36.7394C38.3319 27.1037 40.4976 26.7832 41.6442 26.7832C46.0394 26.7832 48.3326 30.2449 48.3326 33.4501C48.3326 37.2323 45.4661 39.9888 41.5805 39.9888C38.523 39.9888 37.249 38.0656 36.8031 37.3605H36.7394V44.1556H35.0195V27.1037H35.0832ZM36.6757 33.5142C36.6757 36.3348 38.7141 38.5144 41.5805 38.5144C44.3832 38.5144 46.6127 36.3348 46.6127 33.4501C46.6127 30.5654 44.4469 28.3217 41.6442 28.3217C38.7141 28.3858 36.6757 30.6936 36.6757 33.5142Z" fill="white"/>
<path d="M57.2524 27.1021V28.6406H52.4113V39.7307H50.6914V27.1021H57.2524Z" fill="white"/>
<path d="M58.8443 30.2433C59.0991 27.7432 61.2012 26.8457 62.8573 26.8457C64.7046 26.8457 66.8067 27.7432 66.8067 30.1792C66.8067 31.4613 66.1697 32.6792 64.8957 33.1921C66.3608 33.5767 67.1252 34.7947 67.1252 36.3332C67.1252 38.5128 65.4053 40.1154 62.8573 40.1154C59.7361 40.1154 58.3984 38.2564 58.3984 36.205H60.1183C60.1183 37.5512 61.0738 38.5769 62.8573 38.5769C65.0868 38.5769 65.469 37.1025 65.469 36.3973C65.469 35.3716 65.0231 34.0895 62.8573 34.0895H61.7108V32.4869H62.8573C64.3861 32.4869 65.1505 31.4613 65.1505 30.3715C65.1505 29.3458 64.5135 28.3842 62.9847 28.3842C61.5197 28.3842 60.6916 29.1535 60.5642 30.2433H58.8443Z" fill="white"/>
<path d="M81.2668 38.1922H82.6044V43H80.8846V39.7948H70.0558V43H68.3359V38.1922H69.6736L74.5784 27.1021H76.4257L81.2668 38.1922ZM79.4195 38.1922L75.4702 29.0252L71.5209 38.1922H79.4195Z" fill="white"/>
<path d="M84.1965 27.1028H85.789V29.2823H85.8527C87.4451 27.1028 89.6109 26.7822 90.7575 26.7822C95.1527 26.7822 97.4458 30.2439 97.4458 33.4491C97.4458 37.2313 94.5794 39.9878 90.6938 39.9878C87.6362 39.9878 86.3623 38.0647 85.9164 37.3595H85.8527V44.1546H84.1328V27.1028H84.1965ZM85.8527 33.5132C85.8527 36.3338 87.891 38.5134 90.7575 38.5134C93.5602 38.5134 95.7897 36.3338 95.7897 33.4491C95.7897 30.5644 93.6239 28.3207 90.8212 28.3207C87.891 28.3848 85.8527 30.6926 85.8527 33.5132Z" fill="white"/>
<path d="M112.665 39.7309H111.072V37.359H111.008C110.308 38.4488 108.843 39.9873 106.104 39.9873C102.345 39.9873 99.3516 37.2308 99.3516 33.3204C99.3516 30.3075 101.517 26.7817 106.04 26.7817C107.123 26.7817 109.48 26.9741 110.945 29.2818H111.008V27.1023H112.601V39.7309H112.665ZM101.071 33.5127C101.071 36.3975 103.428 38.5129 106.104 38.5129C108.843 38.5129 111.008 36.2692 111.008 33.5127C111.008 30.628 108.843 28.3844 106.04 28.3844C103.301 28.3844 101.071 30.5639 101.071 33.5127Z" fill="white"/>
<path d="M120.057 27.1035C122.987 27.1035 123.751 28.9626 123.751 30.5011C123.751 31.7191 123.114 32.6806 122.095 33.1294C123.369 33.4499 124.261 34.6679 124.261 36.1423C124.261 38.1295 122.859 39.7963 120.248 39.7963H115.598V27.1035H120.057ZM117.254 32.4883H119.929C121.267 32.4883 122.095 31.7191 122.095 30.5011C122.095 28.642 120.375 28.7061 119.929 28.7061H117.254V32.4883ZM117.254 38.1936H119.993C121.968 38.1936 122.541 36.9757 122.541 36.1423C122.541 35.6295 122.35 34.0909 119.993 34.0909H117.254V38.1936Z" fill="white"/>
<path d="M126.173 27.039C127.574 24.0902 130.441 22.3594 134.008 22.3594C139.996 22.3594 142.798 27.1672 142.798 31.1417C142.798 36.3342 138.849 40.0523 133.881 40.0523C130.568 40.0523 127.702 38.2574 126.109 35.3086H128.148C129.485 37.4881 131.842 38.5138 133.881 38.5138C137.511 38.5138 140.696 35.8855 141.079 31.911H131.142V30.3725H141.079C140.696 26.7826 137.894 23.8979 134.008 23.8979C131.715 23.8979 129.485 24.8595 128.211 27.039H126.173Z" fill="white" fill-opacity="0.5"/>
<path d="M145.219 39.7322V27.1035H146.939V39.7322H145.219ZM147.894 33.3858L152.799 27.1676H154.774L149.932 33.2576L155.092 39.7963H152.926L147.894 33.3858Z" fill="white" fill-opacity="0.5"/>
<path d="M168.979 36.0768C168.151 37.9358 166.304 40.0513 162.864 40.0513C158.596 40.0513 156.176 36.7178 156.176 33.4485C156.176 30.4356 158.469 26.8457 162.864 26.8457C165.794 26.8457 168.024 28.5124 168.979 30.9484H167.068C165.794 28.4483 163.437 28.3842 162.864 28.3842C159.934 28.3842 157.832 30.6279 157.832 33.4485C157.832 36.3332 160.125 38.5769 162.864 38.5769C164.584 38.5769 166.176 37.7435 167.068 36.1409H168.979V36.0768Z" fill="white" fill-opacity="0.5"/>
<path d="M181.911 27.1021V39.7307H180.192V28.6406H173.185V39.7307H171.465V27.1021H181.911Z" fill="white" fill-opacity="0.5"/>
<path d="M186.116 34.0254C186.307 36.5255 188.281 38.5128 190.893 38.5128C192.868 38.5128 194.524 37.3589 195.288 35.6281H197.072C196.053 38.3846 193.759 40.0513 190.893 40.0513C187.198 40.0513 184.332 37.2307 184.332 33.4485C184.332 30.3074 186.625 26.8457 190.893 26.8457C195.67 26.8457 197.39 30.8202 197.327 34.0895H186.116V34.0254ZM195.479 32.4869C194.97 29.9227 193.059 28.3842 190.893 28.3842C188.472 28.3842 186.561 30.115 186.116 32.4869H195.479Z" fill="white" fill-opacity="0.5"/>
<path d="M199.743 27.1023H201.336V29.2818H201.4C202.992 27.1023 205.158 26.7817 206.304 26.7817C210.7 26.7817 212.993 30.2434 212.993 33.4486C212.993 37.2308 210.126 39.9873 206.241 39.9873C203.183 39.9873 201.909 38.0642 201.463 37.359H201.4V44.1541H199.68V27.1023H199.743ZM201.336 33.5127C201.336 36.3334 203.374 38.5129 206.241 38.5129C209.043 38.5129 211.273 36.3334 211.273 33.4486C211.273 30.5639 209.107 28.3203 206.304 28.3203C203.374 28.3844 201.336 30.6921 201.336 33.5127Z" fill="white" fill-opacity="0.5"/>
<path d="M222.358 27.103V28.6415H219.109V39.7317H217.389V28.6415H214.141V27.103H222.358Z" fill="white" fill-opacity="0.5"/>
<path d="M23.6153 38.962C27.8017 38.962 31.1954 35.5466 31.1954 31.3335C31.1954 27.1205 27.8017 23.7051 23.6153 23.7051C19.4289 23.7051 16.0352 27.1205 16.0352 31.3335C16.0352 35.5466 19.4289 38.962 23.6153 38.962Z" fill="white" fill-opacity="0.5"/>
<path d="M24.4309 36.7924C28.0192 36.7924 30.9281 33.951 30.9281 30.446C30.9281 26.941 28.0192 24.0996 24.4309 24.0996C20.8425 24.0996 17.9336 26.941 17.9336 30.446C17.9336 33.951 20.8425 36.7924 24.4309 36.7924Z" fill="#182543"/>
<defs>
<linearGradient id="paint0_linear_1118_92666" x1="4.52217" y1="26.0616" x2="72.4605" y2="26.0616" gradientUnits="userSpaceOnUse">
<stop stop-color="#3C73ED"/>
<stop offset="1" stop-color="white" stop-opacity="0"/>
</linearGradient>
</defs>
</svg>
