<svg width="28" height="28" viewBox="0 0 28 28" fill="none" xmlns="http://www.w3.org/2000/svg">
<path d="M24.9986 14.0676C24.9986 7.95447 20.0734 2.99902 13.9987 2.99902C7.92129 3.0004 2.99609 7.95447 2.99609 14.069C2.99609 19.5923 7.0193 24.171 12.2772 25.0015V17.2672H9.48602V14.069H12.28V11.6284C12.28 8.85508 13.9231 7.32335 16.4352 7.32335C17.6397 7.32335 18.8978 7.53922 18.8978 7.53922V10.2617H17.5104C16.1451 10.2617 15.7188 11.1156 15.7188 11.9914V14.0676H18.7685L18.2818 17.2659H15.7175V25.0002C20.9754 24.1697 24.9986 19.591 24.9986 14.0676Z" fill="url(#paint0_linear)"/>
<defs>
<linearGradient id="paint0_linear" x1="6.57907" y1="2.99902" x2="12.6488" y2="25.3675" gradientUnits="userSpaceOnUse">
<stop stop-color="#3C73ED"/>
<stop offset="1" stop-color="#0A3699"/>
</linearGradient>
</defs>
</svg>
