<svg width="28" height="28" viewBox="0 0 28 28" fill="none" xmlns="http://www.w3.org/2000/svg">
<path d="M13.9973 10.6652C12.1611 10.6652 10.6626 12.1638 10.6626 14C10.6626 15.8362 12.1611 17.3348 13.9973 17.3348C15.8335 17.3348 17.332 15.8362 17.332 14C17.332 12.1638 15.8335 10.6652 13.9973 10.6652ZM23.9989 14C23.9989 12.6191 24.0114 11.2506 23.9338 9.87221C23.8563 8.27113 23.4911 6.85017 22.3203 5.67938C21.147 4.50609 19.7286 4.14334 18.1275 4.06579C16.7466 3.98824 15.3782 4.00074 13.9998 4.00074C12.6189 4.00074 11.2505 3.98824 9.8721 4.06579C8.27105 4.14334 6.85012 4.50859 5.67935 5.67938C4.50608 6.85267 4.14334 8.27113 4.06579 9.87221C3.98824 11.2531 4.00074 12.6216 4.00074 14C4.00074 15.3784 3.98824 16.7494 4.06579 18.1278C4.14334 19.7289 4.50858 21.1498 5.67935 22.3206C6.85262 23.4939 8.27105 23.8567 9.8721 23.9342C11.253 24.0118 12.6214 23.9993 13.9998 23.9993C15.3807 23.9993 16.7491 24.0118 18.1275 23.9342C19.7286 23.8567 21.1495 23.4914 22.3203 22.3206C23.4936 21.1473 23.8563 19.7289 23.9338 18.1278C24.0139 16.7494 23.9989 15.3809 23.9989 14ZM13.9973 19.131C11.1579 19.131 8.86644 16.8394 8.86644 14C8.86644 11.1606 11.1579 8.86903 13.9973 8.86903C16.8367 8.86903 19.1282 11.1606 19.1282 14C19.1282 16.8394 16.8367 19.131 13.9973 19.131ZM19.3383 9.8572C18.6754 9.8572 18.14 9.32184 18.14 8.65889C18.14 7.99594 18.6754 7.46058 19.3383 7.46058C20.0013 7.46058 20.5366 7.99594 20.5366 8.65889C20.5368 8.81631 20.5059 8.97222 20.4458 9.1177C20.3856 9.26317 20.2974 9.39535 20.1861 9.50666C20.0748 9.61798 19.9426 9.70624 19.7971 9.76639C19.6516 9.82654 19.4957 9.8574 19.3383 9.8572Z" fill="url(#paint0_linear)"/>
<defs>
<linearGradient id="paint0_linear" x1="7.25688" y1="4" x2="12.7742" y2="24.3326" gradientUnits="userSpaceOnUse">
<stop stop-color="#3C73ED"/>
<stop offset="1" stop-color="#0A3699"/>
</linearGradient>
</defs>
</svg>
