<svg width="28" height="28" viewBox="0 0 28 28" fill="none" xmlns="http://www.w3.org/2000/svg">
<path fill-rule="evenodd" clip-rule="evenodd" d="M23.3625 17.1127C23.3625 17.1127 25.3029 18.9285 25.7829 19.7687C25.7923 19.7808 25.7996 19.7942 25.8045 19.8085C26.0001 20.1189 26.0481 20.3622 25.9521 20.5418C25.7901 20.8386 25.2417 20.9875 25.0557 21H21.6261C21.3873 21 20.8905 20.9409 20.2857 20.5452C19.8237 20.2394 19.3641 19.7357 18.9189 19.2434C18.2541 18.5123 17.6793 17.8779 17.0973 17.8779C17.0238 17.8778 16.9508 17.8893 16.8813 17.912C16.4409 18.0439 15.8817 18.6385 15.8817 20.2223C15.8817 20.718 15.4689 21 15.1797 21H13.6089C13.0737 21 10.2873 20.8226 7.81651 18.3543C4.78891 15.3323 2.06971 9.26998 2.04331 9.21655C1.87411 8.8243 2.22931 8.61055 2.61331 8.61055H6.07651C6.54091 8.61055 6.69211 8.8766 6.79771 9.11536C6.92011 9.38936 7.37371 10.4854 8.11771 11.7167C9.32252 13.72 10.0629 14.5352 10.6545 14.5352C10.7657 14.5356 10.8749 14.5081 10.9713 14.4557C11.7441 14.0532 11.6001 11.4382 11.5641 10.8992C11.5641 10.7946 11.5629 9.73159 11.1669 9.21768C10.8837 8.84931 10.4013 8.70605 10.1097 8.65375C10.1877 8.54688 10.3533 8.38316 10.5657 8.28651C11.0949 8.03638 12.0513 8 13.0005 8H13.5273C14.5569 8.01364 14.8233 8.07618 15.1977 8.166C15.9513 8.33654 15.9657 8.79928 15.8997 10.3751C15.8805 10.8253 15.8601 11.3324 15.8601 11.9293C15.8601 12.0567 15.8541 12.1988 15.8541 12.3432C15.8313 13.1516 15.8013 14.0623 16.4037 14.4363C16.4819 14.4824 16.5721 14.5069 16.6641 14.5068C16.8729 14.5068 17.4981 14.5068 19.1937 11.7497C19.9377 10.532 20.5137 9.09603 20.5533 8.98802C20.5869 8.92776 20.6877 8.75835 20.8101 8.69013C20.8972 8.64624 20.9947 8.62432 21.0933 8.62647H25.1673C25.6113 8.62647 25.9125 8.69013 25.9713 8.84931C26.0697 9.1074 25.9521 9.89531 24.0921 12.2784C23.7789 12.6752 23.5041 13.0185 23.2629 13.3187C21.5769 15.4153 21.5769 15.521 23.3625 17.1127Z" fill="url(#paint0_linear)"/>
<defs>
<linearGradient id="paint0_linear" x1="5.90826" y1="8" x2="7.94973" y2="21.8893" gradientUnits="userSpaceOnUse">
<stop stop-color="#3C73ED"/>
<stop offset="1" stop-color="#0A3699"/>
</linearGradient>
</defs>
</svg>
