<svg width="24" height="24" viewBox="0 0 24 24" fill="none" xmlns="http://www.w3.org/2000/svg">
<path d="M5.26744 9.74994L6.26744 9.74995L6.26743 9.74855L5.26744 9.74994ZM12.0498 3.00013L12.0572 2.00016L12.056 2.00015L12.0498 3.00013ZM5.26743 10.4999L4.26743 10.4999V10.4999H5.26743ZM4.1152 17.622L4.1152 18.622L4.1152 17.622ZM4.02437 17.4705L3.13625 17.0109L4.02437 17.4705ZM19.9724 17.4706L19.0842 17.93L19.9724 17.4706ZM19.8816 17.6221L19.8816 16.6221L19.8816 17.6221ZM6.26743 9.74855C6.26638 8.99102 6.41526 8.24077 6.70551 7.54105L4.85814 6.77475C4.46677 7.71825 4.26601 8.72989 4.26744 9.75134L6.26743 9.74855ZM6.70551 7.54105C6.99576 6.84133 7.42163 6.20597 7.95857 5.67161L6.54777 4.25399C5.82375 4.97453 5.24951 5.83124 4.85814 6.77475L6.70551 7.54105ZM7.95857 5.67161C8.49551 5.13724 9.13291 4.71443 9.83402 4.42756L9.07662 2.57652C8.13124 2.96334 7.27178 3.53346 6.54777 4.25399L7.95857 5.67161ZM9.83402 4.42756C10.5351 4.14068 11.2861 3.99541 12.0436 4.00011L12.056 2.00015C11.0346 1.99381 10.022 2.18969 9.07662 2.57652L9.83402 4.42756ZM12.0424 4.0001C15.1857 4.02347 17.7301 6.64306 17.7301 9.83468H19.7301C19.7301 5.58245 16.337 2.03197 12.0572 2.00016L12.0424 4.0001ZM17.7301 9.83468V10.4999H19.7301V9.83468H17.7301ZM17.7301 10.4999C17.7301 13.8024 18.3883 16.5846 19.0842 17.93L20.8606 17.0112C20.3622 16.0475 19.7301 13.6146 19.7301 10.4999H17.7301ZM19.8816 16.6221L4.11521 16.622L4.1152 18.622L19.8816 18.6221L19.8816 16.6221ZM4.91249 17.9301C5.60881 16.5846 6.26743 13.8023 6.26743 10.4999H4.26743C4.26743 13.6143 3.63497 16.0472 3.13625 17.0109L4.91249 17.9301ZM6.26743 10.4999L6.26744 9.74995L4.26744 9.74994L4.26743 10.4999L6.26743 10.4999ZM4.11521 16.622C4.80951 16.622 5.21138 17.3526 4.91249 17.9301L3.13625 17.0109C2.76648 17.7254 3.26668 18.622 4.1152 18.622L4.11521 16.622ZM19.0842 17.93C18.7855 17.3525 19.1874 16.6221 19.8816 16.6221L19.8816 18.6221C20.73 18.6221 21.2302 17.7257 20.8606 17.0112L19.0842 17.93Z" fill="#061432"/>
<path d="M9 18V18.75C9 19.5456 9.31607 20.3087 9.87868 20.8713C10.4413 21.4339 11.2044 21.75 12 21.75C12.7956 21.75 13.5587 21.4339 14.1213 20.8713C14.6839 20.3087 15 19.5456 15 18.75V18" stroke="#061432" stroke-width="2" stroke-linecap="round" stroke-linejoin="round"/>
</svg>
