<svg width="24" height="24" viewBox="0 0 24 24" fill="none" xmlns="http://www.w3.org/2000/svg">
<path d="M10.856 16.4951L20.25 16.4951" stroke="#061432" stroke-width="2" stroke-linecap="round" stroke-linejoin="round"/>
<path d="M3.75027 16.4951L5.88477 16.4951" stroke="#061432" stroke-width="2" stroke-linecap="round" stroke-linejoin="round"/>
<path d="M8.24449 18.8601C6.9411 18.8601 5.88449 17.8035 5.88449 16.5001C5.88449 15.1967 6.9411 14.1401 8.24449 14.1401C9.54788 14.1401 10.6045 15.1967 10.6045 16.5001C10.6045 17.8035 9.54788 18.8601 8.24449 18.8601Z" stroke="#061432" stroke-width="2" stroke-linecap="square" stroke-linejoin="round"/>
<path d="M13.144 7.49513L3.75 7.49512" stroke="#061432" stroke-width="2" stroke-linecap="round" stroke-linejoin="round"/>
<path d="M20.2497 7.49513L18.1152 7.49512" stroke="#061432" stroke-width="2" stroke-linecap="round" stroke-linejoin="round"/>
<path d="M15.7555 9.86014C17.0589 9.86014 18.1155 8.80353 18.1155 7.50014C18.1155 6.19674 17.0589 5.14014 15.7555 5.14014C14.4521 5.14014 13.3955 6.19674 13.3955 7.50014C13.3955 8.80353 14.4521 9.86014 15.7555 9.86014Z" stroke="#061432" stroke-width="2" stroke-linecap="square" stroke-linejoin="round"/>
</svg>
