<svg width="24" height="24" viewBox="0 0 24 24" fill="none" xmlns="http://www.w3.org/2000/svg">
<path d="M10.875 18.75C15.2242 18.75 18.75 15.2242 18.75 10.875C18.75 6.52576 15.2242 3 10.875 3C6.52576 3 3 6.52576 3 10.875C3 15.2242 6.52576 18.75 10.875 18.75Z" stroke="#061432" stroke-width="2" stroke-linecap="round" stroke-linejoin="round"/>
<path d="M17.1505 15.7363C16.7599 15.3457 16.1268 15.3457 15.7363 15.7363C15.3457 16.1268 15.3457 16.7599 15.7363 17.1505L17.1505 15.7363ZM20.2926 21.7068C20.6831 22.0973 21.3162 22.0973 21.7068 21.7068C22.0973 21.3162 22.0973 20.6831 21.7068 20.2926L20.2926 21.7068ZM15.7363 17.1505L20.2926 21.7068L21.7068 20.2926L17.1505 15.7363L15.7363 17.1505Z" fill="#061432"/>
</svg>
