<svg width="24" height="24" viewBox="0 0 24 24" fill="none" xmlns="http://www.w3.org/2000/svg">
<path d="M21.7366 7.51089C21.5254 7.27179 21.2658 7.08029 20.975 6.94911C20.6842 6.81794 20.3688 6.75006 20.0498 6.75H14.999V5.25C14.9979 4.25578 14.6024 3.30261 13.8994 2.5996C13.1964 1.89658 12.2432 1.50113 11.249 1.5C11.1097 1.49999 10.9732 1.53877 10.8547 1.612C10.7362 1.68523 10.6405 1.79001 10.5782 1.9146L7.03549 9H2.99902C2.60134 9.00045 2.22007 9.15864 1.93887 9.43984C1.65766 9.72105 1.49948 10.1023 1.49902 10.5V18.75C1.49948 19.1477 1.65766 19.529 1.93887 19.8102C2.22007 20.0914 2.60134 20.2495 2.99902 20.25H18.9248C19.473 20.2492 20.0021 20.0487 20.4131 19.6859C20.8241 19.3231 21.0887 18.8229 21.1575 18.2791L22.2825 9.27905C22.322 8.96247 22.2937 8.64112 22.1996 8.33629C22.1055 8.03146 21.9477 7.75011 21.7366 7.51089ZM2.99902 10.5H6.74902V18.75H2.99902V10.5Z" fill="#061432"/>
</svg>
