<svg width="24" height="24" viewBox="0 0 24 24" fill="none" xmlns="http://www.w3.org/2000/svg">
<path d="M22.2825 14.7209L21.1575 5.7209C21.0887 5.17704 20.8241 4.6769 20.4131 4.31412C20.0021 3.95133 19.473 3.75078 18.9248 3.75H2.99902C2.60134 3.75045 2.22007 3.90864 1.93887 4.18984C1.65766 4.47105 1.49948 4.85231 1.49902 5.25V13.5C1.49948 13.8977 1.65766 14.279 1.93887 14.5602C2.22007 14.8414 2.60134 14.9995 2.99902 15H7.03549L10.5782 22.0854C10.6405 22.21 10.7362 22.3148 10.8547 22.388C10.9732 22.4612 11.1097 22.5 11.249 22.5C12.2432 22.4989 13.1964 22.1034 13.8994 21.4004C14.6024 20.6974 14.9979 19.7442 14.999 18.75V17.25H20.0498C20.3688 17.25 20.6842 17.1822 20.975 17.051C21.2659 16.9198 21.5255 16.7282 21.7366 16.4891C21.9477 16.2499 22.1056 15.9686 22.1997 15.6637C22.2938 15.3589 22.3221 15.0375 22.2825 14.7209ZM6.74902 13.5H2.99902V5.25H6.74902V13.5Z" fill="#061432"/>
</svg>
