<svg width="124" height="124" viewBox="0 0 124 124" fill="none" xmlns="http://www.w3.org/2000/svg">
<path d="M103.335 73.9998V15.4997C103.335 12.6462 101.022 10.333 98.168 10.333H25.8346C22.9812 10.333 20.668 12.6462 20.668 15.4997V108.5C20.668 111.353 22.9812 113.666 25.8346 113.666H80.5" fill="#EBF1FD" fill-opacity="0.1" />
<path d="M103.335 73.9998V15.4997C103.335 12.6462 101.022 10.333 98.168 10.333H25.8346C22.9812 10.333 20.668 12.6462 20.668 15.4997V108.5C20.668 111.353 22.9812 113.666 25.8346 113.666H80.5" stroke="#4E84FF" stroke-width="2" stroke-linecap="round" stroke-linejoin="round"/>
<path d="M41.332 31.3975H74.9154" stroke="#4E84FF" stroke-width="2" stroke-linecap="round"/>
<path d="M41.332 49.2822H74.7167" stroke="#4E84FF" stroke-width="2" stroke-linecap="round"/>
<path d="M41.332 67.1797H58.0243" stroke="#4E84FF" stroke-width="2" stroke-linecap="round"/>
<path d="M80 95H100V122L90 115.25L80 122V95Z" fill="#EBF1FD" fill-opacity="0.1" stroke="#4E84FF" stroke-width="2" stroke-linecap="round" stroke-linejoin="round"/>
<path d="M87.0397 68.6651C88.5904 67.165 91.0514 67.165 92.6021 68.6651L93.7212 69.7477C94.6079 70.6056 95.8409 71.0062 97.0625 70.8334L98.6042 70.6153C100.741 70.3132 102.731 71.7597 103.104 73.8848L103.373 75.4184C103.586 76.6336 104.348 77.6825 105.438 78.2608L106.814 78.9905C108.72 80.0017 109.48 82.3423 108.533 84.2806L107.849 85.6795C107.307 86.7879 107.307 88.0844 107.849 89.1928L108.533 90.5917C109.48 92.53 108.72 94.8706 106.814 95.8818L105.438 96.6115C104.348 97.1898 103.586 98.2387 103.373 99.4539L103.104 100.987C102.731 103.113 100.741 104.559 98.6042 104.257L97.0625 104.039C95.8409 103.866 94.6079 104.267 93.7212 105.125L92.6021 106.207C91.0514 107.707 88.5904 107.707 87.0397 106.207L85.9207 105.125C85.0339 104.267 83.8009 103.866 82.5793 104.039L81.0376 104.257C78.9013 104.559 76.9103 103.113 76.5376 100.987L76.2685 99.4539C76.0554 98.2387 75.2933 97.1898 74.2035 96.6115L72.828 95.8818C70.9221 94.8706 70.1617 92.53 71.1092 90.5917L71.793 89.1928C72.3348 88.0844 72.3348 86.7879 71.793 85.6795L71.1092 84.2806C70.1617 82.3423 70.9221 80.0017 72.828 78.9905L74.2035 78.2608C75.2933 77.6825 76.0554 76.6336 76.2685 75.4184L76.5376 73.8848C76.9103 71.7597 78.9013 70.3132 81.0376 70.6153L82.5793 70.8334C83.8009 71.0062 85.0339 70.6056 85.9207 69.7477L87.0397 68.6651Z" fill="#EBF1FD" fill-opacity="0.1" stroke="#4E84FF" stroke-width="2"/>
</svg>
