<svg width="124" height="124" viewBox="0 0 124 124" fill="none" xmlns="http://www.w3.org/2000/svg">
<path d="M28.168 56.6094V91.3271C28.168 91.6547 28.3242 91.9582 28.5986 92.1371C31.2121 93.8416 45.3922 102.557 62.0819 102.557C78.7717 102.557 92.9518 93.8416 95.5653 92.1371C95.8397 91.9582 95.9959 91.6547 95.9959 91.3271V56.6094" fill="#EBF1FD" fill-opacity="0.1" />
<path d="M28.168 56.6094V91.3271C28.168 91.6547 28.3242 91.9582 28.5986 92.1371C31.2121 93.8416 45.3922 102.557 62.0819 102.557C78.7717 102.557 92.9518 93.8416 95.5653 92.1371C95.8397 91.9582 95.9959 91.6547 95.9959 91.3271V56.6094" stroke="#4E84FF" stroke-width="2" stroke-linecap="round" stroke-linejoin="round"/>
<path d="M28.168 43.6094V78.85C28.168 78.85 43.5834 89.5573 62.0819 89.5573C80.5804 89.5573 95.9959 78.85 95.9959 78.85V43.6094" fill="#EBF1FD" fill-opacity="0.1" />
<path d="M28.168 43.6094V78.85C28.168 78.85 43.5834 89.5573 62.0819 89.5573C80.5804 89.5573 95.9959 78.85 95.9959 78.85V43.6094" stroke="#4E84FF" stroke-width="2" stroke-linecap="round" stroke-linejoin="round"/>
<path d="M4.88057 41.2405C3.87062 40.9881 3.87062 39.5527 4.88057 39.3003L61.8391 25.0606C61.9983 25.0208 62.1649 25.0208 62.3241 25.0606L119.283 39.3003C120.293 39.5527 120.293 40.9881 119.283 41.2405L62.3241 55.4802C62.1649 55.52 61.9983 55.52 61.8391 55.4802L4.88057 41.2405Z" fill="#EBF1FD" fill-opacity="0.1" stroke="#4E84FF" stroke-width="2" stroke-linecap="round" stroke-linejoin="round"/>
<path d="M10.1172 43.2344L10.1172 98.5008" stroke="#4E84FF" stroke-width="2" stroke-linecap="round" stroke-linejoin="round"/>
<path d="M18.1808 109.265L10.9303 99.2166C10.53 98.6618 9.70325 98.6638 9.30562 99.2206L2.12922 109.269C1.65653 109.931 2.12967 110.85 2.943 110.85H17.3698C18.1854 110.85 18.658 109.927 18.1808 109.265Z" fill="#EBF1FD" fill-opacity="0.1" stroke="#4E84FF" stroke-width="2" stroke-linecap="round" stroke-linejoin="round"/>
</svg>
