<svg width="16" height="16" viewBox="0 0 16 16" fill="none" xmlns="http://www.w3.org/2000/svg">
<path d="M7.25 12.5C10.1495 12.5 12.5 10.1495 12.5 7.25C12.5 4.35051 10.1495 2 7.25 2C4.35051 2 2 4.35051 2 7.25C2 10.1495 4.35051 12.5 7.25 12.5Z" stroke="#061432" stroke-width="2" stroke-linecap="round" stroke-linejoin="round"/>
<path d="M11.669 10.2553C11.2785 9.86477 10.6453 9.86477 10.2548 10.2553C9.86428 10.6458 9.86428 11.279 10.2548 11.6695L11.669 10.2553ZM13.2923 14.707C13.6829 15.0976 14.316 15.0976 14.7066 14.707C15.0971 14.3165 15.0971 13.6834 14.7066 13.2928L13.2923 14.707ZM10.2548 11.6695L13.2923 14.707L14.7066 13.2928L11.669 10.2553L10.2548 11.6695Z" fill="#061432"/>
</svg>
